  0
SECTION
  2
HEADER
  9
$ACADVER
  1
AC1015
  9
$ACADMAINTVER
 70
     6
  9
$DWGCODEPAGE
  3
ANSI_1252
  9
$INSBASE
 10
0.0
 20
0.0
 30
0.0
  9
$EXTMIN
 10
0.0
 20
0.0
 30
0.0
  9
$EXTMAX
 10
1189.0
 20
841.0
 30
0.0
  9
$LIMMIN
 10
0.0
 20
0.0
  9
$LIMMAX
 10
1189.0
 20
841.0
  9
$ORTHOMODE
 70
     0
  9
$REGENMODE
 70
     1
  9
$FILLMODE
 70
     1
  9
$QTEXTMODE
 70
     0
  9
$MIRRTEXT
 70
     1
  9
$LTSCALE
 40
1.0
  9
$ATTMODE
 70
     1
  9
$TEXTSIZE
 40
3.175
  9
$TRACEWID
 40
1.0
  9
$TEXTSTYLE
  7
Standard
  9
$CLAYER
  8
0
  9
$CELTYPE
  6
ByLayer
  9
$CECOLOR
 62
   256
  9
$CELTSCALE
 40
1.0
  9
$DISPSILH
 70
     0
  9
$DIMSCALE
 40
1.0
  9
$DIMASZ
 40
3.302
  9
$DIMEXO
 40
1.27
  9
$DIMDLI
 40
3.75
  9
$DIMRND
 40
0.0
  9
$DIMDLE
 40
0.0
  9
$DIMEXE
 40
3.175
  9
$DIMTP
 40
0.0
  9
$DIMTM
 40
0.0
  9
$DIMTXT
 40
3.175
  9
$DIMCEN
 40
2.5
  9
$DIMTSZ
 40
0.0
  9
$DIMTOL
 70
     0
  9
$DIMLIM
 70
     0
  9
$DIMTIH
 70
     1
  9
$DIMTOH
 70
     1
  9
$DIMSE1
 70
     0
  9
$DIMSE2
 70
     0
  9
$DIMTAD
 70
     0
  9
$DIMZIN
 70
     0
  9
$DIMBLK
  1

  9
$DIMASO
 70
     1
  9
$DIMSHO
 70
     1
  9
$DIMPOST
  1

  9
$DIMAPOST
  1

  9
$DIMALT
 70
     0
  9
$DIMALTD
 70
     3
  9
$DIMALTF
 40
0.0393700787
  9
$DIMLFAC
 40
1.0
  9
$DIMTOFL
 70
     1
  9
$DIMTVP
 40
0.0
  9
$DIMTIX
 70
     0
  9
$DIMSOXD
 70
     0
  9
$DIMSAH
 70
     0
  9
$DIMBLK1
  1

  9
$DIMBLK2
  1

  9
$DIMSTYLE
  2
ISO-25
  9
$DIMCLRD
 70
     0
  9
$DIMCLRE
 70
     0
  9
$DIMCLRT
 70
     0
  9
$DIMTFAC
 40
1.0
  9
$DIMGAP
 40
1.524
  9
$DIMJUST
 70
     0
  9
$DIMSD1
 70
     0
  9
$DIMSD2
 70
     0
  9
$DIMTOLJ
 70
     0
  9
$DIMTZIN
 70
     0
  9
$DIMALTZ
 70
     0
  9
$DIMALTTZ
 70
     0
  9
$DIMUPT
 70
     0
  9
$DIMDEC
 70
     2
  9
$DIMTDEC
 70
     2
  9
$DIMALTU
 70
     2
  9
$DIMALTTD
 70
     3
  9
$DIMTXSTY
  7
Standard
  9
$DIMAUNIT
 70
     0
  9
$DIMADEC
 70
     2
  9
$DIMALTRND
 40
0.0
  9
$DIMAZIN
 70
     0
  9
$DIMDSEP
 70
    44
  9
$DIMATFIT
 70
     3
  9
$DIMFRAC
 70
     0
  9
$DIMLDRBLK
  1

  9
$DIMLUNIT
 70
     2
  9
$DIMLWD
 70
    -2
  9
$DIMLWE
 70
    -2
  9
$DIMTMOVE
 70
     0
  9
$LUNITS
 70
     2
  9
$LUPREC
 70
     2
  9
$SKETCHINC
 40
1.0
  9
$FILLETRAD
 40
10.0
  9
$AUNITS
 70
     0
  9
$AUPREC
 70
     2
  9
$MENU
  1
.
  9
$ELEVATION
 40
0.0
  9
$PELEVATION
 40
0.0
  9
$THICKNESS
 40
0.0
  9
$LIMCHECK
 70
     0
  9
$CHAMFERA
 40
0.0
  9
$CHAMFERB
 40
0.0
  9
$CHAMFERC
 40
0.0
  9
$CHAMFERD
 40
0.0
  9
$SKPOLY
 70
     0
  9
$TDCREATE
 40
2458920.590159942
  9
$TDUCREATE
 40
2458920.360993275
  9
$TDUPDATE
 40
2458920.590160301
  9
$TDUUPDATE
 40
2458920.360993634
  9
$TDINDWG
 40
0.0000000116
  9
$TDUSRTIMER
 40
0.0000000116
  9
$USRTIMER
 70
     1
  9
$ANGBASE
 50
0.0
  9
$ANGDIR
 70
     0
  9
$PDMODE
 70
     0
  9
$PDSIZE
 40
-1.0
  9
$PLINEWID
 40
0.0
  9
$SPLFRAME
 70
     0
  9
$SPLINETYPE
 70
     6
  9
$SPLINESEGS
 70
     8
  9
$HANDSEED
  5
3CB
  9
$SURFTAB1
 70
     6
  9
$SURFTAB2
 70
     6
  9
$SURFTYPE
 70
     6
  9
$SURFU
 70
     6
  9
$SURFV
 70
     6
  9
$UCSBASE
  2

  9
$UCSNAME
  2

  9
$UCSORG
 10
0.0
 20
0.0
 30
0.0
  9
$UCSXDIR
 10
1.0
 20
0.0
 30
0.0
  9
$UCSYDIR
 10
0.0
 20
1.0
 30
0.0
  9
$UCSORTHOREF
  2

  9
$UCSORTHOVIEW
 70
     0
  9
$UCSORGTOP
 10
0.0
 20
0.0
 30
0.0
  9
$UCSORGBOTTOM
 10
0.0
 20
0.0
 30
0.0
  9
$UCSORGLEFT
 10
0.0
 20
0.0
 30
0.0
  9
$UCSORGRIGHT
 10
0.0
 20
0.0
 30
0.0
  9
$UCSORGFRONT
 10
0.0
 20
0.0
 30
0.0
  9
$UCSORGBACK
 10
0.0
 20
0.0
 30
0.0
  9
$PUCSBASE
  2

  9
$PUCSNAME
  2

  9
$PUCSORG
 10
0.0
 20
0.0
 30
0.0
  9
$PUCSXDIR
 10
1.0
 20
0.0
 30
0.0
  9
$PUCSYDIR
 10
0.0
 20
1.0
 30
0.0
  9
$PUCSORTHOREF
  2

  9
$PUCSORTHOVIEW
 70
     0
  9
$PUCSORGTOP
 10
0.0
 20
0.0
 30
0.0
  9
$PUCSORGBOTTOM
 10
0.0
 20
0.0
 30
0.0
  9
$PUCSORGLEFT
 10
0.0
 20
0.0
 30
0.0
  9
$PUCSORGRIGHT
 10
0.0
 20
0.0
 30
0.0
  9
$PUCSORGFRONT
 10
0.0
 20
0.0
 30
0.0
  9
$PUCSORGBACK
 10
0.0
 20
0.0
 30
0.0
  9
$USERI1
 70
     0
  9
$USERI2
 70
     0
  9
$USERI3
 70
     0
  9
$USERI4
 70
     0
  9
$USERI5
 70
     0
  9
$USERR1
 40
0.0
  9
$USERR2
 40
0.0
  9
$USERR3
 40
0.0
  9
$USERR4
 40
0.0
  9
$USERR5
 40
0.0
  9
$WORLDVIEW
 70
     1
  9
$SHADEDGE
 70
     3
  9
$SHADEDIF
 70
    70
  9
$TILEMODE
 70
     1
  9
$MAXACTVP
 70
    64
  9
$PINSBASE
 10
0.0
 20
0.0
 30
0.0
  9
$PLIMCHECK
 70
     0
  9
$PEXTMIN
 10
1.0000000000E+20
 20
1.0000000000E+20
 30
1.0000000000E+20
  9
$PEXTMAX
 10
-1.0000000000E+20
 20
-1.0000000000E+20
 30
-1.0000000000E+20
  9
$PLIMMIN
 10
0.0
 20
0.0
  9
$PLIMMAX
 10
420.0
 20
297.0
  9
$UNITMODE
 70
     0
  9
$VISRETAIN
 70
     1
  9
$PLINEGEN
 70
     0
  9
$PSLTSCALE
 70
     1
  9
$TREEDEPTH
 70
  3020
  9
$CMLSTYLE
  2
Standard
  9
$CMLJUST
 70
     0
  9
$CMLSCALE
 40
20.0
  9
$PROXYGRAPHICS
 70
     1
  9
$MEASUREMENT
 70
     1
  9
$CELWEIGHT
370
    -1
  9
$ENDCAPS
280
     0
  9
$JOINSTYLE
280
     0
  9
$LWDISPLAY
290
     1
  9
$INSUNITS
 70
     4
  9
$HYPERLINKBASE
  1

  9
$STYLESHEET
  1

  9
$XEDIT
290
     1
  9
$CEPSNTYPE
380
     0
  9
$PSTYLEMODE
290
     1
  9
$FINGERPRINTGUID
  2
{71E5637E-B554-45A7-A99F-5FE9B9356813}
  9
$VERSIONGUID
  2
{FAEB1C32-E019-11D5-929B-00C0DF256EC4}
  9
$EXTNAMES
290
     1
  9
$PSVPSCALE
 40
0.0
  9
$OLESTARTUP
290
     0
  0
ENDSEC
  0
SECTION
  2
CLASSES
  0
CLASS
  1
ACDBDICTIONARYWDFLT
  2
AcDbDictionaryWithDefault
  3
ObjectDBX Classes
 90
        0
280
     0
281
     0
  0
CLASS
  1
VISUALSTYLE
  2
AcDbVisualStyle
  3
ObjectDBX Classes
 90
     4095
280
     0
281
     0
  0
CLASS
  1
MATERIAL
  2
AcDbMaterial
  3
ObjectDBX Classes
 90
     1153
280
     0
281
     0
  0
CLASS
  1
SCALE
  2
AcDbScale
  3
ObjectDBX Classes
 90
     1153
280
     0
281
     0
  0
CLASS
  1
TABLESTYLE
  2
AcDbTableStyle
  3
ObjectDBX Classes
 90
     4095
280
     0
281
     0
  0
CLASS
  1
MLEADERSTYLE
  2
AcDbMLeaderStyle
  3
ACDB_MLEADERSTYLE_CLASS
 90
     4095
280
     0
281
     0
  0
CLASS
  1
SUN
  2
AcDbSun
  3
SCENEOE
 90
     1153
280
     0
281
     0
  0
CLASS
  1
ACDBPLACEHOLDER
  2
AcDbPlaceHolder
  3
ObjectDBX Classes
 90
        0
280
     0
281
     0
  0
CLASS
  1
LAYOUT
  2
AcDbLayout
  3
ObjectDBX Classes
 90
        0
280
     0
281
     0
  0
ENDSEC
  0
SECTION
  2
TABLES
  0
TABLE
  2
VPORT
  5
8
330
0
100
AcDbSymbolTable
 70
     1
  0
VPORT
  5
29
330
8
100
AcDbSymbolTableRecord
100
AcDbViewportTableRecord
  2
*Active
 70
     0
 10
0.0
 20
0.0
 11
1.0
 21
1.0
 12
594.5
 22
420.5
 13
0.0
 23
0.0
 14
10.0
 24
10.0
 15
10.0
 25
10.0
 16
0.0
 26
0.0
 36
1.0
 17
0.0
 27
0.0
 37
0.0
 40
841.0
 41
1.4137931034
 42
50.0
 43
0.0
 44
0.0
 50
0.0
 51
0.0
 71
     0
 72
  2000
 73
     1
 74
     3
 75
     0
 76
     0
 77
     0
 78
     0
281
     0
 65
     1
110
0.0
120
0.0
130
0.0
111
1.0
121
0.0
131
0.0
112
0.0
122
1.0
132
0.0
 79
     0
146
0.0
  0
ENDTAB
  0
TABLE
  2
LTYPE
  5
5
330
0
100
AcDbSymbolTable
 70
     6
  0
LTYPE
  5
14
330
5
100
AcDbSymbolTableRecord
100
AcDbLinetypeTableRecord
  2
ByBlock
 70
     0
  3

 72
    65
 73
     0
 40
0.0
  0
LTYPE
  5
15
330
5
100
AcDbSymbolTableRecord
100
AcDbLinetypeTableRecord
  2
ByLayer
 70
     0
  3

 72
    65
 73
     0
 40
0.0
  0
LTYPE
  5
16
330
5
100
AcDbSymbolTableRecord
100
AcDbLinetypeTableRecord
  2
Continuous
 70
     0
  3
Solid line
 72
    65
 73
     0
 40
0.0
  0
LTYPE
  5
6E
330
5
100
AcDbSymbolTableRecord
100
AcDbLinetypeTableRecord
  2
HIDDEN
 70
     0
  3
Hidden __ __ __ __ __ __ __ __ __ __ __ __ __ __
 72
    65
 73
     2
 40
1.905
 49
1.27
 74
     0
 49
-0.635
 74
     0
  0
LTYPE
  5
6F
330
5
100
AcDbSymbolTableRecord
100
AcDbLinetypeTableRecord
  2
PHANTOM
 70
     0
  3
Phantom ______  __  __  ______  __  __  ______
 72
    65
 73
     6
 40
12.7
 49
6.35
 74
     0
 49
-1.27
 74
     0
 49
1.27
 74
     0
 49
-1.27
 74
     0
 49
1.27
 74
     0
 49
-1.27
 74
     0
  0
LTYPE
  5
70
330
5
100
AcDbSymbolTableRecord
100
AcDbLinetypeTableRecord
  2
CENTER
 70
     0
  3
Center ____ _ ____ _ ____ _ ____ _ ____ _ ____
 72
    65
 73
     4
 40
10.16
 49
6.35
 74
     0
 49
-1.27
 74
     0
 49
1.27
 74
     0
 49
-1.27
 74
     0
  0
LTYPE
  5
71
330
5
100
AcDbSymbolTableRecord
100
AcDbLinetypeTableRecord
  2
CENTERX2
 70
     0
  3
Center (2x) ________  __  ________  __  _____
 72
    65
 73
     4
 40
20.32
 49
12.7
 74
     0
 49
-2.54
 74
     0
 49
2.54
 74
     0
 49
-2.54
 74
     0
  0
LTYPE
  5
72
330
5
100
AcDbSymbolTableRecord
100
AcDbLinetypeTableRecord
  2
DOT2
 70
     0
  3
Dot (.5x) ........................................
 72
    65
 73
     2
 40
0.635
 49
0.0
 74
     0
 49
-0.635
 74
     0
  0
ENDTAB
  0
TABLE
  2
LAYER
  5
2
330
0
100
AcDbSymbolTable
 70
     2
  0
LAYER
  5
10
330
2
100
AcDbSymbolTableRecord
100
AcDbLayerTableRecord
  2
0
 70
     0
 62
     7
  6
Continuous
370
    -3
390
F
  0
LAYER
  5
73
330
2
100
AcDbSymbolTableRecord
100
AcDbLayerTableRecord
  2
FORMAT
 70
     0
 62
     7
  6
Continuous
370
    -3
390
F
  0
ENDTAB
  0
TABLE
  2
STYLE
  5
3
330
0
100
AcDbSymbolTable
 70
     1
  0
STYLE
  5
11
330
3
100
AcDbSymbolTableRecord
100
AcDbTextStyleTableRecord
  2
Standard
 70
     0
 40
0.0
 41
1.0
 50
0.0
 71
     0
 42
3.175
  3
txt
  4

  0
ENDTAB
  0
TABLE
  2
VIEW
  5
6
330
0
100
AcDbSymbolTable
 70
     0
  0
ENDTAB
  0
TABLE
  2
UCS
  5
7
330
0
100
AcDbSymbolTable
 70
     0
  0
ENDTAB
  0
TABLE
  2
APPID
  5
9
330
0
100
AcDbSymbolTable
 70
     1
  0
APPID
  5
12
330
9
100
AcDbSymbolTableRecord
100
AcDbRegAppTableRecord
  2
ACAD
 70
     0
  0
ENDTAB
  0
TABLE
  2
DIMSTYLE
  5
A
330
0
100
AcDbSymbolTable
 70
     1
100
AcDbDimStyleTable
  0
DIMSTYLE
105
27
330
A
100
AcDbSymbolTableRecord
100
AcDbDimStyleTableRecord
  2
ISO-25
 70
     0
 41
2.5
 42
0.625
 43
3.75
 44
1.25
 73
     0
 74
     0
 77
     1
 78
     8
140
2.5
141
2.5
143
0.0393700787
147
0.625
171
     3
172
     1
178
     0
271
     2
272
     2
274
     3
278
    44
283
     0
284
     8
340
11
  0
ENDTAB
  0
TABLE
  2
BLOCK_RECORD
  5
1
330
0
100
AcDbSymbolTable
 70
    13
  0
BLOCK_RECORD
  5
1F
330
1
100
AcDbSymbolTableRecord
100
AcDbBlockTableRecord
  2
*Model_Space
340
22
  0
BLOCK_RECORD
  5
1B
330
1
100
AcDbSymbolTableRecord
100
AcDbBlockTableRecord
  2
*Paper_Space
340
1E
  0
BLOCK_RECORD
  5
23
330
1
100
AcDbSymbolTableRecord
100
AcDbBlockTableRecord
  2
*Paper_Space0
340
26
  0
BLOCK_RECORD
  5
74
330
1
100
AcDbSymbolTableRecord
100
AcDbBlockTableRecord
  2
Block15
340
0
102
{BLKREFS
331
3A3
102
}
  0
BLOCK_RECORD
  5
B0
330
1
100
AcDbSymbolTableRecord
100
AcDbBlockTableRecord
  2
Block16
340
0
102
{BLKREFS
331
3A4
102
}
  0
BLOCK_RECORD
  5
EC
330
1
100
AcDbSymbolTableRecord
100
AcDbBlockTableRecord
  2
Block17
340
0
102
{BLKREFS
331
3A6
102
}
  0
BLOCK_RECORD
  5
128
330
1
100
AcDbSymbolTableRecord
100
AcDbBlockTableRecord
  2
Block18
340
0
102
{BLKREFS
331
3A8
102
}
  0
BLOCK_RECORD
  5
164
330
1
100
AcDbSymbolTableRecord
100
AcDbBlockTableRecord
  2
Block21
340
0
102
{BLKREFS
331
3A7
102
}
  0
BLOCK_RECORD
  5
1AB
330
1
100
AcDbSymbolTableRecord
100
AcDbBlockTableRecord
  2
Block22
340
0
102
{BLKREFS
331
3A5
102
}
  0
BLOCK_RECORD
  5
203
330
1
100
AcDbSymbolTableRecord
100
AcDbBlockTableRecord
  2
Block23
340
0
102
{BLKREFS
331
3A9
102
}
  0
BLOCK_RECORD
  5
238
330
1
100
AcDbSymbolTableRecord
100
AcDbBlockTableRecord
  2
Block27
340
0
102
{BLKREFS
331
3AA
102
}
  0
BLOCK_RECORD
  5
308
330
1
100
AcDbSymbolTableRecord
100
AcDbBlockTableRecord
  2
Block28
340
0
102
{BLKREFS
331
3AB
102
}
  0
BLOCK_RECORD
  5
363
330
1
100
AcDbSymbolTableRecord
100
AcDbBlockTableRecord
  2
Block31
340
0
102
{BLKREFS
331
3AC
102
}
  0
BLOCK_RECORD
  5
3B3
330
1
100
AcDbSymbolTableRecord
100
AcDbBlockTableRecord
  2
SW_CENTERMARKSYMBOL_0
340
0
102
{BLKREFS
331
3BE
102
}
  0
BLOCK_RECORD
  5
3BF
330
1
100
AcDbSymbolTableRecord
100
AcDbBlockTableRecord
  2
SW_CENTERMARKSYMBOL_1
340
0
102
{BLKREFS
331
3CA
102
}
  0
ENDTAB
  0
ENDSEC
  0
SECTION
  2
BLOCKS
  0
BLOCK
  5
20
330
1F
100
AcDbEntity
  8
0
100
AcDbBlockBegin
  2
*Model_Space
 70
     0
 10
0.0
 20
0.0
 30
0.0
  3
*Model_Space
  1

  0
ENDBLK
  5
21
330
1F
100
AcDbEntity
  8
0
100
AcDbBlockEnd
  0
BLOCK
  5
1C
330
1B
100
AcDbEntity
 67
     1
  8
0
100
AcDbBlockBegin
  2
*Paper_Space
 70
     0
 10
0.0
 20
0.0
 30
0.0
  3
*Paper_Space
  1

  0
ENDBLK
  5
1D
330
1B
100
AcDbEntity
 67
     1
  8
0
100
AcDbBlockEnd
  0
BLOCK
  5
24
330
23
100
AcDbEntity
  8
0
100
AcDbBlockBegin
  2
*Paper_Space0
 70
     0
 10
0.0
 20
0.0
 30
0.0
  3
*Paper_Space0
  1

  0
ENDBLK
  5
25
330
23
100
AcDbEntity
  8
0
100
AcDbBlockEnd
  0
BLOCK
  5
75
330
74
100
AcDbEntity
  8
0
100
AcDbBlockBegin
  2
Block15
 70
     0
 10
0.0
 20
0.0
 30
0.0
  3
Block15
  1

  0
ARC
  5
77
330
74
100
AcDbEntity
  8
0
  6
Continuous
 62
     7
370
    18
100
AcDbCircle
 10
44.0787205179
 20
119.0000000102
 30
0.0
 40
5.000021516707093
100
AcDbArc
 50
90.0
 51
90.1681290147
  0
ARC
  5
78
330
74
100
AcDbEntity
  8
0
  6
Continuous
 62
     7
370
    18
100
AcDbCircle
 10
44.0787205179
 20
119.0000000102
 30
0.0
 40
5.000021516707093
100
AcDbArc
 50
90.0
 51
90.1681290147
  0
ARC
  5
79
330
74
100
AcDbEntity
  8
0
  6
Continuous
 62
     7
370
    18
100
AcDbCircle
 10
44.0640484515
 20
119.0000000102
 30
0.0
 40
5.014693581518983
100
AcDbArc
 50
359.9729186855
 51
89.9729186855
  0
ARC
  5
7A
330
74
100
AcDbEntity
  8
0
  6
Continuous
 62
     7
370
    18
100
AcDbCircle
 10
24.0640484515
 20
104.0
 30
0.0
 40
20.00000000000001
100
AcDbArc
 50
90.0
 51
180.0
  0
LINE
  5
7B
330
74
100
AcDbEntity
  8
0
  6
Continuous
 62
   179
370
    25
100
AcDbLine
 10
49.0787414728
 20
118.9976297747
 30
0.0
 11
49.0787420346
 21
119.0000000102
 31
0.0
  0
CIRCLE
  5
7C
330
74
100
AcDbEntity
  8
0
  6
Continuous
 62
     7
370
    18
100
AcDbCircle
 10
14.1708035704
 20
87.619603613
 30
0.0
 40
2.499999999999912
  0
CIRCLE
  5
7D
330
74
100
AcDbEntity
  8
0
  6
Continuous
 62
     7
370
    18
100
AcDbCircle
 10
34.1708035704
 20
87.619603613
 30
0.0
 40
2.499999999999935
  0
CIRCLE
  5
7E
330
74
100
AcDbEntity
  8
0
  6
Continuous
 62
     7
370
    18
100
AcDbCircle
 10
44.0787205179
 20
119.0000000102
 30
0.0
 40
2.499999999999947
  0
ARC
  5
7F
330
74
100
AcDbEntity
  8
0
  6
Continuous
 62
     7
370
    18
100
AcDbCircle
 10
14.1708035704
 20
87.619603613
 30
0.0
 40
2.500000000000059
100
AcDbArc
 50
180.0
 51
270.0
  0
LINE
  5
80
330
74
100
AcDbEntity
  8
0
  6
Continuous
 62
     7
370
    18
100
AcDbLine
 10
0.0
 20
13.8688234067
 30
0.0
 11
0.0
 21
23.8688234067
 31
0.0
  0
LINE
  5
81
330
74
100
AcDbEntity
  8
0
  6
Continuous
 62
     7
370
    18
100
AcDbLine
 10
0.0
 20
83.8688234067
 30
0.0
 11
4.0640484515
 21
83.8688234067
 31
0.0
  0
LINE
  5
82
330
74
100
AcDbEntity
  8
0
  6
Continuous
 62
     7
370
    18
100
AcDbLine
 10
4.0
 20
13.8688234067
 30
0.0
 11
0.0
 21
13.8688234067
 31
0.0
  0
LINE
  5
83
330
74
100
AcDbEntity
  8
0
  6
Continuous
 62
     7
370
    18
100
AcDbLine
 10
4.0
 20
23.8688234067
 30
0.0
 11
0.0
 21
23.8688234067
 31
0.0
  0
LINE
  5
84
330
74
100
AcDbEntity
  8
0
  6
Continuous
 62
     7
370
    18
100
AcDbLine
 10
4.0
 20
33.8688234067
 30
0.0
 11
0.0
 21
33.8688234067
 31
0.0
  0
LINE
  5
85
330
74
100
AcDbEntity
  8
0
  6
Continuous
 62
     7
370
    18
100
AcDbLine
 10
4.0
 20
43.8688234067
 30
0.0
 11
0.0
 21
43.8688234067
 31
0.0
  0
LINE
  5
86
330
74
100
AcDbEntity
  8
0
  6
Continuous
 62
     7
370
    18
100
AcDbLine
 10
4.0
 20
53.8688234067
 30
0.0
 11
0.0
 21
53.8688234067
 31
0.0
  0
LINE
  5
87
330
74
100
AcDbEntity
  8
0
  6
Continuous
 62
     7
370
    18
100
AcDbLine
 10
4.0
 20
63.8688234067
 30
0.0
 11
0.0
 21
63.8688234067
 31
0.0
  0
LINE
  5
88
330
74
100
AcDbEntity
  8
0
  6
Continuous
 62
     7
370
    18
100
AcDbLine
 10
4.0
 20
73.8688234067
 30
0.0
 11
0.0
 21
73.8688234067
 31
0.0
  0
LINE
  5
89
330
74
100
AcDbEntity
  8
0
  6
Continuous
 62
     7
370
    18
100
AcDbLine
 10
4.0640484515
 20
4.0
 30
0.0
 11
6.5640484515
 21
4.0
 31
0.0
  0
LINE
  5
8A
330
74
100
AcDbEntity
  8
0
  6
Continuous
 62
   179
370
    18
100
AcDbLine
 10
34.1708035704
 20
90.119603613
 30
0.0
 11
34.1708035704
 21
90.159603613
 31
0.0
  0
LINE
  5
8B
330
74
100
AcDbEntity
  8
0
  6
Continuous
 62
   179
370
    18
100
AcDbLine
 10
31.6708035704
 20
87.619603613
 30
0.0
 11
31.6308035704
 21
87.619603613
 31
0.0
  0
LINE
  5
8C
330
74
100
AcDbEntity
  8
0
  6
Continuous
 62
   179
370
    18
100
AcDbLine
 10
34.1708035704
 20
85.119603613
 30
0.0
 11
34.1708035704
 21
85.079603613
 31
0.0
  0
LINE
  5
8D
330
74
100
AcDbEntity
  8
0
  6
Continuous
 62
   179
370
    18
100
AcDbLine
 10
36.6708035704
 20
87.619603613
 30
0.0
 11
36.7108035704
 21
87.619603613
 31
0.0
  0
LINE
  5
8E
330
74
100
AcDbEntity
  8
0
  6
Continuous
 62
     7
370
    18
100
AcDbLine
 10
16.5640484515
 20
0.0
 30
0.0
 11
21.5640484515
 21
0.0
 31
0.0
  0
LINE
  5
8F
330
74
100
AcDbEntity
  8
0
  6
Continuous
 62
     7
370
    18
100
AcDbLine
 10
6.5640484515
 20
0.0
 30
0.0
 11
11.5640484515
 21
0.0
 31
0.0
  0
LINE
  5
90
330
74
100
AcDbEntity
  8
0
  6
Continuous
 62
     7
370
    18
100
AcDbLine
 10
11.5640484515
 20
4.0
 30
0.0
 11
16.5640484515
 21
4.0
 31
0.0
  0
LINE
  5
91
330
74
100
AcDbEntity
  8
0
  6
Continuous
 62
     7
370
    18
100
AcDbLine
 10
6.5640484515
 20
4.0
 30
0.0
 11
6.5640484515
 21
0.0
 31
0.0
  0
LINE
  5
92
330
74
100
AcDbEntity
  8
0
  6
Continuous
 62
   179
370
    18
100
AcDbLine
 10
14.1708035704
 20
90.119603613
 30
0.0
 11
14.1708035704
 21
90.159603613
 31
0.0
  0
LINE
  5
93
330
74
100
AcDbEntity
  8
0
  6
Continuous
 62
   179
370
    18
100
AcDbLine
 10
11.6708035704
 20
87.619603613
 30
0.0
 11
11.6308035704
 21
87.619603613
 31
0.0
  0
LINE
  5
94
330
74
100
AcDbEntity
  8
0
  6
Continuous
 62
   179
370
    18
100
AcDbLine
 10
14.1708035704
 20
85.119603613
 30
0.0
 11
14.1708035704
 21
85.079603613
 31
0.0
  0
LINE
  5
95
330
74
100
AcDbEntity
  8
0
  6
Continuous
 62
   179
370
    18
100
AcDbLine
 10
16.6708035704
 20
87.619603613
 30
0.0
 11
16.7108035704
 21
87.619603613
 31
0.0
  0
LINE
  5
96
330
74
100
AcDbEntity
  8
0
  6
Continuous
 62
     7
370
    18
100
AcDbLine
 10
11.5640484515
 20
4.0
 30
0.0
 11
11.5640484515
 21
0.0
 31
0.0
  0
LINE
  5
97
330
74
100
AcDbEntity
  8
0
  6
Continuous
 62
     7
370
    18
100
AcDbLine
 10
16.5640484515
 20
4.0
 30
0.0
 11
16.5640484515
 21
0.0
 31
0.0
  0
LINE
  5
98
330
74
100
AcDbEntity
  8
0
  6
Continuous
 62
     7
370
    18
100
AcDbLine
 10
21.5640484515
 20
4.0
 30
0.0
 11
21.5640484515
 21
0.0
 31
0.0
  0
LINE
  5
99
330
74
100
AcDbEntity
  8
0
  6
Continuous
 62
   179
370
    18
100
AcDbLine
 10
41.5787205179
 20
119.0000000102
 30
0.0
 11
41.5387205179
 21
119.0000000102
 31
0.0
  0
LINE
  5
9A
330
74
100
AcDbEntity
  8
0
  6
Continuous
 62
   179
370
    18
100
AcDbLine
 10
46.5787205179
 20
119.0000000102
 30
0.0
 11
46.6187205179
 21
119.0000000102
 31
0.0
  0
LINE
  5
9B
330
74
100
AcDbEntity
  8
0
  6
Continuous
 62
   179
370
    18
100
AcDbLine
 10
44.0787205179
 20
124.0000215269
 30
0.0
 11
44.0787205179
 21
124.0400000102
 31
0.0
  0
LINE
  5
9C
330
74
100
AcDbEntity
  8
0
  6
Continuous
 62
     7
370
    18
100
AcDbLine
 10
26.5640484515
 20
4.0
 30
0.0
 11
26.5640484515
 21
0.0
 31
0.0
  0
LINE
  5
9D
330
74
100
AcDbEntity
  8
0
  6
Continuous
 62
     7
370
    18
100
AcDbLine
 10
31.5640484515
 20
4.0
 30
0.0
 11
31.5640484515
 21
0.0
 31
0.0
  0
LINE
  5
9E
330
74
100
AcDbEntity
  8
0
  6
Continuous
 62
   179
370
    18
100
AcDbLine
 10
49.0787420346
 20
119.0000000102
 30
0.0
 11
49.1187205179
 21
119.0000000102
 31
0.0
  0
LINE
  5
9F
330
74
100
AcDbEntity
  8
0
  6
Continuous
 62
     7
370
    18
100
AcDbLine
 10
4.0
 20
13.8688234067
 30
0.0
 11
4.0640484515
 21
4.0
 31
0.0
  0
LINE
  5
A0
330
74
100
AcDbEntity
  8
0
  6
Continuous
 62
     7
370
    18
100
AcDbLine
 10
0.0
 20
33.8688234067
 30
0.0
 11
0.0
 21
43.8688234067
 31
0.0
  0
LINE
  5
A1
330
74
100
AcDbEntity
  8
0
  6
Continuous
 62
     7
370
    18
100
AcDbLine
 10
0.0
 20
53.8688234067
 30
0.0
 11
0.0
 21
63.8688234067
 31
0.0
  0
LINE
  5
A2
330
74
100
AcDbEntity
  8
0
  6
Continuous
 62
     7
370
    18
100
AcDbLine
 10
0.0
 20
73.8688234067
 30
0.0
 11
0.0
 21
83.8688234067
 31
0.0
  0
LINE
  5
A3
330
74
100
AcDbEntity
  8
0
  6
Continuous
 62
     7
370
    18
100
AcDbLine
 10
4.0
 20
73.8688234067
 30
0.0
 11
4.0
 21
63.8688234067
 31
0.0
  0
LINE
  5
A4
330
74
100
AcDbEntity
  8
0
  6
Continuous
 62
     7
370
    18
100
AcDbLine
 10
4.0
 20
53.8688234067
 30
0.0
 11
4.0
 21
43.8688234067
 31
0.0
  0
LINE
  5
A5
330
74
100
AcDbEntity
  8
0
  6
Continuous
 62
     7
370
    18
100
AcDbLine
 10
4.0
 20
33.8688234067
 30
0.0
 11
4.0
 21
23.8688234067
 31
0.0
  0
LINE
  5
A6
330
74
100
AcDbEntity
  8
0
  6
Continuous
 62
     7
370
    18
100
AcDbLine
 10
36.5640484515
 20
4.0
 30
0.0
 11
36.5640484515
 21
0.0
 31
0.0
  0
LINE
  5
A7
330
74
100
AcDbEntity
  8
0
  6
Continuous
 62
     7
370
    18
100
AcDbLine
 10
41.5640484515
 20
4.0
 30
0.0
 11
41.5640484515
 21
0.0
 31
0.0
  0
LINE
  5
A8
330
74
100
AcDbEntity
  8
0
  6
Continuous
 62
     7
370
    18
100
AcDbLine
 10
21.5640484515
 20
4.0
 30
0.0
 11
26.5640484515
 21
4.0
 31
0.0
  0
LINE
  5
A9
330
74
100
AcDbEntity
  8
0
  6
Continuous
 62
     7
370
    18
100
AcDbLine
 10
26.5640484515
 20
0.0
 30
0.0
 11
31.5640484515
 21
0.0
 31
0.0
  0
LINE
  5
AA
330
74
100
AcDbEntity
  8
0
  6
Continuous
 62
     7
370
    18
100
AcDbLine
 10
31.5640484515
 20
4.0
 30
0.0
 11
36.5640484515
 21
4.0
 31
0.0
  0
LINE
  5
AB
330
74
100
AcDbEntity
  8
0
  6
Continuous
 62
     7
370
    18
100
AcDbLine
 10
36.5640484515
 20
0.0
 30
0.0
 11
41.5640484515
 21
0.0
 31
0.0
  0
LINE
  5
AC
330
74
100
AcDbEntity
  8
0
  6
Continuous
 62
     7
370
    18
100
AcDbLine
 10
41.5640484515
 20
4.0
 30
0.0
 11
49.0640484515
 21
4.0
 31
0.0
  0
LINE
  5
AD
330
74
100
AcDbEntity
  8
0
  6
Continuous
 62
     7
370
    18
100
AcDbLine
 10
4.0640484515
 20
83.8688234067
 30
0.0
 11
4.0640484515
 21
104.0
 31
0.0
  0
LINE
  5
AE
330
74
100
AcDbEntity
  8
0
  6
Continuous
 62
     7
370
    18
100
AcDbLine
 10
49.0640484515
 20
4.0
 30
0.0
 11
49.1187205179
 21
119.0000000102
 31
0.0
  0
LINE
  5
AF
330
74
100
AcDbEntity
  8
0
  6
Continuous
 62
     7
370
    18
100
AcDbLine
 10
24.0640484515
 20
124.0
 30
0.0
 11
44.0787205179
 21
124.0400000102
 31
0.0
  0
ENDBLK
  5
76
330
74
100
AcDbEntity
  8
0
100
AcDbBlockEnd
  0
BLOCK
  5
B1
330
B0
100
AcDbEntity
  8
0
100
AcDbBlockBegin
  2
Block16
 70
     0
 10
0.0
 20
0.0
 30
0.0
  3
Block16
  1

  0
ARC
  5
B3
330
B0
100
AcDbEntity
  8
0
  6
Continuous
 62
     7
370
    18
100
AcDbCircle
 10
34.9479169475
 20
87.619603613
 30
0.0
 40
2.5
100
AcDbArc
 50
270.0
 51
0.0
  0
CIRCLE
  5
B4
330
B0
100
AcDbEntity
  8
0
  6
Continuous
 62
     7
370
    18
100
AcDbCircle
 10
5.04
 20
119.0000000102
 30
0.0
 40
2.499999999999944
  0
CIRCLE
  5
B5
330
B0
100
AcDbEntity
  8
0
  6
Continuous
 62
     7
370
    18
100
AcDbCircle
 10
14.9479169475
 20
87.619603613
 30
0.0
 40
2.499999999999939
  0
CIRCLE
  5
B6
330
B0
100
AcDbEntity
  8
0
  6
Continuous
 62
     7
370
    18
100
AcDbCircle
 10
34.9479169475
 20
87.619603613
 30
0.0
 40
2.499999999999942
  0
LINE
  5
B7
330
B0
100
AcDbEntity
  8
0
  6
Continuous
 62
   179
370
    25
100
AcDbLine
 10
0.0399784833
 20
119.0000000102
 30
0.0
 11
0.0399790451
 21
118.9976297747
 31
0.0
  0
ARC
  5
B8
330
B0
100
AcDbEntity
  8
0
  6
Continuous
 62
     7
370
    18
100
AcDbCircle
 10
25.0546720665
 20
104.0
 30
0.0
 40
20.00000000000001
100
AcDbArc
 50
0.0
 51
90.0
  0
ARC
  5
B9
330
B0
100
AcDbEntity
  8
0
  6
Continuous
 62
     7
370
    18
100
AcDbCircle
 10
5.0546720665
 20
119.0000000102
 30
0.0
 40
5.014693581518983
100
AcDbArc
 50
90.0270813145
 51
180.0270813145
  0
ARC
  5
BA
330
B0
100
AcDbEntity
  8
0
  6
Continuous
 62
     7
370
    18
100
AcDbCircle
 10
5.04
 20
119.0000000102
 30
0.0
 40
5.000021516707093
100
AcDbArc
 50
89.8318709853
 51
90.0
  0
ARC
  5
BB
330
B0
100
AcDbEntity
  8
0
  6
Continuous
 62
     7
370
    18
100
AcDbCircle
 10
5.04
 20
119.0000000102
 30
0.0
 40
5.000021516707093
100
AcDbArc
 50
89.8318709853
 51
90.0
  0
LINE
  5
BC
330
B0
100
AcDbEntity
  8
0
  6
Continuous
 62
     7
370
    18
100
AcDbLine
 10
25.0546720665
 20
124.0
 30
0.0
 11
5.04
 21
124.0400000102
 31
0.0
  0
LINE
  5
BD
330
B0
100
AcDbEntity
  8
0
  6
Continuous
 62
     7
370
    18
100
AcDbLine
 10
0.0546720665
 20
4.0
 30
0.0
 11
0.0
 21
119.0000000102
 31
0.0
  0
LINE
  5
BE
330
B0
100
AcDbEntity
  8
0
  6
Continuous
 62
     7
370
    18
100
AcDbLine
 10
45.0546720665
 20
83.8688234067
 30
0.0
 11
45.0546720665
 21
104.0
 31
0.0
  0
LINE
  5
BF
330
B0
100
AcDbEntity
  8
0
  6
Continuous
 62
     7
370
    18
100
AcDbLine
 10
7.5546720665
 20
4.0
 30
0.0
 11
0.0546720665
 21
4.0
 31
0.0
  0
LINE
  5
C0
330
B0
100
AcDbEntity
  8
0
  6
Continuous
 62
     7
370
    18
100
AcDbLine
 10
12.5546720665
 20
0.0
 30
0.0
 11
7.5546720665
 21
0.0
 31
0.0
  0
LINE
  5
C1
330
B0
100
AcDbEntity
  8
0
  6
Continuous
 62
     7
370
    18
100
AcDbLine
 10
17.5546720665
 20
4.0
 30
0.0
 11
12.5546720665
 21
4.0
 31
0.0
  0
LINE
  5
C2
330
B0
100
AcDbEntity
  8
0
  6
Continuous
 62
     7
370
    18
100
AcDbLine
 10
22.5546720665
 20
0.0
 30
0.0
 11
17.5546720665
 21
0.0
 31
0.0
  0
LINE
  5
C3
330
B0
100
AcDbEntity
  8
0
  6
Continuous
 62
     7
370
    18
100
AcDbLine
 10
27.5546720665
 20
4.0
 30
0.0
 11
22.5546720665
 21
4.0
 31
0.0
  0
LINE
  5
C4
330
B0
100
AcDbEntity
  8
0
  6
Continuous
 62
     7
370
    18
100
AcDbLine
 10
7.5546720665
 20
4.0
 30
0.0
 11
7.5546720665
 21
0.0
 31
0.0
  0
LINE
  5
C5
330
B0
100
AcDbEntity
  8
0
  6
Continuous
 62
     7
370
    18
100
AcDbLine
 10
12.5546720665
 20
4.0
 30
0.0
 11
12.5546720665
 21
0.0
 31
0.0
  0
LINE
  5
C6
330
B0
100
AcDbEntity
  8
0
  6
Continuous
 62
     7
370
    18
100
AcDbLine
 10
45.1187205179
 20
33.8688234067
 30
0.0
 11
45.1187205179
 21
23.8688234067
 31
0.0
  0
LINE
  5
C7
330
B0
100
AcDbEntity
  8
0
  6
Continuous
 62
     7
370
    18
100
AcDbLine
 10
45.1187205179
 20
53.8688234067
 30
0.0
 11
45.1187205179
 21
43.8688234067
 31
0.0
  0
LINE
  5
C8
330
B0
100
AcDbEntity
  8
0
  6
Continuous
 62
     7
370
    18
100
AcDbLine
 10
45.1187205179
 20
73.8688234067
 30
0.0
 11
45.1187205179
 21
63.8688234067
 31
0.0
  0
LINE
  5
C9
330
B0
100
AcDbEntity
  8
0
  6
Continuous
 62
     7
370
    18
100
AcDbLine
 10
49.1187205179
 20
73.8688234067
 30
0.0
 11
49.1187205179
 21
83.8688234067
 31
0.0
  0
LINE
  5
CA
330
B0
100
AcDbEntity
  8
0
  6
Continuous
 62
     7
370
    18
100
AcDbLine
 10
49.1187205179
 20
53.8688234067
 30
0.0
 11
49.1187205179
 21
63.8688234067
 31
0.0
  0
LINE
  5
CB
330
B0
100
AcDbEntity
  8
0
  6
Continuous
 62
     7
370
    18
100
AcDbLine
 10
49.1187205179
 20
33.8688234067
 30
0.0
 11
49.1187205179
 21
43.8688234067
 31
0.0
  0
LINE
  5
CC
330
B0
100
AcDbEntity
  8
0
  6
Continuous
 62
     7
370
    18
100
AcDbLine
 10
45.1187205179
 20
13.8688234067
 30
0.0
 11
45.0546720665
 21
4.0
 31
0.0
  0
LINE
  5
CD
330
B0
100
AcDbEntity
  8
0
  6
Continuous
 62
   179
370
    18
100
AcDbLine
 10
0.0399784833
 20
119.0000000102
 30
0.0
 11
0.0
 21
119.0000000102
 31
0.0
  0
LINE
  5
CE
330
B0
100
AcDbEntity
  8
0
  6
Continuous
 62
     7
370
    18
100
AcDbLine
 10
17.5546720665
 20
4.0
 30
0.0
 11
17.5546720665
 21
0.0
 31
0.0
  0
LINE
  5
CF
330
B0
100
AcDbEntity
  8
0
  6
Continuous
 62
     7
370
    18
100
AcDbLine
 10
22.5546720665
 20
4.0
 30
0.0
 11
22.5546720665
 21
0.0
 31
0.0
  0
LINE
  5
D0
330
B0
100
AcDbEntity
  8
0
  6
Continuous
 62
   179
370
    18
100
AcDbLine
 10
5.04
 20
124.0000215269
 30
0.0
 11
5.04
 21
124.0400000102
 31
0.0
  0
LINE
  5
D1
330
B0
100
AcDbEntity
  8
0
  6
Continuous
 62
   179
370
    18
100
AcDbLine
 10
2.54
 20
119.0000000102
 30
0.0
 11
2.5
 21
119.0000000102
 31
0.0
  0
LINE
  5
D2
330
B0
100
AcDbEntity
  8
0
  6
Continuous
 62
   179
370
    18
100
AcDbLine
 10
7.54
 20
119.0000000102
 30
0.0
 11
7.58
 21
119.0000000102
 31
0.0
  0
LINE
  5
D3
330
B0
100
AcDbEntity
  8
0
  6
Continuous
 62
     7
370
    18
100
AcDbLine
 10
27.5546720665
 20
4.0
 30
0.0
 11
27.5546720665
 21
0.0
 31
0.0
  0
LINE
  5
D4
330
B0
100
AcDbEntity
  8
0
  6
Continuous
 62
     7
370
    18
100
AcDbLine
 10
32.5546720665
 20
4.0
 30
0.0
 11
32.5546720665
 21
0.0
 31
0.0
  0
LINE
  5
D5
330
B0
100
AcDbEntity
  8
0
  6
Continuous
 62
     7
370
    18
100
AcDbLine
 10
37.5546720665
 20
4.0
 30
0.0
 11
37.5546720665
 21
0.0
 31
0.0
  0
LINE
  5
D6
330
B0
100
AcDbEntity
  8
0
  6
Continuous
 62
   179
370
    18
100
AcDbLine
 10
32.4479169475
 20
87.619603613
 30
0.0
 11
32.4079169475
 21
87.619603613
 31
0.0
  0
LINE
  5
D7
330
B0
100
AcDbEntity
  8
0
  6
Continuous
 62
   179
370
    18
100
AcDbLine
 10
34.9479169475
 20
85.119603613
 30
0.0
 11
34.9479169475
 21
85.079603613
 31
0.0
  0
LINE
  5
D8
330
B0
100
AcDbEntity
  8
0
  6
Continuous
 62
   179
370
    18
100
AcDbLine
 10
37.4479169475
 20
87.619603613
 30
0.0
 11
37.4879169475
 21
87.619603613
 31
0.0
  0
LINE
  5
D9
330
B0
100
AcDbEntity
  8
0
  6
Continuous
 62
   179
370
    18
100
AcDbLine
 10
34.9479169475
 20
90.119603613
 30
0.0
 11
34.9479169475
 21
90.159603613
 31
0.0
  0
LINE
  5
DA
330
B0
100
AcDbEntity
  8
0
  6
Continuous
 62
     7
370
    18
100
AcDbLine
 10
42.5546720665
 20
4.0
 30
0.0
 11
42.5546720665
 21
0.0
 31
0.0
  0
LINE
  5
DB
330
B0
100
AcDbEntity
  8
0
  6
Continuous
 62
     7
370
    18
100
AcDbLine
 10
37.5546720665
 20
4.0
 30
0.0
 11
32.5546720665
 21
4.0
 31
0.0
  0
LINE
  5
DC
330
B0
100
AcDbEntity
  8
0
  6
Continuous
 62
     7
370
    18
100
AcDbLine
 10
42.5546720665
 20
0.0
 30
0.0
 11
37.5546720665
 21
0.0
 31
0.0
  0
LINE
  5
DD
330
B0
100
AcDbEntity
  8
0
  6
Continuous
 62
     7
370
    18
100
AcDbLine
 10
32.5546720665
 20
0.0
 30
0.0
 11
27.5546720665
 21
0.0
 31
0.0
  0
LINE
  5
DE
330
B0
100
AcDbEntity
  8
0
  6
Continuous
 62
   179
370
    18
100
AcDbLine
 10
12.4479169475
 20
87.619603613
 30
0.0
 11
12.4079169475
 21
87.619603613
 31
0.0
  0
LINE
  5
DF
330
B0
100
AcDbEntity
  8
0
  6
Continuous
 62
   179
370
    18
100
AcDbLine
 10
14.9479169475
 20
85.119603613
 30
0.0
 11
14.9479169475
 21
85.079603613
 31
0.0
  0
LINE
  5
E0
330
B0
100
AcDbEntity
  8
0
  6
Continuous
 62
   179
370
    18
100
AcDbLine
 10
17.4479169475
 20
87.619603613
 30
0.0
 11
17.4879169475
 21
87.619603613
 31
0.0
  0
LINE
  5
E1
330
B0
100
AcDbEntity
  8
0
  6
Continuous
 62
   179
370
    18
100
AcDbLine
 10
14.9479169475
 20
90.119603613
 30
0.0
 11
14.9479169475
 21
90.159603613
 31
0.0
  0
LINE
  5
E2
330
B0
100
AcDbEntity
  8
0
  6
Continuous
 62
     7
370
    18
100
AcDbLine
 10
45.0546720665
 20
4.0
 30
0.0
 11
42.5546720665
 21
4.0
 31
0.0
  0
LINE
  5
E3
330
B0
100
AcDbEntity
  8
0
  6
Continuous
 62
     7
370
    18
100
AcDbLine
 10
45.1187205179
 20
73.8688234067
 30
0.0
 11
49.1187205179
 21
73.8688234067
 31
0.0
  0
LINE
  5
E4
330
B0
100
AcDbEntity
  8
0
  6
Continuous
 62
     7
370
    18
100
AcDbLine
 10
45.1187205179
 20
63.8688234067
 30
0.0
 11
49.1187205179
 21
63.8688234067
 31
0.0
  0
LINE
  5
E5
330
B0
100
AcDbEntity
  8
0
  6
Continuous
 62
     7
370
    18
100
AcDbLine
 10
45.1187205179
 20
53.8688234067
 30
0.0
 11
49.1187205179
 21
53.8688234067
 31
0.0
  0
LINE
  5
E6
330
B0
100
AcDbEntity
  8
0
  6
Continuous
 62
     7
370
    18
100
AcDbLine
 10
45.1187205179
 20
43.8688234067
 30
0.0
 11
49.1187205179
 21
43.8688234067
 31
0.0
  0
LINE
  5
E7
330
B0
100
AcDbEntity
  8
0
  6
Continuous
 62
     7
370
    18
100
AcDbLine
 10
45.1187205179
 20
33.8688234067
 30
0.0
 11
49.1187205179
 21
33.8688234067
 31
0.0
  0
LINE
  5
E8
330
B0
100
AcDbEntity
  8
0
  6
Continuous
 62
     7
370
    18
100
AcDbLine
 10
45.1187205179
 20
23.8688234067
 30
0.0
 11
49.1187205179
 21
23.8688234067
 31
0.0
  0
LINE
  5
E9
330
B0
100
AcDbEntity
  8
0
  6
Continuous
 62
     7
370
    18
100
AcDbLine
 10
45.1187205179
 20
13.8688234067
 30
0.0
 11
49.1187205179
 21
13.8688234067
 31
0.0
  0
LINE
  5
EA
330
B0
100
AcDbEntity
  8
0
  6
Continuous
 62
     7
370
    18
100
AcDbLine
 10
49.1187205179
 20
83.8688234067
 30
0.0
 11
45.0546720665
 21
83.8688234067
 31
0.0
  0
LINE
  5
EB
330
B0
100
AcDbEntity
  8
0
  6
Continuous
 62
     7
370
    18
100
AcDbLine
 10
49.1187205179
 20
13.8688234067
 30
0.0
 11
49.1187205179
 21
23.8688234067
 31
0.0
  0
ENDBLK
  5
B2
330
B0
100
AcDbEntity
  8
0
100
AcDbBlockEnd
  0
BLOCK
  5
ED
330
EC
100
AcDbEntity
  8
0
100
AcDbBlockBegin
  2
Block17
 70
     0
 10
0.0
 20
0.0
 30
0.0
  3
Block17
  1

  0
ARC
  5
EF
330
EC
100
AcDbEntity
  8
0
  6
Continuous
 62
     7
370
    18
100
AcDbCircle
 10
196.5979929735
 20
601.5267013964
 30
0.0
 40
5.000021516707079
100
AcDbArc
 50
90.0
 51
90.1681290147
  0
ARC
  5
F0
330
EC
100
AcDbEntity
  8
0
  6
Continuous
 62
     7
370
    18
100
AcDbCircle
 10
196.5979929735
 20
601.5267013964
 30
0.0
 40
5.000021516707079
100
AcDbArc
 50
90.0
 51
90.1681290147
  0
ARC
  5
F1
330
EC
100
AcDbEntity
  8
0
  6
Continuous
 62
     7
370
    18
100
AcDbCircle
 10
196.583320907
 20
601.5267013964
 30
0.0
 40
5.014693581518968
100
AcDbArc
 50
359.9729186855
 51
89.9729186855
  0
ARC
  5
F2
330
EC
100
AcDbEntity
  8
0
  6
Continuous
 62
     7
370
    18
100
AcDbCircle
 10
176.583320907
 20
586.5267013862
 30
0.0
 40
20.0
100
AcDbArc
 50
90.0
 51
180.0
  0
LINE
  5
F3
330
EC
100
AcDbEntity
  8
0
  6
Continuous
 62
   179
370
    25
100
AcDbLine
 10
201.5980139284
 20
601.5243311609
 30
0.0
 11
201.5980144902
 21
601.5267013964
 31
0.0
  0
CIRCLE
  5
F4
330
EC
100
AcDbEntity
  8
0
  6
Continuous
 62
     7
370
    18
100
AcDbCircle
 10
166.6900760259
 20
570.1463049992
 30
0.0
 40
2.499999999999924
  0
CIRCLE
  5
F5
330
EC
100
AcDbEntity
  8
0
  6
Continuous
 62
     7
370
    18
100
AcDbCircle
 10
186.6900760259
 20
570.1463049992
 30
0.0
 40
2.499999999999924
  0
CIRCLE
  5
F6
330
EC
100
AcDbEntity
  8
0
  6
Continuous
 62
     7
370
    18
100
AcDbCircle
 10
196.5979929735
 20
601.5267013964
 30
0.0
 40
2.49999999999993
  0
ARC
  5
F7
330
EC
100
AcDbEntity
  8
0
  6
Continuous
 62
     7
370
    18
100
AcDbCircle
 10
166.6900760259
 20
570.1463049992
 30
0.0
 40
2.5
100
AcDbArc
 50
180.0
 51
270.0
  0
LINE
  5
F8
330
EC
100
AcDbEntity
  8
0
  6
Continuous
 62
     7
370
    18
100
AcDbLine
 10
152.5192724556
 20
496.3955247929
 30
0.0
 11
152.5192724556
 21
506.3955247929
 31
0.0
  0
LINE
  5
F9
330
EC
100
AcDbEntity
  8
0
  6
Continuous
 62
     7
370
    18
100
AcDbLine
 10
152.5192724556
 20
566.3955247929
 30
0.0
 11
156.583320907
 21
566.3955247929
 31
0.0
  0
LINE
  5
FA
330
EC
100
AcDbEntity
  8
0
  6
Continuous
 62
     7
370
    18
100
AcDbLine
 10
156.5192724556
 20
496.3955247929
 30
0.0
 11
152.5192724556
 21
496.3955247929
 31
0.0
  0
LINE
  5
FB
330
EC
100
AcDbEntity
  8
0
  6
Continuous
 62
     7
370
    18
100
AcDbLine
 10
156.5192724556
 20
506.3955247929
 30
0.0
 11
152.5192724556
 21
506.3955247929
 31
0.0
  0
LINE
  5
FC
330
EC
100
AcDbEntity
  8
0
  6
Continuous
 62
     7
370
    18
100
AcDbLine
 10
156.5192724556
 20
516.3955247929
 30
0.0
 11
152.5192724556
 21
516.3955247929
 31
0.0
  0
LINE
  5
FD
330
EC
100
AcDbEntity
  8
0
  6
Continuous
 62
     7
370
    18
100
AcDbLine
 10
156.5192724556
 20
526.3955247929
 30
0.0
 11
152.5192724556
 21
526.3955247929
 31
0.0
  0
LINE
  5
FE
330
EC
100
AcDbEntity
  8
0
  6
Continuous
 62
     7
370
    18
100
AcDbLine
 10
156.5192724556
 20
536.3955247929
 30
0.0
 11
152.5192724556
 21
536.3955247929
 31
0.0
  0
LINE
  5
FF
330
EC
100
AcDbEntity
  8
0
  6
Continuous
 62
     7
370
    18
100
AcDbLine
 10
156.5192724556
 20
546.3955247929
 30
0.0
 11
152.5192724556
 21
546.3955247929
 31
0.0
  0
LINE
  5
100
330
EC
100
AcDbEntity
  8
0
  6
Continuous
 62
     7
370
    18
100
AcDbLine
 10
156.5192724556
 20
556.3955247929
 30
0.0
 11
152.5192724556
 21
556.3955247929
 31
0.0
  0
LINE
  5
101
330
EC
100
AcDbEntity
  8
0
  6
Continuous
 62
     7
370
    18
100
AcDbLine
 10
156.583320907
 20
486.5267013862
 30
0.0
 11
159.083320907
 21
486.5267013862
 31
0.0
  0
LINE
  5
102
330
EC
100
AcDbEntity
  8
0
  6
Continuous
 62
   179
370
    18
100
AcDbLine
 10
186.6900760259
 20
572.6463049992
 30
0.0
 11
186.6900760259
 21
572.6863049992
 31
0.0
  0
LINE
  5
103
330
EC
100
AcDbEntity
  8
0
  6
Continuous
 62
   179
370
    18
100
AcDbLine
 10
184.1900760259
 20
570.1463049992
 30
0.0
 11
184.1500760259
 21
570.1463049992
 31
0.0
  0
LINE
  5
104
330
EC
100
AcDbEntity
  8
0
  6
Continuous
 62
   179
370
    18
100
AcDbLine
 10
186.6900760259
 20
567.6463049992
 30
0.0
 11
186.6900760259
 21
567.6063049992
 31
0.0
  0
LINE
  5
105
330
EC
100
AcDbEntity
  8
0
  6
Continuous
 62
   179
370
    18
100
AcDbLine
 10
189.1900760259
 20
570.1463049992
 30
0.0
 11
189.2300760259
 21
570.1463049992
 31
0.0
  0
LINE
  5
106
330
EC
100
AcDbEntity
  8
0
  6
Continuous
 62
     7
370
    18
100
AcDbLine
 10
169.083320907
 20
482.5267013862
 30
0.0
 11
174.083320907
 21
482.5267013862
 31
0.0
  0
LINE
  5
107
330
EC
100
AcDbEntity
  8
0
  6
Continuous
 62
     7
370
    18
100
AcDbLine
 10
159.083320907
 20
482.5267013862
 30
0.0
 11
164.083320907
 21
482.5267013862
 31
0.0
  0
LINE
  5
108
330
EC
100
AcDbEntity
  8
0
  6
Continuous
 62
     7
370
    18
100
AcDbLine
 10
164.083320907
 20
486.5267013862
 30
0.0
 11
169.083320907
 21
486.5267013862
 31
0.0
  0
LINE
  5
109
330
EC
100
AcDbEntity
  8
0
  6
Continuous
 62
     7
370
    18
100
AcDbLine
 10
159.083320907
 20
486.5267013862
 30
0.0
 11
159.083320907
 21
482.5267013862
 31
0.0
  0
LINE
  5
10A
330
EC
100
AcDbEntity
  8
0
  6
Continuous
 62
   179
370
    18
100
AcDbLine
 10
166.6900760259
 20
572.6463049992
 30
0.0
 11
166.6900760259
 21
572.6863049992
 31
0.0
  0
LINE
  5
10B
330
EC
100
AcDbEntity
  8
0
  6
Continuous
 62
   179
370
    18
100
AcDbLine
 10
164.1900760259
 20
570.1463049992
 30
0.0
 11
164.1500760259
 21
570.1463049992
 31
0.0
  0
LINE
  5
10C
330
EC
100
AcDbEntity
  8
0
  6
Continuous
 62
   179
370
    18
100
AcDbLine
 10
166.6900760259
 20
567.6463049992
 30
0.0
 11
166.6900760259
 21
567.6063049992
 31
0.0
  0
LINE
  5
10D
330
EC
100
AcDbEntity
  8
0
  6
Continuous
 62
   179
370
    18
100
AcDbLine
 10
169.1900760259
 20
570.1463049992
 30
0.0
 11
169.2300760259
 21
570.1463049992
 31
0.0
  0
LINE
  5
10E
330
EC
100
AcDbEntity
  8
0
  6
Continuous
 62
     7
370
    18
100
AcDbLine
 10
164.083320907
 20
486.5267013862
 30
0.0
 11
164.083320907
 21
482.5267013862
 31
0.0
  0
LINE
  5
10F
330
EC
100
AcDbEntity
  8
0
  6
Continuous
 62
     7
370
    18
100
AcDbLine
 10
169.083320907
 20
486.5267013862
 30
0.0
 11
169.083320907
 21
482.5267013862
 31
0.0
  0
LINE
  5
110
330
EC
100
AcDbEntity
  8
0
  6
Continuous
 62
     7
370
    18
100
AcDbLine
 10
174.083320907
 20
486.5267013862
 30
0.0
 11
174.083320907
 21
482.5267013862
 31
0.0
  0
LINE
  5
111
330
EC
100
AcDbEntity
  8
0
  6
Continuous
 62
   179
370
    18
100
AcDbLine
 10
194.0979929735
 20
601.5267013964
 30
0.0
 11
194.0579929735
 21
601.5267013964
 31
0.0
  0
LINE
  5
112
330
EC
100
AcDbEntity
  8
0
  6
Continuous
 62
   179
370
    18
100
AcDbLine
 10
199.0979929735
 20
601.5267013964
 30
0.0
 11
199.1379929735
 21
601.5267013964
 31
0.0
  0
LINE
  5
113
330
EC
100
AcDbEntity
  8
0
  6
Continuous
 62
   179
370
    18
100
AcDbLine
 10
196.5979929735
 20
606.5267229131
 30
0.0
 11
196.5979929735
 21
606.5667013964
 31
0.0
  0
LINE
  5
114
330
EC
100
AcDbEntity
  8
0
  6
Continuous
 62
     7
370
    18
100
AcDbLine
 10
179.083320907
 20
486.5267013862
 30
0.0
 11
179.083320907
 21
482.5267013862
 31
0.0
  0
LINE
  5
115
330
EC
100
AcDbEntity
  8
0
  6
Continuous
 62
     7
370
    18
100
AcDbLine
 10
184.083320907
 20
486.5267013862
 30
0.0
 11
184.083320907
 21
482.5267013862
 31
0.0
  0
LINE
  5
116
330
EC
100
AcDbEntity
  8
0
  6
Continuous
 62
   179
370
    18
100
AcDbLine
 10
201.5980144902
 20
601.5267013964
 30
0.0
 11
201.6379929735
 21
601.5267013964
 31
0.0
  0
LINE
  5
117
330
EC
100
AcDbEntity
  8
0
  6
Continuous
 62
     7
370
    18
100
AcDbLine
 10
156.5192724556
 20
496.3955247929
 30
0.0
 11
156.583320907
 21
486.5267013862
 31
0.0
  0
LINE
  5
118
330
EC
100
AcDbEntity
  8
0
  6
Continuous
 62
     7
370
    18
100
AcDbLine
 10
152.5192724556
 20
516.3955247929
 30
0.0
 11
152.5192724556
 21
526.3955247929
 31
0.0
  0
LINE
  5
119
330
EC
100
AcDbEntity
  8
0
  6
Continuous
 62
     7
370
    18
100
AcDbLine
 10
152.5192724556
 20
536.3955247929
 30
0.0
 11
152.5192724556
 21
546.3955247929
 31
0.0
  0
LINE
  5
11A
330
EC
100
AcDbEntity
  8
0
  6
Continuous
 62
     7
370
    18
100
AcDbLine
 10
152.5192724556
 20
556.3955247929
 30
0.0
 11
152.5192724556
 21
566.3955247929
 31
0.0
  0
LINE
  5
11B
330
EC
100
AcDbEntity
  8
0
  6
Continuous
 62
     7
370
    18
100
AcDbLine
 10
156.5192724556
 20
556.3955247929
 30
0.0
 11
156.5192724556
 21
546.3955247929
 31
0.0
  0
LINE
  5
11C
330
EC
100
AcDbEntity
  8
0
  6
Continuous
 62
     7
370
    18
100
AcDbLine
 10
156.5192724556
 20
536.3955247929
 30
0.0
 11
156.5192724556
 21
526.3955247929
 31
0.0
  0
LINE
  5
11D
330
EC
100
AcDbEntity
  8
0
  6
Continuous
 62
     7
370
    18
100
AcDbLine
 10
156.5192724556
 20
516.3955247929
 30
0.0
 11
156.5192724556
 21
506.3955247929
 31
0.0
  0
LINE
  5
11E
330
EC
100
AcDbEntity
  8
0
  6
Continuous
 62
     7
370
    18
100
AcDbLine
 10
189.083320907
 20
486.5267013862
 30
0.0
 11
189.083320907
 21
482.5267013862
 31
0.0
  0
LINE
  5
11F
330
EC
100
AcDbEntity
  8
0
  6
Continuous
 62
     7
370
    18
100
AcDbLine
 10
194.083320907
 20
486.5267013862
 30
0.0
 11
194.083320907
 21
482.5267013862
 31
0.0
  0
LINE
  5
120
330
EC
100
AcDbEntity
  8
0
  6
Continuous
 62
     7
370
    18
100
AcDbLine
 10
174.083320907
 20
486.5267013862
 30
0.0
 11
179.083320907
 21
486.5267013862
 31
0.0
  0
LINE
  5
121
330
EC
100
AcDbEntity
  8
0
  6
Continuous
 62
     7
370
    18
100
AcDbLine
 10
179.083320907
 20
482.5267013862
 30
0.0
 11
184.083320907
 21
482.5267013862
 31
0.0
  0
LINE
  5
122
330
EC
100
AcDbEntity
  8
0
  6
Continuous
 62
     7
370
    18
100
AcDbLine
 10
184.083320907
 20
486.5267013862
 30
0.0
 11
189.083320907
 21
486.5267013862
 31
0.0
  0
LINE
  5
123
330
EC
100
AcDbEntity
  8
0
  6
Continuous
 62
     7
370
    18
100
AcDbLine
 10
189.083320907
 20
482.5267013862
 30
0.0
 11
194.083320907
 21
482.5267013862
 31
0.0
  0
LINE
  5
124
330
EC
100
AcDbEntity
  8
0
  6
Continuous
 62
     7
370
    18
100
AcDbLine
 10
194.083320907
 20
486.5267013862
 30
0.0
 11
201.583320907
 21
486.5267013862
 31
0.0
  0
LINE
  5
125
330
EC
100
AcDbEntity
  8
0
  6
Continuous
 62
     7
370
    18
100
AcDbLine
 10
156.583320907
 20
566.3955247929
 30
0.0
 11
156.583320907
 21
586.5267013862
 31
0.0
  0
LINE
  5
126
330
EC
100
AcDbEntity
  8
0
  6
Continuous
 62
     7
370
    18
100
AcDbLine
 10
201.583320907
 20
486.5267013862
 30
0.0
 11
201.6379929735
 21
601.5267013964
 31
0.0
  0
LINE
  5
127
330
EC
100
AcDbEntity
  8
0
  6
Continuous
 62
     7
370
    18
100
AcDbLine
 10
176.583320907
 20
606.5267013862
 30
0.0
 11
196.5979929735
 21
606.5667013964
 31
0.0
  0
ENDBLK
  5
EE
330
EC
100
AcDbEntity
  8
0
100
AcDbBlockEnd
  0
BLOCK
  5
129
330
128
100
AcDbEntity
  8
0
100
AcDbBlockBegin
  2
Block18
 70
     0
 10
0.0
 20
0.0
 30
0.0
  3
Block18
  1

  0
ARC
  5
12B
330
128
100
AcDbEntity
  8
0
  6
Continuous
 62
     7
370
    18
100
AcDbCircle
 10
34.9479169475
 20
87.619603613
 30
0.0
 40
2.500000000000057
100
AcDbArc
 50
270.0
 51
0.0
  0
CIRCLE
  5
12C
330
128
100
AcDbEntity
  8
0
  6
Continuous
 62
     7
370
    18
100
AcDbCircle
 10
5.04
 20
119.0000000102
 30
0.0
 40
2.499999999999944
  0
CIRCLE
  5
12D
330
128
100
AcDbEntity
  8
0
  6
Continuous
 62
     7
370
    18
100
AcDbCircle
 10
14.9479169475
 20
87.619603613
 30
0.0
 40
2.499999999999939
  0
CIRCLE
  5
12E
330
128
100
AcDbEntity
  8
0
  6
Continuous
 62
     7
370
    18
100
AcDbCircle
 10
34.9479169475
 20
87.619603613
 30
0.0
 40
2.499999999999915
  0
LINE
  5
12F
330
128
100
AcDbEntity
  8
0
  6
Continuous
 62
   179
370
    25
100
AcDbLine
 10
0.0399784833
 20
119.0000000102
 30
0.0
 11
0.0399790451
 21
118.9976297747
 31
0.0
  0
ARC
  5
130
330
128
100
AcDbEntity
  8
0
  6
Continuous
 62
     7
370
    18
100
AcDbCircle
 10
25.0546720665
 20
104.0
 30
0.0
 40
20.00000000000001
100
AcDbArc
 50
0.0
 51
90.0
  0
ARC
  5
131
330
128
100
AcDbEntity
  8
0
  6
Continuous
 62
     7
370
    18
100
AcDbCircle
 10
5.0546720665
 20
119.0000000102
 30
0.0
 40
5.014693581518983
100
AcDbArc
 50
90.0270813145
 51
180.0270813145
  0
ARC
  5
132
330
128
100
AcDbEntity
  8
0
  6
Continuous
 62
     7
370
    18
100
AcDbCircle
 10
5.04
 20
119.0000000102
 30
0.0
 40
5.000021516707093
100
AcDbArc
 50
89.8318709853
 51
90.0
  0
ARC
  5
133
330
128
100
AcDbEntity
  8
0
  6
Continuous
 62
     7
370
    18
100
AcDbCircle
 10
5.04
 20
119.0000000102
 30
0.0
 40
5.000021516707093
100
AcDbArc
 50
89.8318709853
 51
90.0
  0
LINE
  5
134
330
128
100
AcDbEntity
  8
0
  6
Continuous
 62
     7
370
    18
100
AcDbLine
 10
25.0546720665
 20
124.0
 30
0.0
 11
5.04
 21
124.0400000102
 31
0.0
  0
LINE
  5
135
330
128
100
AcDbEntity
  8
0
  6
Continuous
 62
     7
370
    18
100
AcDbLine
 10
0.0546720665
 20
4.0
 30
0.0
 11
0.0
 21
119.0000000102
 31
0.0
  0
LINE
  5
136
330
128
100
AcDbEntity
  8
0
  6
Continuous
 62
     7
370
    18
100
AcDbLine
 10
45.0546720665
 20
83.8688234067
 30
0.0
 11
45.0546720665
 21
104.0
 31
0.0
  0
LINE
  5
137
330
128
100
AcDbEntity
  8
0
  6
Continuous
 62
     7
370
    18
100
AcDbLine
 10
7.5546720665
 20
4.0
 30
0.0
 11
0.0546720665
 21
4.0
 31
0.0
  0
LINE
  5
138
330
128
100
AcDbEntity
  8
0
  6
Continuous
 62
     7
370
    18
100
AcDbLine
 10
12.5546720665
 20
0.0
 30
0.0
 11
7.5546720665
 21
0.0
 31
0.0
  0
LINE
  5
139
330
128
100
AcDbEntity
  8
0
  6
Continuous
 62
     7
370
    18
100
AcDbLine
 10
17.5546720665
 20
4.0
 30
0.0
 11
12.5546720665
 21
4.0
 31
0.0
  0
LINE
  5
13A
330
128
100
AcDbEntity
  8
0
  6
Continuous
 62
     7
370
    18
100
AcDbLine
 10
22.5546720665
 20
0.0
 30
0.0
 11
17.5546720665
 21
0.0
 31
0.0
  0
LINE
  5
13B
330
128
100
AcDbEntity
  8
0
  6
Continuous
 62
     7
370
    18
100
AcDbLine
 10
27.5546720665
 20
4.0
 30
0.0
 11
22.5546720665
 21
4.0
 31
0.0
  0
LINE
  5
13C
330
128
100
AcDbEntity
  8
0
  6
Continuous
 62
     7
370
    18
100
AcDbLine
 10
7.5546720665
 20
4.0
 30
0.0
 11
7.5546720665
 21
0.0
 31
0.0
  0
LINE
  5
13D
330
128
100
AcDbEntity
  8
0
  6
Continuous
 62
     7
370
    18
100
AcDbLine
 10
12.5546720665
 20
4.0
 30
0.0
 11
12.5546720665
 21
0.0
 31
0.0
  0
LINE
  5
13E
330
128
100
AcDbEntity
  8
0
  6
Continuous
 62
     7
370
    18
100
AcDbLine
 10
45.1187205179
 20
33.8688234067
 30
0.0
 11
45.1187205179
 21
23.8688234067
 31
0.0
  0
LINE
  5
13F
330
128
100
AcDbEntity
  8
0
  6
Continuous
 62
     7
370
    18
100
AcDbLine
 10
45.1187205179
 20
53.8688234067
 30
0.0
 11
45.1187205179
 21
43.8688234067
 31
0.0
  0
LINE
  5
140
330
128
100
AcDbEntity
  8
0
  6
Continuous
 62
     7
370
    18
100
AcDbLine
 10
45.1187205179
 20
73.8688234067
 30
0.0
 11
45.1187205179
 21
63.8688234067
 31
0.0
  0
LINE
  5
141
330
128
100
AcDbEntity
  8
0
  6
Continuous
 62
     7
370
    18
100
AcDbLine
 10
49.1187205179
 20
73.8688234067
 30
0.0
 11
49.1187205179
 21
83.8688234067
 31
0.0
  0
LINE
  5
142
330
128
100
AcDbEntity
  8
0
  6
Continuous
 62
     7
370
    18
100
AcDbLine
 10
49.1187205179
 20
53.8688234067
 30
0.0
 11
49.1187205179
 21
63.8688234067
 31
0.0
  0
LINE
  5
143
330
128
100
AcDbEntity
  8
0
  6
Continuous
 62
     7
370
    18
100
AcDbLine
 10
49.1187205179
 20
33.8688234067
 30
0.0
 11
49.1187205179
 21
43.8688234067
 31
0.0
  0
LINE
  5
144
330
128
100
AcDbEntity
  8
0
  6
Continuous
 62
     7
370
    18
100
AcDbLine
 10
45.1187205179
 20
13.8688234067
 30
0.0
 11
45.0546720665
 21
4.0
 31
0.0
  0
LINE
  5
145
330
128
100
AcDbEntity
  8
0
  6
Continuous
 62
   179
370
    18
100
AcDbLine
 10
0.0399784833
 20
119.0000000102
 30
0.0
 11
0.0
 21
119.0000000102
 31
0.0
  0
LINE
  5
146
330
128
100
AcDbEntity
  8
0
  6
Continuous
 62
     7
370
    18
100
AcDbLine
 10
17.5546720665
 20
4.0
 30
0.0
 11
17.5546720665
 21
0.0
 31
0.0
  0
LINE
  5
147
330
128
100
AcDbEntity
  8
0
  6
Continuous
 62
     7
370
    18
100
AcDbLine
 10
22.5546720665
 20
4.0
 30
0.0
 11
22.5546720665
 21
0.0
 31
0.0
  0
LINE
  5
148
330
128
100
AcDbEntity
  8
0
  6
Continuous
 62
   179
370
    18
100
AcDbLine
 10
5.04
 20
124.0000215269
 30
0.0
 11
5.04
 21
124.0400000102
 31
0.0
  0
LINE
  5
149
330
128
100
AcDbEntity
  8
0
  6
Continuous
 62
   179
370
    18
100
AcDbLine
 10
2.54
 20
119.0000000102
 30
0.0
 11
2.5
 21
119.0000000102
 31
0.0
  0
LINE
  5
14A
330
128
100
AcDbEntity
  8
0
  6
Continuous
 62
   179
370
    18
100
AcDbLine
 10
7.54
 20
119.0000000102
 30
0.0
 11
7.58
 21
119.0000000102
 31
0.0
  0
LINE
  5
14B
330
128
100
AcDbEntity
  8
0
  6
Continuous
 62
     7
370
    18
100
AcDbLine
 10
27.5546720665
 20
4.0
 30
0.0
 11
27.5546720665
 21
0.0
 31
0.0
  0
LINE
  5
14C
330
128
100
AcDbEntity
  8
0
  6
Continuous
 62
     7
370
    18
100
AcDbLine
 10
32.5546720665
 20
4.0
 30
0.0
 11
32.5546720665
 21
0.0
 31
0.0
  0
LINE
  5
14D
330
128
100
AcDbEntity
  8
0
  6
Continuous
 62
     7
370
    18
100
AcDbLine
 10
37.5546720665
 20
4.0
 30
0.0
 11
37.5546720665
 21
0.0
 31
0.0
  0
LINE
  5
14E
330
128
100
AcDbEntity
  8
0
  6
Continuous
 62
   179
370
    18
100
AcDbLine
 10
32.4479169475
 20
87.619603613
 30
0.0
 11
32.4079169475
 21
87.619603613
 31
0.0
  0
LINE
  5
14F
330
128
100
AcDbEntity
  8
0
  6
Continuous
 62
   179
370
    18
100
AcDbLine
 10
34.9479169475
 20
85.119603613
 30
0.0
 11
34.9479169475
 21
85.079603613
 31
0.0
  0
LINE
  5
150
330
128
100
AcDbEntity
  8
0
  6
Continuous
 62
   179
370
    18
100
AcDbLine
 10
37.4479169475
 20
87.619603613
 30
0.0
 11
37.4879169475
 21
87.619603613
 31
0.0
  0
LINE
  5
151
330
128
100
AcDbEntity
  8
0
  6
Continuous
 62
   179
370
    18
100
AcDbLine
 10
34.9479169475
 20
90.119603613
 30
0.0
 11
34.9479169475
 21
90.159603613
 31
0.0
  0
LINE
  5
152
330
128
100
AcDbEntity
  8
0
  6
Continuous
 62
     7
370
    18
100
AcDbLine
 10
42.5546720665
 20
4.0
 30
0.0
 11
42.5546720665
 21
0.0
 31
0.0
  0
LINE
  5
153
330
128
100
AcDbEntity
  8
0
  6
Continuous
 62
     7
370
    18
100
AcDbLine
 10
37.5546720665
 20
4.0
 30
0.0
 11
32.5546720665
 21
4.0
 31
0.0
  0
LINE
  5
154
330
128
100
AcDbEntity
  8
0
  6
Continuous
 62
     7
370
    18
100
AcDbLine
 10
42.5546720665
 20
0.0
 30
0.0
 11
37.5546720665
 21
0.0
 31
0.0
  0
LINE
  5
155
330
128
100
AcDbEntity
  8
0
  6
Continuous
 62
     7
370
    18
100
AcDbLine
 10
32.5546720665
 20
0.0
 30
0.0
 11
27.5546720665
 21
0.0
 31
0.0
  0
LINE
  5
156
330
128
100
AcDbEntity
  8
0
  6
Continuous
 62
   179
370
    18
100
AcDbLine
 10
12.4479169475
 20
87.619603613
 30
0.0
 11
12.4079169475
 21
87.619603613
 31
0.0
  0
LINE
  5
157
330
128
100
AcDbEntity
  8
0
  6
Continuous
 62
   179
370
    18
100
AcDbLine
 10
14.9479169475
 20
85.119603613
 30
0.0
 11
14.9479169475
 21
85.079603613
 31
0.0
  0
LINE
  5
158
330
128
100
AcDbEntity
  8
0
  6
Continuous
 62
   179
370
    18
100
AcDbLine
 10
17.4479169475
 20
87.619603613
 30
0.0
 11
17.4879169475
 21
87.619603613
 31
0.0
  0
LINE
  5
159
330
128
100
AcDbEntity
  8
0
  6
Continuous
 62
   179
370
    18
100
AcDbLine
 10
14.9479169475
 20
90.119603613
 30
0.0
 11
14.9479169475
 21
90.159603613
 31
0.0
  0
LINE
  5
15A
330
128
100
AcDbEntity
  8
0
  6
Continuous
 62
     7
370
    18
100
AcDbLine
 10
45.0546720665
 20
4.0
 30
0.0
 11
42.5546720665
 21
4.0
 31
0.0
  0
LINE
  5
15B
330
128
100
AcDbEntity
  8
0
  6
Continuous
 62
     7
370
    18
100
AcDbLine
 10
45.1187205179
 20
73.8688234067
 30
0.0
 11
49.1187205179
 21
73.8688234067
 31
0.0
  0
LINE
  5
15C
330
128
100
AcDbEntity
  8
0
  6
Continuous
 62
     7
370
    18
100
AcDbLine
 10
45.1187205179
 20
63.8688234067
 30
0.0
 11
49.1187205179
 21
63.8688234067
 31
0.0
  0
LINE
  5
15D
330
128
100
AcDbEntity
  8
0
  6
Continuous
 62
     7
370
    18
100
AcDbLine
 10
45.1187205179
 20
53.8688234067
 30
0.0
 11
49.1187205179
 21
53.8688234067
 31
0.0
  0
LINE
  5
15E
330
128
100
AcDbEntity
  8
0
  6
Continuous
 62
     7
370
    18
100
AcDbLine
 10
45.1187205179
 20
43.8688234067
 30
0.0
 11
49.1187205179
 21
43.8688234067
 31
0.0
  0
LINE
  5
15F
330
128
100
AcDbEntity
  8
0
  6
Continuous
 62
     7
370
    18
100
AcDbLine
 10
45.1187205179
 20
33.8688234067
 30
0.0
 11
49.1187205179
 21
33.8688234067
 31
0.0
  0
LINE
  5
160
330
128
100
AcDbEntity
  8
0
  6
Continuous
 62
     7
370
    18
100
AcDbLine
 10
45.1187205179
 20
23.8688234067
 30
0.0
 11
49.1187205179
 21
23.8688234067
 31
0.0
  0
LINE
  5
161
330
128
100
AcDbEntity
  8
0
  6
Continuous
 62
     7
370
    18
100
AcDbLine
 10
45.1187205179
 20
13.8688234067
 30
0.0
 11
49.1187205179
 21
13.8688234067
 31
0.0
  0
LINE
  5
162
330
128
100
AcDbEntity
  8
0
  6
Continuous
 62
     7
370
    18
100
AcDbLine
 10
49.1187205179
 20
83.8688234067
 30
0.0
 11
45.0546720665
 21
83.8688234067
 31
0.0
  0
LINE
  5
163
330
128
100
AcDbEntity
  8
0
  6
Continuous
 62
     7
370
    18
100
AcDbLine
 10
49.1187205179
 20
13.8688234067
 30
0.0
 11
49.1187205179
 21
23.8688234067
 31
0.0
  0
ENDBLK
  5
12A
330
128
100
AcDbEntity
  8
0
100
AcDbBlockEnd
  0
BLOCK
  5
165
330
164
100
AcDbEntity
  8
0
100
AcDbBlockBegin
  2
Block21
 70
     0
 10
0.0
 20
0.0
 30
0.0
  3
Block21
  1

  0
LINE
  5
167
330
164
100
AcDbEntity
  8
0
  6
Continuous
 62
     7
370
    18
100
AcDbLine
 10
84.0
 20
100.0
 30
0.0
 11
94.0
 21
100.0
 31
0.0
  0
LINE
  5
168
330
164
100
AcDbEntity
  8
0
  6
Continuous
 62
     7
370
    18
100
AcDbLine
 10
74.0
 20
96.0
 30
0.0
 11
84.0
 21
96.0
 31
0.0
  0
LINE
  5
169
330
164
100
AcDbEntity
  8
0
  6
Continuous
 62
     7
370
    18
100
AcDbLine
 10
64.0
 20
100.0
 30
0.0
 11
74.0
 21
100.0
 31
0.0
  0
LINE
  5
16A
330
164
100
AcDbEntity
  8
0
  6
Continuous
 62
     7
370
    18
100
AcDbLine
 10
54.0
 20
96.0
 30
0.0
 11
64.0
 21
96.0
 31
0.0
  0
LINE
  5
16B
330
164
100
AcDbEntity
  8
0
  6
Continuous
 62
     7
370
    18
100
AcDbLine
 10
44.0
 20
100.0
 30
0.0
 11
54.0
 21
100.0
 31
0.0
  0
LINE
  5
16C
330
164
100
AcDbEntity
  8
0
  6
Continuous
 62
     7
370
    18
100
AcDbLine
 10
4.0
 20
85.0
 30
0.0
 11
4.0
 21
75.0
 31
0.0
  0
LINE
  5
16D
330
164
100
AcDbEntity
  8
0
  6
Continuous
 62
     7
370
    18
100
AcDbLine
 10
0.0
 20
85.0
 30
0.0
 11
0.0
 21
95.0
 31
0.0
  0
LINE
  5
16E
330
164
100
AcDbEntity
  8
0
  6
Continuous
 62
     7
370
    18
100
AcDbLine
 10
4.0
 20
65.0
 30
0.0
 11
4.0
 21
55.0
 31
0.0
  0
LINE
  5
16F
330
164
100
AcDbEntity
  8
0
  6
Continuous
 62
     7
370
    18
100
AcDbLine
 10
0.0
 20
65.0
 30
0.0
 11
0.0
 21
75.0
 31
0.0
  0
LINE
  5
170
330
164
100
AcDbEntity
  8
0
  6
Continuous
 62
     7
370
    18
100
AcDbLine
 10
4.0
 20
45.0
 30
0.0
 11
4.0
 21
35.0
 31
0.0
  0
LINE
  5
171
330
164
100
AcDbEntity
  8
0
  6
Continuous
 62
     7
370
    18
100
AcDbLine
 10
0.0
 20
45.0
 30
0.0
 11
0.0
 21
55.0
 31
0.0
  0
LINE
  5
172
330
164
100
AcDbEntity
  8
0
  6
Continuous
 62
     7
370
    18
100
AcDbLine
 10
4.0
 20
25.0
 30
0.0
 11
4.0
 21
15.0
 31
0.0
  0
LINE
  5
173
330
164
100
AcDbEntity
  8
0
  6
Continuous
 62
     7
370
    18
100
AcDbLine
 10
0.0
 20
25.0
 30
0.0
 11
0.0
 21
35.0
 31
0.0
  0
LINE
  5
174
330
164
100
AcDbEntity
  8
0
  6
Continuous
 62
     7
370
    18
100
AcDbLine
 10
4.0
 20
5.0
 30
0.0
 11
4.0
 21
4.0
 31
0.0
  0
LINE
  5
175
330
164
100
AcDbEntity
  8
0
  6
Continuous
 62
     7
370
    18
100
AcDbLine
 10
24.0
 20
0.0
 30
0.0
 11
34.0
 21
0.0
 31
0.0
  0
LINE
  5
176
330
164
100
AcDbEntity
  8
0
  6
Continuous
 62
     7
370
    18
100
AcDbLine
 10
34.0
 20
4.0
 30
0.0
 11
44.0
 21
4.0
 31
0.0
  0
LINE
  5
177
330
164
100
AcDbEntity
  8
0
  6
Continuous
 62
     7
370
    18
100
AcDbLine
 10
84.0
 20
4.0
 30
0.0
 11
84.0
 21
0.0
 31
0.0
  0
LINE
  5
178
330
164
100
AcDbEntity
  8
0
  6
Continuous
 62
     7
370
    18
100
AcDbLine
 10
84.0
 20
96.0
 30
0.0
 11
84.0
 21
100.0
 31
0.0
  0
LINE
  5
179
330
164
100
AcDbEntity
  8
0
  6
Continuous
 62
     7
370
    18
100
AcDbLine
 10
34.0
 20
96.0
 30
0.0
 11
44.0
 21
96.0
 31
0.0
  0
LINE
  5
17A
330
164
100
AcDbEntity
  8
0
  6
Continuous
 62
     7
370
    18
100
AcDbLine
 10
24.0
 20
100.0
 30
0.0
 11
34.0
 21
100.0
 31
0.0
  0
LINE
  5
17B
330
164
100
AcDbEntity
  8
0
  6
Continuous
 62
     7
370
    18
100
AcDbLine
 10
44.0
 20
0.0
 30
0.0
 11
54.0
 21
0.0
 31
0.0
  0
LINE
  5
17C
330
164
100
AcDbEntity
  8
0
  6
Continuous
 62
     7
370
    18
100
AcDbLine
 10
54.0
 20
4.0
 30
0.0
 11
64.0
 21
4.0
 31
0.0
  0
LINE
  5
17D
330
164
100
AcDbEntity
  8
0
  6
Continuous
 62
     7
370
    18
100
AcDbLine
 10
74.0
 20
4.0
 30
0.0
 11
74.0
 21
0.0
 31
0.0
  0
LINE
  5
17E
330
164
100
AcDbEntity
  8
0
  6
Continuous
 62
     7
370
    18
100
AcDbLine
 10
74.0
 20
96.0
 30
0.0
 11
74.0
 21
100.0
 31
0.0
  0
LINE
  5
17F
330
164
100
AcDbEntity
  8
0
  6
Continuous
 62
     7
370
    18
100
AcDbLine
 10
64.0
 20
4.0
 30
0.0
 11
64.0
 21
0.0
 31
0.0
  0
LINE
  5
180
330
164
100
AcDbEntity
  8
0
  6
Continuous
 62
     7
370
    18
100
AcDbLine
 10
64.0
 20
96.0
 30
0.0
 11
64.0
 21
100.0
 31
0.0
  0
LINE
  5
181
330
164
100
AcDbEntity
  8
0
  6
Continuous
 62
     7
370
    18
100
AcDbLine
 10
54.0
 20
4.0
 30
0.0
 11
54.0
 21
0.0
 31
0.0
  0
LINE
  5
182
330
164
100
AcDbEntity
  8
0
  6
Continuous
 62
     7
370
    18
100
AcDbLine
 10
54.0
 20
96.0
 30
0.0
 11
54.0
 21
100.0
 31
0.0
  0
LINE
  5
183
330
164
100
AcDbEntity
  8
0
  6
Continuous
 62
     7
370
    18
100
AcDbLine
 10
44.0
 20
4.0
 30
0.0
 11
44.0
 21
0.0
 31
0.0
  0
LINE
  5
184
330
164
100
AcDbEntity
  8
0
  6
Continuous
 62
     7
370
    18
100
AcDbLine
 10
44.0
 20
96.0
 30
0.0
 11
44.0
 21
100.0
 31
0.0
  0
LINE
  5
185
330
164
100
AcDbEntity
  8
0
  6
Continuous
 62
     7
370
    18
100
AcDbLine
 10
34.0
 20
4.0
 30
0.0
 11
34.0
 21
0.0
 31
0.0
  0
LINE
  5
186
330
164
100
AcDbEntity
  8
0
  6
Continuous
 62
     7
370
    18
100
AcDbLine
 10
34.0
 20
96.0
 30
0.0
 11
34.0
 21
100.0
 31
0.0
  0
LINE
  5
187
330
164
100
AcDbEntity
  8
0
  6
Continuous
 62
     7
370
    18
100
AcDbLine
 10
24.0
 20
4.0
 30
0.0
 11
24.0
 21
0.0
 31
0.0
  0
LINE
  5
188
330
164
100
AcDbEntity
  8
0
  6
Continuous
 62
     7
370
    18
100
AcDbLine
 10
24.0
 20
96.0
 30
0.0
 11
24.0
 21
100.0
 31
0.0
  0
LINE
  5
189
330
164
100
AcDbEntity
  8
0
  6
Continuous
 62
     7
370
    18
100
AcDbLine
 10
14.0
 20
4.0
 30
0.0
 11
14.0
 21
0.0
 31
0.0
  0
LINE
  5
18A
330
164
100
AcDbEntity
  8
0
  6
Continuous
 62
     7
370
    18
100
AcDbLine
 10
14.0
 20
96.0
 30
0.0
 11
14.0
 21
100.0
 31
0.0
  0
LINE
  5
18B
330
164
100
AcDbEntity
  8
0
  6
Continuous
 62
     7
370
    18
100
AcDbLine
 10
84.0
 20
96.0
 30
0.0
 11
84.0
 21
100.0
 31
0.0
  0
LINE
  5
18C
330
164
100
AcDbEntity
  8
0
  6
Continuous
 62
     7
370
    18
100
AcDbLine
 10
74.0
 20
96.0
 30
0.0
 11
74.0
 21
100.0
 31
0.0
  0
LINE
  5
18D
330
164
100
AcDbEntity
  8
0
  6
Continuous
 62
     7
370
    18
100
AcDbLine
 10
64.0
 20
96.0
 30
0.0
 11
64.0
 21
100.0
 31
0.0
  0
LINE
  5
18E
330
164
100
AcDbEntity
  8
0
  6
Continuous
 62
     7
370
    18
100
AcDbLine
 10
54.0
 20
96.0
 30
0.0
 11
54.0
 21
100.0
 31
0.0
  0
LINE
  5
18F
330
164
100
AcDbEntity
  8
0
  6
Continuous
 62
     7
370
    18
100
AcDbLine
 10
44.0
 20
96.0
 30
0.0
 11
44.0
 21
100.0
 31
0.0
  0
LINE
  5
190
330
164
100
AcDbEntity
  8
0
  6
Continuous
 62
     7
370
    18
100
AcDbLine
 10
34.0
 20
96.0
 30
0.0
 11
34.0
 21
100.0
 31
0.0
  0
LINE
  5
191
330
164
100
AcDbEntity
  8
0
  6
Continuous
 62
     7
370
    18
100
AcDbLine
 10
0.0
 20
95.0
 30
0.0
 11
4.0
 21
95.0
 31
0.0
  0
LINE
  5
192
330
164
100
AcDbEntity
  8
0
  6
Continuous
 62
     7
370
    18
100
AcDbLine
 10
0.0
 20
85.0
 30
0.0
 11
4.0
 21
85.0
 31
0.0
  0
LINE
  5
193
330
164
100
AcDbEntity
  8
0
  6
Continuous
 62
     7
370
    18
100
AcDbLine
 10
0.0
 20
75.0
 30
0.0
 11
4.0
 21
75.0
 31
0.0
  0
LINE
  5
194
330
164
100
AcDbEntity
  8
0
  6
Continuous
 62
     7
370
    18
100
AcDbLine
 10
0.0
 20
65.0
 30
0.0
 11
4.0
 21
65.0
 31
0.0
  0
LINE
  5
195
330
164
100
AcDbEntity
  8
0
  6
Continuous
 62
     7
370
    18
100
AcDbLine
 10
0.0
 20
55.0
 30
0.0
 11
4.0
 21
55.0
 31
0.0
  0
LINE
  5
196
330
164
100
AcDbEntity
  8
0
  6
Continuous
 62
     7
370
    18
100
AcDbLine
 10
0.0
 20
45.0
 30
0.0
 11
4.0
 21
45.0
 31
0.0
  0
LINE
  5
197
330
164
100
AcDbEntity
  8
0
  6
Continuous
 62
     7
370
    18
100
AcDbLine
 10
0.0
 20
35.0
 30
0.0
 11
4.0
 21
35.0
 31
0.0
  0
LINE
  5
198
330
164
100
AcDbEntity
  8
0
  6
Continuous
 62
     7
370
    18
100
AcDbLine
 10
0.0
 20
25.0
 30
0.0
 11
4.0
 21
25.0
 31
0.0
  0
LINE
  5
199
330
164
100
AcDbEntity
  8
0
  6
Continuous
 62
     7
370
    18
100
AcDbLine
 10
0.0
 20
15.0
 30
0.0
 11
4.0
 21
15.0
 31
0.0
  0
LINE
  5
19A
330
164
100
AcDbEntity
  8
0
  6
Continuous
 62
     7
370
    18
100
AcDbLine
 10
0.0
 20
5.0
 30
0.0
 11
4.0
 21
5.0
 31
0.0
  0
LINE
  5
19B
330
164
100
AcDbEntity
  8
0
  6
Continuous
 62
     7
370
    18
100
AcDbLine
 10
94.0
 20
100.0
 30
0.0
 11
94.0
 21
96.0
 31
0.0
  0
LINE
  5
19C
330
164
100
AcDbEntity
  8
0
  6
Continuous
 62
     7
370
    18
100
AcDbLine
 10
4.0
 20
100.0
 30
0.0
 11
14.0
 21
100.0
 31
0.0
  0
LINE
  5
19D
330
164
100
AcDbEntity
  8
0
  6
Continuous
 62
     7
370
    18
100
AcDbLine
 10
4.0
 20
96.0
 30
0.0
 11
4.0
 21
100.0
 31
0.0
  0
LINE
  5
19E
330
164
100
AcDbEntity
  8
0
  6
Continuous
 62
     7
370
    18
100
AcDbLine
 10
94.0
 20
0.0
 30
0.0
 11
94.0
 21
4.0
 31
0.0
  0
LINE
  5
19F
330
164
100
AcDbEntity
  8
0
  6
Continuous
 62
     7
370
    18
100
AcDbLine
 10
4.0
 20
0.0
 30
0.0
 11
14.0
 21
0.0
 31
0.0
  0
LINE
  5
1A0
330
164
100
AcDbEntity
  8
0
  6
Continuous
 62
     7
370
    18
100
AcDbLine
 10
4.0
 20
4.0
 30
0.0
 11
4.0
 21
0.0
 31
0.0
  0
LINE
  5
1A1
330
164
100
AcDbEntity
  8
0
  6
Continuous
 62
     7
370
    18
100
AcDbLine
 10
24.0
 20
96.0
 30
0.0
 11
24.0
 21
100.0
 31
0.0
  0
LINE
  5
1A2
330
164
100
AcDbEntity
  8
0
  6
Continuous
 62
     7
370
    18
100
AcDbLine
 10
0.0
 20
5.0
 30
0.0
 11
0.0
 21
15.0
 31
0.0
  0
LINE
  5
1A3
330
164
100
AcDbEntity
  8
0
  6
Continuous
 62
     7
370
    18
100
AcDbLine
 10
94.0
 20
4.0
 30
0.0
 11
94.0
 21
96.0
 31
0.0
  0
LINE
  5
1A4
330
164
100
AcDbEntity
  8
0
  6
Continuous
 62
     7
370
    18
100
AcDbLine
 10
14.0
 20
96.0
 30
0.0
 11
24.0
 21
96.0
 31
0.0
  0
LINE
  5
1A5
330
164
100
AcDbEntity
  8
0
  6
Continuous
 62
     7
370
    18
100
AcDbLine
 10
4.0
 20
96.0
 30
0.0
 11
4.0
 21
95.0
 31
0.0
  0
LINE
  5
1A6
330
164
100
AcDbEntity
  8
0
  6
Continuous
 62
     7
370
    18
100
AcDbLine
 10
14.0
 20
4.0
 30
0.0
 11
24.0
 21
4.0
 31
0.0
  0
LINE
  5
1A7
330
164
100
AcDbEntity
  8
0
  6
Continuous
 62
     7
370
    18
100
AcDbLine
 10
14.0
 20
96.0
 30
0.0
 11
14.0
 21
100.0
 31
0.0
  0
LINE
  5
1A8
330
164
100
AcDbEntity
  8
0
  6
Continuous
 62
     7
370
    18
100
AcDbLine
 10
64.0
 20
0.0
 30
0.0
 11
74.0
 21
0.0
 31
0.0
  0
LINE
  5
1A9
330
164
100
AcDbEntity
  8
0
  6
Continuous
 62
     7
370
    18
100
AcDbLine
 10
74.0
 20
4.0
 30
0.0
 11
84.0
 21
4.0
 31
0.0
  0
LINE
  5
1AA
330
164
100
AcDbEntity
  8
0
  6
Continuous
 62
     7
370
    18
100
AcDbLine
 10
84.0
 20
0.0
 30
0.0
 11
94.0
 21
0.0
 31
0.0
  0
ENDBLK
  5
166
330
164
100
AcDbEntity
  8
0
100
AcDbBlockEnd
  0
BLOCK
  5
1AC
330
1AB
100
AcDbEntity
  8
0
100
AcDbBlockBegin
  2
Block22
 70
     0
 10
0.0
 20
0.0
 30
0.0
  3
Block22
  1

  0
LINE
  5
1AE
330
1AB
100
AcDbEntity
  8
0
  6
Continuous
 62
     7
370
    18
100
AcDbLine
 10
89.6992724556
 20
688.9978610787
 30
0.0
 11
89.6992724556
 21
678.9978610787
 31
0.0
  0
LINE
  5
1AF
330
1AB
100
AcDbEntity
  8
0
  6
Continuous
 62
     7
370
    18
100
AcDbLine
 10
109.6992724556
 20
678.9978610787
 30
0.0
 11
119.6992724556
 21
678.9978610787
 31
0.0
  0
LINE
  5
1B0
330
1AB
100
AcDbEntity
  8
0
  6
Continuous
 62
     7
370
    18
100
AcDbLine
 10
149.6992724556
 20
678.9978610787
 30
0.0
 11
159.6992724556
 21
678.9978610787
 31
0.0
  0
LINE
  5
1B1
330
1AB
100
AcDbEntity
  8
0
  6
Continuous
 62
     7
370
    18
100
AcDbLine
 10
171.6992724556
 20
678.9978610787
 30
0.0
 11
171.6992724556
 21
688.9978610787
 31
0.0
  0
LINE
  5
1B2
330
1AB
100
AcDbEntity
  8
0
  6
Continuous
 62
     7
370
    18
100
AcDbLine
 10
171.6992724556
 20
778.9978610787
 30
0.0
 11
89.6992724556
 21
778.9978610787
 31
0.0
  0
LINE
  5
1B3
330
1AB
100
AcDbEntity
  8
0
  6
Continuous
 62
     7
370
    18
100
AcDbLine
 10
171.6992724556
 20
698.9978610787
 30
0.0
 11
171.6992724556
 21
708.9978610787
 31
0.0
  0
LINE
  5
1B4
330
1AB
100
AcDbEntity
  8
0
  6
Continuous
 62
     7
370
    18
100
AcDbLine
 10
169.6992724556
 20
674.9978610787
 30
0.0
 11
159.6992724556
 21
674.9978610787
 31
0.0
  0
LINE
  5
1B5
330
1AB
100
AcDbEntity
  8
0
  6
Continuous
 62
     7
370
    18
100
AcDbLine
 10
109.6992724556
 20
674.9978610787
 30
0.0
 11
99.6992724556
 21
674.9978610787
 31
0.0
  0
LINE
  5
1B6
330
1AB
100
AcDbEntity
  8
0
  6
Continuous
 62
     7
370
    18
100
AcDbLine
 10
175.6992724556
 20
708.9978610787
 30
0.0
 11
175.6992724556
 21
718.9978610787
 31
0.0
  0
LINE
  5
1B7
330
1AB
100
AcDbEntity
  8
0
  6
Continuous
 62
     7
370
    18
100
AcDbLine
 10
175.6992724556
 20
688.9978610787
 30
0.0
 11
175.6992724556
 21
698.9978610787
 31
0.0
  0
LINE
  5
1B8
330
1AB
100
AcDbEntity
  8
0
  6
Continuous
 62
     7
370
    18
100
AcDbLine
 10
175.6992724556
 20
778.9978610787
 30
0.0
 11
171.6992724556
 21
778.9978610787
 31
0.0
  0
LINE
  5
1B9
330
1AB
100
AcDbEntity
  8
0
  6
Continuous
 62
     7
370
    18
100
AcDbLine
 10
99.6992724556
 20
674.9978610787
 30
0.0
 11
99.6992724556
 21
678.9978610787
 31
0.0
  0
LINE
  5
1BA
330
1AB
100
AcDbEntity
  8
0
  6
Continuous
 62
     7
370
    18
100
AcDbLine
 10
109.6992724556
 20
674.9978610787
 30
0.0
 11
109.6992724556
 21
678.9978610787
 31
0.0
  0
LINE
  5
1BB
330
1AB
100
AcDbEntity
  8
0
  6
Continuous
 62
     7
370
    18
100
AcDbLine
 10
119.6992724556
 20
674.9978610787
 30
0.0
 11
119.6992724556
 21
678.9978610787
 31
0.0
  0
LINE
  5
1BC
330
1AB
100
AcDbEntity
  8
0
  6
Continuous
 62
     7
370
    18
100
AcDbLine
 10
129.6992724556
 20
674.9978610787
 30
0.0
 11
129.6992724556
 21
678.9978610787
 31
0.0
  0
LINE
  5
1BD
330
1AB
100
AcDbEntity
  8
0
  6
Continuous
 62
     7
370
    18
100
AcDbLine
 10
139.6992724556
 20
674.9978610787
 30
0.0
 11
139.6992724556
 21
678.9978610787
 31
0.0
  0
LINE
  5
1BE
330
1AB
100
AcDbEntity
  8
0
  6
Continuous
 62
     7
370
    18
100
AcDbLine
 10
149.6992724556
 20
674.9978610787
 30
0.0
 11
149.6992724556
 21
678.9978610787
 31
0.0
  0
LINE
  5
1BF
330
1AB
100
AcDbEntity
  8
0
  6
Continuous
 62
     7
370
    18
100
AcDbLine
 10
159.6992724556
 20
674.9978610787
 30
0.0
 11
159.6992724556
 21
678.9978610787
 31
0.0
  0
LINE
  5
1C0
330
1AB
100
AcDbEntity
  8
0
  6
Continuous
 62
     7
370
    18
100
AcDbLine
 10
169.6992724556
 20
674.9978610787
 30
0.0
 11
169.6992724556
 21
678.9978610787
 31
0.0
  0
LINE
  5
1C1
330
1AB
100
AcDbEntity
  8
0
  6
Continuous
 62
     7
370
    18
100
AcDbLine
 10
171.6992724556
 20
688.9978610787
 30
0.0
 11
175.6992724556
 21
688.9978610787
 31
0.0
  0
LINE
  5
1C2
330
1AB
100
AcDbEntity
  8
0
  6
Continuous
 62
     7
370
    18
100
AcDbLine
 10
171.6992724556
 20
698.9978610787
 30
0.0
 11
175.6992724556
 21
698.9978610787
 31
0.0
  0
LINE
  5
1C3
330
1AB
100
AcDbEntity
  8
0
  6
Continuous
 62
     7
370
    18
100
AcDbLine
 10
171.6992724556
 20
708.9978610787
 30
0.0
 11
175.6992724556
 21
708.9978610787
 31
0.0
  0
LINE
  5
1C4
330
1AB
100
AcDbEntity
  8
0
  6
Continuous
 62
     7
370
    18
100
AcDbLine
 10
171.6992724556
 20
718.9978610787
 30
0.0
 11
175.6992724556
 21
718.9978610787
 31
0.0
  0
LINE
  5
1C5
330
1AB
100
AcDbEntity
  8
0
  6
Continuous
 62
     7
370
    18
100
AcDbLine
 10
171.6992724556
 20
728.9978610787
 30
0.0
 11
175.6992724556
 21
728.9978610787
 31
0.0
  0
LINE
  5
1C6
330
1AB
100
AcDbEntity
  8
0
  6
Continuous
 62
     7
370
    18
100
AcDbLine
 10
171.6992724556
 20
738.9978610787
 30
0.0
 11
175.6992724556
 21
738.9978610787
 31
0.0
  0
LINE
  5
1C7
330
1AB
100
AcDbEntity
  8
0
  6
Continuous
 62
     7
370
    18
100
AcDbLine
 10
171.6992724556
 20
748.9978610787
 30
0.0
 11
175.6992724556
 21
748.9978610787
 31
0.0
  0
LINE
  5
1C8
330
1AB
100
AcDbEntity
  8
0
  6
Continuous
 62
     7
370
    18
100
AcDbLine
 10
171.6992724556
 20
758.9978610787
 30
0.0
 11
175.6992724556
 21
758.9978610787
 31
0.0
  0
LINE
  5
1C9
330
1AB
100
AcDbEntity
  8
0
  6
Continuous
 62
     7
370
    18
100
AcDbLine
 10
171.6992724556
 20
768.9978610787
 30
0.0
 11
175.6992724556
 21
768.9978610787
 31
0.0
  0
LINE
  5
1CA
330
1AB
100
AcDbEntity
  8
0
  6
Continuous
 62
     7
370
    18
100
AcDbLine
 10
171.6992724556
 20
688.9978610787
 30
0.0
 11
175.6992724556
 21
688.9978610787
 31
0.0
  0
LINE
  5
1CB
330
1AB
100
AcDbEntity
  8
0
  6
Continuous
 62
     7
370
    18
100
AcDbLine
 10
85.6992724556
 20
688.9978610787
 30
0.0
 11
89.6992724556
 21
688.9978610787
 31
0.0
  0
LINE
  5
1CC
330
1AB
100
AcDbEntity
  8
0
  6
Continuous
 62
     7
370
    18
100
AcDbLine
 10
171.6992724556
 20
698.9978610787
 30
0.0
 11
175.6992724556
 21
698.9978610787
 31
0.0
  0
LINE
  5
1CD
330
1AB
100
AcDbEntity
  8
0
  6
Continuous
 62
     7
370
    18
100
AcDbLine
 10
85.6992724556
 20
698.9978610787
 30
0.0
 11
89.6992724556
 21
698.9978610787
 31
0.0
  0
LINE
  5
1CE
330
1AB
100
AcDbEntity
  8
0
  6
Continuous
 62
     7
370
    18
100
AcDbLine
 10
171.6992724556
 20
708.9978610787
 30
0.0
 11
175.6992724556
 21
708.9978610787
 31
0.0
  0
LINE
  5
1CF
330
1AB
100
AcDbEntity
  8
0
  6
Continuous
 62
     7
370
    18
100
AcDbLine
 10
85.6992724556
 20
708.9978610787
 30
0.0
 11
89.6992724556
 21
708.9978610787
 31
0.0
  0
LINE
  5
1D0
330
1AB
100
AcDbEntity
  8
0
  6
Continuous
 62
     7
370
    18
100
AcDbLine
 10
171.6992724556
 20
718.9978610787
 30
0.0
 11
175.6992724556
 21
718.9978610787
 31
0.0
  0
LINE
  5
1D1
330
1AB
100
AcDbEntity
  8
0
  6
Continuous
 62
     7
370
    18
100
AcDbLine
 10
85.6992724556
 20
718.9978610787
 30
0.0
 11
89.6992724556
 21
718.9978610787
 31
0.0
  0
LINE
  5
1D2
330
1AB
100
AcDbEntity
  8
0
  6
Continuous
 62
     7
370
    18
100
AcDbLine
 10
171.6992724556
 20
728.9978610787
 30
0.0
 11
175.6992724556
 21
728.9978610787
 31
0.0
  0
LINE
  5
1D3
330
1AB
100
AcDbEntity
  8
0
  6
Continuous
 62
     7
370
    18
100
AcDbLine
 10
85.6992724556
 20
728.9978610787
 30
0.0
 11
89.6992724556
 21
728.9978610787
 31
0.0
  0
LINE
  5
1D4
330
1AB
100
AcDbEntity
  8
0
  6
Continuous
 62
     7
370
    18
100
AcDbLine
 10
171.6992724556
 20
738.9978610787
 30
0.0
 11
175.6992724556
 21
738.9978610787
 31
0.0
  0
LINE
  5
1D5
330
1AB
100
AcDbEntity
  8
0
  6
Continuous
 62
     7
370
    18
100
AcDbLine
 10
85.6992724556
 20
738.9978610787
 30
0.0
 11
89.6992724556
 21
738.9978610787
 31
0.0
  0
LINE
  5
1D6
330
1AB
100
AcDbEntity
  8
0
  6
Continuous
 62
     7
370
    18
100
AcDbLine
 10
171.6992724556
 20
748.9978610787
 30
0.0
 11
175.6992724556
 21
748.9978610787
 31
0.0
  0
LINE
  5
1D7
330
1AB
100
AcDbEntity
  8
0
  6
Continuous
 62
     7
370
    18
100
AcDbLine
 10
85.6992724556
 20
748.9978610787
 30
0.0
 11
89.6992724556
 21
748.9978610787
 31
0.0
  0
LINE
  5
1D8
330
1AB
100
AcDbEntity
  8
0
  6
Continuous
 62
     7
370
    18
100
AcDbLine
 10
171.6992724556
 20
758.9978610787
 30
0.0
 11
175.6992724556
 21
758.9978610787
 31
0.0
  0
LINE
  5
1D9
330
1AB
100
AcDbEntity
  8
0
  6
Continuous
 62
     7
370
    18
100
AcDbLine
 10
85.6992724556
 20
758.9978610787
 30
0.0
 11
89.6992724556
 21
758.9978610787
 31
0.0
  0
LINE
  5
1DA
330
1AB
100
AcDbEntity
  8
0
  6
Continuous
 62
     7
370
    18
100
AcDbLine
 10
171.6992724556
 20
768.9978610787
 30
0.0
 11
175.6992724556
 21
768.9978610787
 31
0.0
  0
LINE
  5
1DB
330
1AB
100
AcDbEntity
  8
0
  6
Continuous
 62
     7
370
    18
100
AcDbLine
 10
85.6992724556
 20
768.9978610787
 30
0.0
 11
89.6992724556
 21
768.9978610787
 31
0.0
  0
LINE
  5
1DC
330
1AB
100
AcDbEntity
  8
0
  6
Continuous
 62
     7
370
    18
100
AcDbLine
 10
109.6992724556
 20
678.9978610787
 30
0.0
 11
111.6992724556
 21
678.9978610787
 31
0.0
  0
LINE
  5
1DD
330
1AB
100
AcDbEntity
  8
0
  6
Continuous
 62
     7
370
    18
100
AcDbLine
 10
129.6992724556
 20
674.9978610787
 30
0.0
 11
119.6992724556
 21
674.9978610787
 31
0.0
  0
LINE
  5
1DE
330
1AB
100
AcDbEntity
  8
0
  6
Continuous
 62
     7
370
    18
100
AcDbLine
 10
149.6992724556
 20
674.9978610787
 30
0.0
 11
139.6992724556
 21
674.9978610787
 31
0.0
  0
LINE
  5
1DF
330
1AB
100
AcDbEntity
  8
0
  6
Continuous
 62
     7
370
    18
100
AcDbLine
 10
169.6992724556
 20
678.9978610787
 30
0.0
 11
171.6992724556
 21
678.9978610787
 31
0.0
  0
LINE
  5
1E0
330
1AB
100
AcDbEntity
  8
0
  6
Continuous
 62
     7
370
    18
100
AcDbLine
 10
171.6992724556
 20
718.9978610787
 30
0.0
 11
171.6992724556
 21
728.9978610787
 31
0.0
  0
LINE
  5
1E1
330
1AB
100
AcDbEntity
  8
0
  6
Continuous
 62
     7
370
    18
100
AcDbLine
 10
175.6992724556
 20
728.9978610787
 30
0.0
 11
175.6992724556
 21
738.9978610787
 31
0.0
  0
LINE
  5
1E2
330
1AB
100
AcDbEntity
  8
0
  6
Continuous
 62
     7
370
    18
100
AcDbLine
 10
171.6992724556
 20
738.9978610787
 30
0.0
 11
171.6992724556
 21
748.9978610787
 31
0.0
  0
LINE
  5
1E3
330
1AB
100
AcDbEntity
  8
0
  6
Continuous
 62
     7
370
    18
100
AcDbLine
 10
175.6992724556
 20
748.9978610787
 30
0.0
 11
175.6992724556
 21
758.9978610787
 31
0.0
  0
LINE
  5
1E4
330
1AB
100
AcDbEntity
  8
0
  6
Continuous
 62
     7
370
    18
100
AcDbLine
 10
171.6992724556
 20
758.9978610787
 30
0.0
 11
171.6992724556
 21
768.9978610787
 31
0.0
  0
LINE
  5
1E5
330
1AB
100
AcDbEntity
  8
0
  6
Continuous
 62
     7
370
    18
100
AcDbLine
 10
175.6992724556
 20
768.9978610787
 30
0.0
 11
175.6992724556
 21
778.9978610787
 31
0.0
  0
LINE
  5
1E6
330
1AB
100
AcDbEntity
  8
0
  6
Continuous
 62
     7
370
    18
100
AcDbLine
 10
89.6992724556
 20
778.9978610787
 30
0.0
 11
85.6992724556
 21
778.9978610787
 31
0.0
  0
LINE
  5
1E7
330
1AB
100
AcDbEntity
  8
0
  6
Continuous
 62
     7
370
    18
100
AcDbLine
 10
85.6992724556
 20
778.9978610787
 30
0.0
 11
85.6992724556
 21
768.9978610787
 31
0.0
  0
LINE
  5
1E8
330
1AB
100
AcDbEntity
  8
0
  6
Continuous
 62
     7
370
    18
100
AcDbLine
 10
85.6992724556
 20
758.9978610787
 30
0.0
 11
85.6992724556
 21
748.9978610787
 31
0.0
  0
LINE
  5
1E9
330
1AB
100
AcDbEntity
  8
0
  6
Continuous
 62
     7
370
    18
100
AcDbLine
 10
85.6992724556
 20
738.9978610787
 30
0.0
 11
85.6992724556
 21
728.9978610787
 31
0.0
  0
LINE
  5
1EA
330
1AB
100
AcDbEntity
  8
0
  6
Continuous
 62
     7
370
    18
100
AcDbLine
 10
85.6992724556
 20
718.9978610787
 30
0.0
 11
85.6992724556
 21
708.9978610787
 31
0.0
  0
LINE
  5
1EB
330
1AB
100
AcDbEntity
  8
0
  6
Continuous
 62
     7
370
    18
100
AcDbLine
 10
85.6992724556
 20
698.9978610787
 30
0.0
 11
85.6992724556
 21
688.9978610787
 31
0.0
  0
LINE
  5
1EC
330
1AB
100
AcDbEntity
  8
0
  6
Continuous
 62
     7
370
    18
100
AcDbLine
 10
89.6992724556
 20
768.9978610787
 30
0.0
 11
89.6992724556
 21
758.9978610787
 31
0.0
  0
LINE
  5
1ED
330
1AB
100
AcDbEntity
  8
0
  6
Continuous
 62
     7
370
    18
100
AcDbLine
 10
89.6992724556
 20
748.9978610787
 30
0.0
 11
89.6992724556
 21
738.9978610787
 31
0.0
  0
LINE
  5
1EE
330
1AB
100
AcDbEntity
  8
0
  6
Continuous
 62
     7
370
    18
100
AcDbLine
 10
89.6992724556
 20
728.9978610787
 30
0.0
 11
89.6992724556
 21
718.9978610787
 31
0.0
  0
LINE
  5
1EF
330
1AB
100
AcDbEntity
  8
0
  6
Continuous
 62
     7
370
    18
100
AcDbLine
 10
89.6992724556
 20
708.9978610787
 30
0.0
 11
89.6992724556
 21
698.9978610787
 31
0.0
  0
LINE
  5
1F0
330
1AB
100
AcDbEntity
  8
0
  6
Continuous
 62
     7
370
    18
100
AcDbLine
 10
89.6992724556
 20
678.9978610787
 30
0.0
 11
99.6992724556
 21
678.9978610787
 31
0.0
  0
LINE
  5
1F1
330
1AB
100
AcDbEntity
  8
0
  6
Continuous
 62
     7
370
    18
100
AcDbLine
 10
129.6992724556
 20
678.9978610787
 30
0.0
 11
139.6992724556
 21
678.9978610787
 31
0.0
  0
LINE
  5
1F2
330
1AB
100
AcDbEntity
  8
0
  6
Continuous
 62
     7
370
    18
100
AcDbLine
 10
157.6992724556
 20
698.9978610787
 30
0.0
 11
157.6992724556
 21
688.9978610787
 31
0.0
  0
LINE
  5
1F3
330
1AB
100
AcDbEntity
  8
0
  6
Continuous
 62
     7
370
    18
100
AcDbLine
 10
157.6992724556
 20
688.9978610787
 30
0.0
 11
149.6992724556
 21
688.9978610787
 31
0.0
  0
LINE
  5
1F4
330
1AB
100
AcDbEntity
  8
0
  6
Continuous
 62
     7
370
    18
100
AcDbLine
 10
149.6992724556
 20
688.9978610787
 30
0.0
 11
149.6992724556
 21
698.9978610787
 31
0.0
  0
LINE
  5
1F5
330
1AB
100
AcDbEntity
  8
0
  6
Continuous
 62
     7
370
    18
100
AcDbLine
 10
109.6992724556
 20
678.9978610787
 30
0.0
 11
111.6992724556
 21
678.9978610787
 31
0.0
  0
LINE
  5
1F6
330
1AB
100
AcDbEntity
  8
0
  6
Continuous
 62
     7
370
    18
100
AcDbLine
 10
157.6992724556
 20
718.9978610787
 30
0.0
 11
157.6992724556
 21
708.9978610787
 31
0.0
  0
LINE
  5
1F7
330
1AB
100
AcDbEntity
  8
0
  6
Continuous
 62
     7
370
    18
100
AcDbLine
 10
149.6992724556
 20
728.9978610787
 30
0.0
 11
149.6992724556
 21
738.9978610787
 31
0.0
  0
LINE
  5
1F8
330
1AB
100
AcDbEntity
  8
0
  6
Continuous
 62
     7
370
    18
100
AcDbLine
 10
149.6992724556
 20
748.9978610787
 30
0.0
 11
149.6992724556
 21
758.9978610787
 31
0.0
  0
LINE
  5
1F9
330
1AB
100
AcDbEntity
  8
0
  6
Continuous
 62
     7
370
    18
100
AcDbLine
 10
157.6992724556
 20
758.9978610787
 30
0.0
 11
157.6992724556
 21
748.9978610787
 31
0.0
  0
LINE
  5
1FA
330
1AB
100
AcDbEntity
  8
0
  6
Continuous
 62
     7
370
    18
100
AcDbLine
 10
157.6992724556
 20
698.9978610787
 30
0.0
 11
149.6992724556
 21
698.9978610787
 31
0.0
  0
LINE
  5
1FB
330
1AB
100
AcDbEntity
  8
0
  6
Continuous
 62
     7
370
    18
100
AcDbLine
 10
157.6992724556
 20
708.9978610787
 30
0.0
 11
149.6992724556
 21
708.9978610787
 31
0.0
  0
LINE
  5
1FC
330
1AB
100
AcDbEntity
  8
0
  6
Continuous
 62
     7
370
    18
100
AcDbLine
 10
157.6992724556
 20
718.9978610787
 30
0.0
 11
149.6992724556
 21
718.9978610787
 31
0.0
  0
LINE
  5
1FD
330
1AB
100
AcDbEntity
  8
0
  6
Continuous
 62
     7
370
    18
100
AcDbLine
 10
157.6992724556
 20
728.9978610787
 30
0.0
 11
149.6992724556
 21
728.9978610787
 31
0.0
  0
LINE
  5
1FE
330
1AB
100
AcDbEntity
  8
0
  6
Continuous
 62
     7
370
    18
100
AcDbLine
 10
157.6992724556
 20
738.9978610787
 30
0.0
 11
149.6992724556
 21
738.9978610787
 31
0.0
  0
LINE
  5
1FF
330
1AB
100
AcDbEntity
  8
0
  6
Continuous
 62
     7
370
    18
100
AcDbLine
 10
157.6992724556
 20
748.9978610787
 30
0.0
 11
149.6992724556
 21
748.9978610787
 31
0.0
  0
LINE
  5
200
330
1AB
100
AcDbEntity
  8
0
  6
Continuous
 62
     7
370
    18
100
AcDbLine
 10
157.6992724556
 20
758.9978610787
 30
0.0
 11
149.6992724556
 21
758.9978610787
 31
0.0
  0
LINE
  5
201
330
1AB
100
AcDbEntity
  8
0
  6
Continuous
 62
     7
370
    18
100
AcDbLine
 10
157.6992724556
 20
738.9978610787
 30
0.0
 11
157.6992724556
 21
728.9978610787
 31
0.0
  0
LINE
  5
202
330
1AB
100
AcDbEntity
  8
0
  6
Continuous
 62
     7
370
    18
100
AcDbLine
 10
149.6992724556
 20
708.9978610787
 30
0.0
 11
149.6992724556
 21
718.9978610787
 31
0.0
  0
ENDBLK
  5
1AD
330
1AB
100
AcDbEntity
  8
0
100
AcDbBlockEnd
  0
BLOCK
  5
204
330
203
100
AcDbEntity
  8
0
100
AcDbBlockBegin
  2
Block23
 70
     0
 10
0.0
 20
0.0
 30
0.0
  3
Block23
  1

  0
LINE
  5
206
330
203
100
AcDbEntity
  8
0
  6
Continuous
 62
     7
370
    18
100
AcDbLine
 10
424.8706806565
 20
687.9978610787
 30
0.0
 11
424.8706806565
 21
683.9978610787
 31
0.0
  0
LINE
  5
207
330
203
100
AcDbEntity
  8
0
  6
Continuous
 62
     7
370
    18
100
AcDbLine
 10
424.8706806565
 20
779.9978610787
 30
0.0
 11
434.8706806565
 21
779.9978610787
 31
0.0
  0
LINE
  5
208
330
203
100
AcDbEntity
  8
0
  6
Continuous
 62
     7
370
    18
100
AcDbLine
 10
414.8706806565
 20
687.9978610787
 30
0.0
 11
414.8706806565
 21
779.9978610787
 31
0.0
  0
LINE
  5
209
330
203
100
AcDbEntity
  8
0
  6
Continuous
 62
     7
370
    18
100
AcDbLine
 10
424.8706806565
 20
687.9978610787
 30
0.0
 11
434.8706806565
 21
687.9978610787
 31
0.0
  0
LINE
  5
20A
330
203
100
AcDbEntity
  8
0
  6
Continuous
 62
     7
370
    18
100
AcDbLine
 10
504.8706806565
 20
779.9978610787
 30
0.0
 11
514.8706806565
 21
779.9978610787
 31
0.0
  0
LINE
  5
20B
330
203
100
AcDbEntity
  8
0
  6
Continuous
 62
     7
370
    18
100
AcDbLine
 10
434.8706806565
 20
687.9978610787
 30
0.0
 11
434.8706806565
 21
683.9978610787
 31
0.0
  0
LINE
  5
20C
330
203
100
AcDbEntity
  8
0
  6
Continuous
 62
     7
370
    18
100
AcDbLine
 10
414.8706806565
 20
779.9978610787
 30
0.0
 11
414.8706806565
 21
783.9978610787
 31
0.0
  0
LINE
  5
20D
330
203
100
AcDbEntity
  8
0
  6
Continuous
 62
     7
370
    18
100
AcDbLine
 10
414.8706806565
 20
783.9978610787
 30
0.0
 11
424.8706806565
 21
783.9978610787
 31
0.0
  0
LINE
  5
20E
330
203
100
AcDbEntity
  8
0
  6
Continuous
 62
     7
370
    18
100
AcDbLine
 10
504.8706806565
 20
783.9978610787
 30
0.0
 11
504.8706806565
 21
779.9978610787
 31
0.0
  0
LINE
  5
20F
330
203
100
AcDbEntity
  8
0
  6
Continuous
 62
     7
370
    18
100
AcDbLine
 10
414.8706806565
 20
687.9978610787
 30
0.0
 11
414.8706806565
 21
683.9978610787
 31
0.0
  0
LINE
  5
210
330
203
100
AcDbEntity
  8
0
  6
Continuous
 62
     7
370
    18
100
AcDbLine
 10
414.8706806565
 20
683.9978610787
 30
0.0
 11
424.8706806565
 21
683.9978610787
 31
0.0
  0
LINE
  5
211
330
203
100
AcDbEntity
  8
0
  6
Continuous
 62
     7
370
    18
100
AcDbLine
 10
504.8706806565
 20
683.9978610787
 30
0.0
 11
504.8706806565
 21
687.9978610787
 31
0.0
  0
LINE
  5
212
330
203
100
AcDbEntity
  8
0
  6
Continuous
 62
     7
370
    18
100
AcDbLine
 10
444.8706806565
 20
687.9978610787
 30
0.0
 11
444.8706806565
 21
683.9978610787
 31
0.0
  0
LINE
  5
213
330
203
100
AcDbEntity
  8
0
  6
Continuous
 62
     7
370
    18
100
AcDbLine
 10
454.8706806565
 20
687.9978610787
 30
0.0
 11
454.8706806565
 21
683.9978610787
 31
0.0
  0
LINE
  5
214
330
203
100
AcDbEntity
  8
0
  6
Continuous
 62
     7
370
    18
100
AcDbLine
 10
464.8706806565
 20
687.9978610787
 30
0.0
 11
464.8706806565
 21
683.9978610787
 31
0.0
  0
LINE
  5
215
330
203
100
AcDbEntity
  8
0
  6
Continuous
 62
     7
370
    18
100
AcDbLine
 10
474.8706806565
 20
687.9978610787
 30
0.0
 11
474.8706806565
 21
683.9978610787
 31
0.0
  0
LINE
  5
216
330
203
100
AcDbEntity
  8
0
  6
Continuous
 62
     7
370
    18
100
AcDbLine
 10
484.8706806565
 20
687.9978610787
 30
0.0
 11
484.8706806565
 21
683.9978610787
 31
0.0
  0
LINE
  5
217
330
203
100
AcDbEntity
  8
0
  6
Continuous
 62
     7
370
    18
100
AcDbLine
 10
494.8706806565
 20
687.9978610787
 30
0.0
 11
494.8706806565
 21
683.9978610787
 31
0.0
  0
LINE
  5
218
330
203
100
AcDbEntity
  8
0
  6
Continuous
 62
     7
370
    18
100
AcDbLine
 10
424.8706806565
 20
687.9978610787
 30
0.0
 11
424.8706806565
 21
683.9978610787
 31
0.0
  0
LINE
  5
219
330
203
100
AcDbEntity
  8
0
  6
Continuous
 62
     7
370
    18
100
AcDbLine
 10
424.8706806565
 20
779.9978610787
 30
0.0
 11
424.8706806565
 21
783.9978610787
 31
0.0
  0
LINE
  5
21A
330
203
100
AcDbEntity
  8
0
  6
Continuous
 62
     7
370
    18
100
AcDbLine
 10
434.8706806565
 20
687.9978610787
 30
0.0
 11
434.8706806565
 21
683.9978610787
 31
0.0
  0
LINE
  5
21B
330
203
100
AcDbEntity
  8
0
  6
Continuous
 62
     7
370
    18
100
AcDbLine
 10
434.8706806565
 20
779.9978610787
 30
0.0
 11
434.8706806565
 21
783.9978610787
 31
0.0
  0
LINE
  5
21C
330
203
100
AcDbEntity
  8
0
  6
Continuous
 62
     7
370
    18
100
AcDbLine
 10
444.8706806565
 20
687.9978610787
 30
0.0
 11
444.8706806565
 21
683.9978610787
 31
0.0
  0
LINE
  5
21D
330
203
100
AcDbEntity
  8
0
  6
Continuous
 62
     7
370
    18
100
AcDbLine
 10
444.8706806565
 20
779.9978610787
 30
0.0
 11
444.8706806565
 21
783.9978610787
 31
0.0
  0
LINE
  5
21E
330
203
100
AcDbEntity
  8
0
  6
Continuous
 62
     7
370
    18
100
AcDbLine
 10
454.8706806565
 20
687.9978610787
 30
0.0
 11
454.8706806565
 21
683.9978610787
 31
0.0
  0
LINE
  5
21F
330
203
100
AcDbEntity
  8
0
  6
Continuous
 62
     7
370
    18
100
AcDbLine
 10
454.8706806565
 20
779.9978610787
 30
0.0
 11
454.8706806565
 21
783.9978610787
 31
0.0
  0
LINE
  5
220
330
203
100
AcDbEntity
  8
0
  6
Continuous
 62
     7
370
    18
100
AcDbLine
 10
464.8706806565
 20
687.9978610787
 30
0.0
 11
464.8706806565
 21
683.9978610787
 31
0.0
  0
LINE
  5
221
330
203
100
AcDbEntity
  8
0
  6
Continuous
 62
     7
370
    18
100
AcDbLine
 10
464.8706806565
 20
779.9978610787
 30
0.0
 11
464.8706806565
 21
783.9978610787
 31
0.0
  0
LINE
  5
222
330
203
100
AcDbEntity
  8
0
  6
Continuous
 62
     7
370
    18
100
AcDbLine
 10
474.8706806565
 20
687.9978610787
 30
0.0
 11
474.8706806565
 21
683.9978610787
 31
0.0
  0
LINE
  5
223
330
203
100
AcDbEntity
  8
0
  6
Continuous
 62
     7
370
    18
100
AcDbLine
 10
474.8706806565
 20
779.9978610787
 30
0.0
 11
474.8706806565
 21
783.9978610787
 31
0.0
  0
LINE
  5
224
330
203
100
AcDbEntity
  8
0
  6
Continuous
 62
     7
370
    18
100
AcDbLine
 10
484.8706806565
 20
687.9978610787
 30
0.0
 11
484.8706806565
 21
683.9978610787
 31
0.0
  0
LINE
  5
225
330
203
100
AcDbEntity
  8
0
  6
Continuous
 62
     7
370
    18
100
AcDbLine
 10
484.8706806565
 20
779.9978610787
 30
0.0
 11
484.8706806565
 21
783.9978610787
 31
0.0
  0
LINE
  5
226
330
203
100
AcDbEntity
  8
0
  6
Continuous
 62
     7
370
    18
100
AcDbLine
 10
494.8706806565
 20
687.9978610787
 30
0.0
 11
494.8706806565
 21
683.9978610787
 31
0.0
  0
LINE
  5
227
330
203
100
AcDbEntity
  8
0
  6
Continuous
 62
     7
370
    18
100
AcDbLine
 10
494.8706806565
 20
779.9978610787
 30
0.0
 11
494.8706806565
 21
783.9978610787
 31
0.0
  0
LINE
  5
228
330
203
100
AcDbEntity
  8
0
  6
Continuous
 62
     7
370
    18
100
AcDbLine
 10
504.8706806565
 20
687.9978610787
 30
0.0
 11
514.8706806565
 21
687.9978610787
 31
0.0
  0
LINE
  5
229
330
203
100
AcDbEntity
  8
0
  6
Continuous
 62
     7
370
    18
100
AcDbLine
 10
514.8706806565
 20
687.9978610787
 30
0.0
 11
514.8706806565
 21
779.9978610787
 31
0.0
  0
LINE
  5
22A
330
203
100
AcDbEntity
  8
0
  6
Continuous
 62
     7
370
    18
100
AcDbLine
 10
494.8706806565
 20
783.9978610787
 30
0.0
 11
504.8706806565
 21
783.9978610787
 31
0.0
  0
LINE
  5
22B
330
203
100
AcDbEntity
  8
0
  6
Continuous
 62
     7
370
    18
100
AcDbLine
 10
484.8706806565
 20
779.9978610787
 30
0.0
 11
494.8706806565
 21
779.9978610787
 31
0.0
  0
LINE
  5
22C
330
203
100
AcDbEntity
  8
0
  6
Continuous
 62
     7
370
    18
100
AcDbLine
 10
474.8706806565
 20
783.9978610787
 30
0.0
 11
484.8706806565
 21
783.9978610787
 31
0.0
  0
LINE
  5
22D
330
203
100
AcDbEntity
  8
0
  6
Continuous
 62
     7
370
    18
100
AcDbLine
 10
464.8706806565
 20
779.9978610787
 30
0.0
 11
474.8706806565
 21
779.9978610787
 31
0.0
  0
LINE
  5
22E
330
203
100
AcDbEntity
  8
0
  6
Continuous
 62
     7
370
    18
100
AcDbLine
 10
454.8706806565
 20
783.9978610787
 30
0.0
 11
464.8706806565
 21
783.9978610787
 31
0.0
  0
LINE
  5
22F
330
203
100
AcDbEntity
  8
0
  6
Continuous
 62
     7
370
    18
100
AcDbLine
 10
444.8706806565
 20
779.9978610787
 30
0.0
 11
454.8706806565
 21
779.9978610787
 31
0.0
  0
LINE
  5
230
330
203
100
AcDbEntity
  8
0
  6
Continuous
 62
     7
370
    18
100
AcDbLine
 10
434.8706806565
 20
783.9978610787
 30
0.0
 11
444.8706806565
 21
783.9978610787
 31
0.0
  0
LINE
  5
231
330
203
100
AcDbEntity
  8
0
  6
Continuous
 62
     7
370
    18
100
AcDbLine
 10
494.8706806565
 20
683.9978610787
 30
0.0
 11
504.8706806565
 21
683.9978610787
 31
0.0
  0
LINE
  5
232
330
203
100
AcDbEntity
  8
0
  6
Continuous
 62
     7
370
    18
100
AcDbLine
 10
484.8706806565
 20
687.9978610787
 30
0.0
 11
494.8706806565
 21
687.9978610787
 31
0.0
  0
LINE
  5
233
330
203
100
AcDbEntity
  8
0
  6
Continuous
 62
     7
370
    18
100
AcDbLine
 10
474.8706806565
 20
683.9978610787
 30
0.0
 11
484.8706806565
 21
683.9978610787
 31
0.0
  0
LINE
  5
234
330
203
100
AcDbEntity
  8
0
  6
Continuous
 62
     7
370
    18
100
AcDbLine
 10
464.8706806565
 20
687.9978610787
 30
0.0
 11
474.8706806565
 21
687.9978610787
 31
0.0
  0
LINE
  5
235
330
203
100
AcDbEntity
  8
0
  6
Continuous
 62
     7
370
    18
100
AcDbLine
 10
454.8706806565
 20
683.9978610787
 30
0.0
 11
464.8706806565
 21
683.9978610787
 31
0.0
  0
LINE
  5
236
330
203
100
AcDbEntity
  8
0
  6
Continuous
 62
     7
370
    18
100
AcDbLine
 10
444.8706806565
 20
687.9978610787
 30
0.0
 11
454.8706806565
 21
687.9978610787
 31
0.0
  0
LINE
  5
237
330
203
100
AcDbEntity
  8
0
  6
Continuous
 62
     7
370
    18
100
AcDbLine
 10
434.8706806565
 20
683.9978610787
 30
0.0
 11
444.8706806565
 21
683.9978610787
 31
0.0
  0
ENDBLK
  5
205
330
203
100
AcDbEntity
  8
0
100
AcDbBlockEnd
  0
BLOCK
  5
239
330
238
100
AcDbEntity
  8
0
100
AcDbBlockBegin
  2
Block27
 70
     0
 10
0.0
 20
0.0
 30
0.0
  3
Block27
  1

  0
LINE
  5
23B
330
238
100
AcDbEntity
  8
0
  6
Continuous
 62
     7
370
    18
100
AcDbLine
 10
589.656618356
 20
607.9435745811
 30
0.0
 11
585.656618356
 21
607.9435745811
 31
0.0
  0
LINE
  5
23C
330
238
100
AcDbEntity
  8
0
  6
Continuous
 62
     7
370
    18
100
AcDbLine
 10
689.656618356
 20
600.9435745811
 30
0.0
 11
689.656618356
 21
597.9435745811
 31
0.0
  0
LINE
  5
23D
330
238
100
AcDbEntity
  8
0
  6
Continuous
 62
     7
370
    18
100
AcDbLine
 10
689.656618356
 20
597.9435745811
 30
0.0
 11
685.6566183559
 21
597.9435745811
 31
0.0
  0
LINE
  5
23E
330
238
100
AcDbEntity
  8
0
  6
Continuous
 62
     7
370
    18
100
AcDbLine
 10
685.6566183559
 20
797.9435745811
 30
0.0
 11
685.6566183559
 21
793.9435745811
 31
0.0
  0
LINE
  5
23F
330
238
100
AcDbEntity
  8
0
  6
Continuous
 62
     7
370
    18
100
AcDbLine
 10
682.656618356
 20
797.9435745811
 30
0.0
 11
685.6566183559
 21
797.9435745811
 31
0.0
  0
LINE
  5
240
330
238
100
AcDbEntity
  8
0
  6
Continuous
 62
     7
370
    18
100
AcDbLine
 10
672.656618356
 20
793.9435745811
 30
0.0
 11
662.656618356
 21
793.9435745811
 31
0.0
  0
LINE
  5
241
330
238
100
AcDbEntity
  8
0
  6
Continuous
 62
     7
370
    18
100
AcDbLine
 10
672.656618356
 20
797.9435745811
 30
0.0
 11
682.656618356
 21
797.9435745811
 31
0.0
  0
LINE
  5
242
330
238
100
AcDbEntity
  8
0
  6
Continuous
 62
     7
370
    18
100
AcDbLine
 10
652.656618356
 20
793.9435745811
 30
0.0
 11
642.656618356
 21
793.9435745811
 31
0.0
  0
LINE
  5
243
330
238
100
AcDbEntity
  8
0
  6
Continuous
 62
     7
370
    18
100
AcDbLine
 10
652.656618356
 20
797.9435745811
 30
0.0
 11
662.656618356
 21
797.9435745811
 31
0.0
  0
LINE
  5
244
330
238
100
AcDbEntity
  8
0
  6
Continuous
 62
     7
370
    18
100
AcDbLine
 10
632.656618356
 20
793.9435745811
 30
0.0
 11
622.656618356
 21
793.9435745811
 31
0.0
  0
LINE
  5
245
330
238
100
AcDbEntity
  8
0
  6
Continuous
 62
     7
370
    18
100
AcDbLine
 10
632.656618356
 20
797.9435745811
 30
0.0
 11
642.656618356
 21
797.9435745811
 31
0.0
  0
LINE
  5
246
330
238
100
AcDbEntity
  8
0
  6
Continuous
 62
     7
370
    18
100
AcDbLine
 10
612.656618356
 20
793.9435745811
 30
0.0
 11
602.656618356
 21
793.9435745811
 31
0.0
  0
LINE
  5
247
330
238
100
AcDbEntity
  8
0
  6
Continuous
 62
     7
370
    18
100
AcDbLine
 10
612.656618356
 20
797.9435745811
 30
0.0
 11
622.656618356
 21
797.9435745811
 31
0.0
  0
LINE
  5
248
330
238
100
AcDbEntity
  8
0
  6
Continuous
 62
     7
370
    18
100
AcDbLine
 10
592.656618356
 20
797.9435745811
 30
0.0
 11
589.656618356
 21
797.9435745811
 31
0.0
  0
LINE
  5
249
330
238
100
AcDbEntity
  8
0
  6
Continuous
 62
     7
370
    18
100
AcDbLine
 10
672.656618356
 20
793.9435745811
 30
0.0
 11
672.656618356
 21
797.9435745811
 31
0.0
  0
LINE
  5
24A
330
238
100
AcDbEntity
  8
0
  6
Continuous
 62
     7
370
    18
100
AcDbLine
 10
662.656618356
 20
793.9435745811
 30
0.0
 11
662.656618356
 21
797.9435745811
 31
0.0
  0
LINE
  5
24B
330
238
100
AcDbEntity
  8
0
  6
Continuous
 62
     7
370
    18
100
AcDbLine
 10
652.656618356
 20
793.9435745811
 30
0.0
 11
652.656618356
 21
797.9435745811
 31
0.0
  0
LINE
  5
24C
330
238
100
AcDbEntity
  8
0
  6
Continuous
 62
     7
370
    18
100
AcDbLine
 10
642.656618356
 20
793.9435745811
 30
0.0
 11
642.656618356
 21
797.9435745811
 31
0.0
  0
LINE
  5
24D
330
238
100
AcDbEntity
  8
0
  6
Continuous
 62
     7
370
    18
100
AcDbLine
 10
632.656618356
 20
793.9435745811
 30
0.0
 11
632.656618356
 21
797.9435745811
 31
0.0
  0
LINE
  5
24E
330
238
100
AcDbEntity
  8
0
  6
Continuous
 62
     7
370
    18
100
AcDbLine
 10
622.656618356
 20
793.9435745811
 30
0.0
 11
622.656618356
 21
797.9435745811
 31
0.0
  0
LINE
  5
24F
330
238
100
AcDbEntity
  8
0
  6
Continuous
 62
     7
370
    18
100
AcDbLine
 10
612.656618356
 20
793.9435745811
 30
0.0
 11
612.656618356
 21
797.9435745811
 31
0.0
  0
LINE
  5
250
330
238
100
AcDbEntity
  8
0
  6
Continuous
 62
     7
370
    18
100
AcDbLine
 10
602.656618356
 20
793.9435745811
 30
0.0
 11
602.656618356
 21
797.9435745811
 31
0.0
  0
LINE
  5
251
330
238
100
AcDbEntity
  8
0
  6
Continuous
 62
     7
370
    18
100
AcDbLine
 10
592.656618356
 20
797.9435745811
 30
0.0
 11
602.656618356
 21
797.9435745811
 31
0.0
  0
LINE
  5
252
330
238
100
AcDbEntity
  8
0
  6
Continuous
 62
     7
370
    18
100
AcDbLine
 10
589.656618356
 20
797.9435745811
 30
0.0
 11
589.656618356
 21
793.9435745811
 31
0.0
  0
LINE
  5
253
330
238
100
AcDbEntity
  8
0
  6
Continuous
 62
     7
370
    18
100
AcDbLine
 10
585.656618356
 20
625.9435745811
 30
0.0
 11
585.656618356
 21
627.9435745811
 31
0.0
  0
LINE
  5
254
330
238
100
AcDbEntity
  8
0
  6
Continuous
 62
     7
370
    18
100
AcDbLine
 10
689.656618356
 20
790.9435745811
 30
0.0
 11
689.656618356
 21
780.9435745811
 31
0.0
  0
LINE
  5
255
330
238
100
AcDbEntity
  8
0
  6
Continuous
 62
     7
370
    18
100
AcDbLine
 10
685.6566183559
 20
780.9435745811
 30
0.0
 11
689.656618356
 21
780.9435745811
 31
0.0
  0
LINE
  5
256
330
238
100
AcDbEntity
  8
0
  6
Continuous
 62
     7
370
    18
100
AcDbLine
 10
589.656618356
 20
617.9435745811
 30
0.0
 11
585.656618356
 21
617.9435745811
 31
0.0
  0
LINE
  5
257
330
238
100
AcDbEntity
  8
0
  6
Continuous
 62
     7
370
    18
100
AcDbLine
 10
685.6566183559
 20
770.9435745811
 30
0.0
 11
689.656618356
 21
770.9435745811
 31
0.0
  0
LINE
  5
258
330
238
100
AcDbEntity
  8
0
  6
Continuous
 62
     7
370
    18
100
AcDbLine
 10
685.656618356
 20
760.9435745811
 30
0.0
 11
689.656618356
 21
760.9435745811
 31
0.0
  0
LINE
  5
259
330
238
100
AcDbEntity
  8
0
  6
Continuous
 62
     7
370
    18
100
AcDbLine
 10
685.656618356
 20
750.9435745811
 30
0.0
 11
689.656618356
 21
750.9435745811
 31
0.0
  0
LINE
  5
25A
330
238
100
AcDbEntity
  8
0
  6
Continuous
 62
     7
370
    18
100
AcDbLine
 10
685.6566183559
 20
740.9435745811
 30
0.0
 11
689.656618356
 21
740.9435745811
 31
0.0
  0
LINE
  5
25B
330
238
100
AcDbEntity
  8
0
  6
Continuous
 62
     7
370
    18
100
AcDbLine
 10
685.6566183559
 20
730.9435745811
 30
0.0
 11
689.656618356
 21
730.9435745811
 31
0.0
  0
LINE
  5
25C
330
238
100
AcDbEntity
  8
0
  6
Continuous
 62
     7
370
    18
100
AcDbLine
 10
685.6566183559
 20
720.9435745811
 30
0.0
 11
689.656618356
 21
720.9435745811
 31
0.0
  0
LINE
  5
25D
330
238
100
AcDbEntity
  8
0
  6
Continuous
 62
     7
370
    18
100
AcDbLine
 10
685.6566183559
 20
710.9435745811
 30
0.0
 11
689.656618356
 21
710.9435745811
 31
0.0
  0
LINE
  5
25E
330
238
100
AcDbEntity
  8
0
  6
Continuous
 62
     7
370
    18
100
AcDbLine
 10
685.6566183559
 20
700.9435745811
 30
0.0
 11
689.656618356
 21
700.9435745811
 31
0.0
  0
LINE
  5
25F
330
238
100
AcDbEntity
  8
0
  6
Continuous
 62
     7
370
    18
100
AcDbLine
 10
685.6566183559
 20
690.9435745811
 30
0.0
 11
689.656618356
 21
690.9435745811
 31
0.0
  0
LINE
  5
260
330
238
100
AcDbEntity
  8
0
  6
Continuous
 62
     7
370
    18
100
AcDbLine
 10
685.6566183559
 20
680.9435745811
 30
0.0
 11
689.656618356
 21
680.9435745811
 31
0.0
  0
LINE
  5
261
330
238
100
AcDbEntity
  8
0
  6
Continuous
 62
     7
370
    18
100
AcDbLine
 10
685.6566183559
 20
670.9435745811
 30
0.0
 11
689.656618356
 21
670.9435745811
 31
0.0
  0
LINE
  5
262
330
238
100
AcDbEntity
  8
0
  6
Continuous
 62
     7
370
    18
100
AcDbLine
 10
685.6566183559
 20
660.9435745811
 30
0.0
 11
689.656618356
 21
660.9435745811
 31
0.0
  0
LINE
  5
263
330
238
100
AcDbEntity
  8
0
  6
Continuous
 62
     7
370
    18
100
AcDbLine
 10
685.6566183559
 20
650.9435745811
 30
0.0
 11
689.656618356
 21
650.9435745811
 31
0.0
  0
LINE
  5
264
330
238
100
AcDbEntity
  8
0
  6
Continuous
 62
     7
370
    18
100
AcDbLine
 10
685.6566183559
 20
640.9435745811
 30
0.0
 11
689.656618356
 21
640.9435745811
 31
0.0
  0
LINE
  5
265
330
238
100
AcDbEntity
  8
0
  6
Continuous
 62
     7
370
    18
100
AcDbLine
 10
685.6566183559
 20
630.9435745811
 30
0.0
 11
689.656618356
 21
630.9435745811
 31
0.0
  0
LINE
  5
266
330
238
100
AcDbEntity
  8
0
  6
Continuous
 62
     7
370
    18
100
AcDbLine
 10
685.6566183559
 20
620.9435745811
 30
0.0
 11
689.656618356
 21
620.9435745811
 31
0.0
  0
LINE
  5
267
330
238
100
AcDbEntity
  8
0
  6
Continuous
 62
     7
370
    18
100
AcDbLine
 10
685.6566183559
 20
610.9435745811
 30
0.0
 11
689.656618356
 21
610.9435745811
 31
0.0
  0
LINE
  5
268
330
238
100
AcDbEntity
  8
0
  6
Continuous
 62
     7
370
    18
100
AcDbLine
 10
589.656618356
 20
793.9435745811
 30
0.0
 11
585.656618356
 21
793.9435745811
 31
0.0
  0
LINE
  5
269
330
238
100
AcDbEntity
  8
0
  6
Continuous
 62
     7
370
    18
100
AcDbLine
 10
589.656618356
 20
783.9435745811
 30
0.0
 11
585.656618356
 21
783.9435745811
 31
0.0
  0
LINE
  5
26A
330
238
100
AcDbEntity
  8
0
  6
Continuous
 62
     7
370
    18
100
AcDbLine
 10
585.656618356
 20
793.9435745811
 30
0.0
 11
585.656618356
 21
783.9435745811
 31
0.0
  0
LINE
  5
26B
330
238
100
AcDbEntity
  8
0
  6
Continuous
 62
     7
370
    18
100
AcDbLine
 10
689.656618356
 20
780.9435745811
 30
0.0
 11
689.656618356
 21
790.9435745811
 31
0.0
  0
LINE
  5
26C
330
238
100
AcDbEntity
  8
0
  6
Continuous
 62
     7
370
    18
100
AcDbLine
 10
589.656618356
 20
755.9435745811
 30
0.0
 11
589.656618356
 21
753.9435745811
 31
0.0
  0
LINE
  5
26D
330
238
100
AcDbEntity
  8
0
  6
Continuous
 62
     7
370
    18
100
AcDbLine
 10
685.6566183559
 20
780.9435745811
 30
0.0
 11
689.656618356
 21
780.9435745811
 31
0.0
  0
LINE
  5
26E
330
238
100
AcDbEntity
  8
0
  6
Continuous
 62
     7
370
    18
100
AcDbLine
 10
689.656618356
 20
793.9435745811
 30
0.0
 11
685.6566183559
 21
793.9435745811
 31
0.0
  0
LINE
  5
26F
330
238
100
AcDbEntity
  8
0
  6
Continuous
 62
     7
370
    18
100
AcDbLine
 10
585.656618356
 20
605.9435745811
 30
0.0
 11
585.656618356
 21
607.9435745811
 31
0.0
  0
LINE
  5
270
330
238
100
AcDbEntity
  8
0
  6
Continuous
 62
     7
370
    18
100
AcDbLine
 10
585.656618356
 20
645.9435745811
 30
0.0
 11
589.656618356
 21
645.9435745811
 31
0.0
  0
LINE
  5
271
330
238
100
AcDbEntity
  8
0
  6
Continuous
 62
     7
370
    18
100
AcDbLine
 10
689.656618356
 20
790.9435745811
 30
0.0
 11
689.656618356
 21
793.9435745811
 31
0.0
  0
LINE
  5
272
330
238
100
AcDbEntity
  8
0
  6
Continuous
 62
     7
370
    18
100
AcDbLine
 10
585.656618356
 20
773.9435745811
 30
0.0
 11
585.656618356
 21
763.9435745811
 31
0.0
  0
LINE
  5
273
330
238
100
AcDbEntity
  8
0
  6
Continuous
 62
     7
370
    18
100
AcDbLine
 10
585.656618356
 20
753.9435745811
 30
0.0
 11
585.656618356
 21
745.9435745811
 31
0.0
  0
LINE
  5
274
330
238
100
AcDbEntity
  8
0
  6
Continuous
 62
     7
370
    18
100
AcDbLine
 10
585.656618356
 20
753.9435745811
 30
0.0
 11
585.656618356
 21
745.9435745811
 31
0.0
  0
LINE
  5
275
330
238
100
AcDbEntity
  8
0
  6
Continuous
 62
     7
370
    18
100
AcDbLine
 10
589.656618356
 20
627.9435745811
 30
0.0
 11
585.656618356
 21
627.9435745811
 31
0.0
  0
LINE
  5
276
330
238
100
AcDbEntity
  8
0
  6
Continuous
 62
     7
370
    18
100
AcDbLine
 10
589.656618356
 20
637.9435745811
 30
0.0
 11
585.656618356
 21
637.9435745811
 31
0.0
  0
LINE
  5
277
330
238
100
AcDbEntity
  8
0
  6
Continuous
 62
     7
370
    18
100
AcDbLine
 10
589.656618356
 20
607.9435745811
 30
0.0
 11
589.656618356
 21
617.9435745811
 31
0.0
  0
LINE
  5
278
330
238
100
AcDbEntity
  8
0
  6
Continuous
 62
     7
370
    18
100
AcDbLine
 10
589.656618356
 20
627.9435745811
 30
0.0
 11
589.656618356
 21
637.9435745811
 31
0.0
  0
LINE
  5
279
330
238
100
AcDbEntity
  8
0
  6
Continuous
 62
     7
370
    18
100
AcDbLine
 10
599.656618356
 20
745.9435745811
 30
0.0
 11
609.656618356
 21
745.9435745811
 31
0.0
  0
LINE
  5
27A
330
238
100
AcDbEntity
  8
0
  6
Continuous
 62
     7
370
    18
100
AcDbLine
 10
589.656618356
 20
745.9435745811
 30
0.0
 11
589.656618356
 21
741.9435745811
 31
0.0
  0
LINE
  5
27B
330
238
100
AcDbEntity
  8
0
  6
Continuous
 62
     7
370
    18
100
AcDbLine
 10
599.656618356
 20
741.9435745811
 30
0.0
 11
609.656618356
 21
741.9435745811
 31
0.0
  0
LINE
  5
27C
330
238
100
AcDbEntity
  8
0
  6
Continuous
 62
     7
370
    18
100
AcDbLine
 10
671.656618356
 20
741.9435745811
 30
0.0
 11
671.656618356
 21
730.9435745811
 31
0.0
  0
LINE
  5
27D
330
238
100
AcDbEntity
  8
0
  6
Continuous
 62
     7
370
    18
100
AcDbLine
 10
599.656618356
 20
745.9435745811
 30
0.0
 11
599.656618356
 21
741.9435745811
 31
0.0
  0
LINE
  5
27E
330
238
100
AcDbEntity
  8
0
  6
Continuous
 62
     7
370
    18
100
AcDbLine
 10
609.656618356
 20
745.9435745811
 30
0.0
 11
609.656618356
 21
741.9435745811
 31
0.0
  0
LINE
  5
27F
330
238
100
AcDbEntity
  8
0
  6
Continuous
 62
     7
370
    18
100
AcDbLine
 10
619.656618356
 20
745.9435745811
 30
0.0
 11
619.656618356
 21
741.9435745811
 31
0.0
  0
LINE
  5
280
330
238
100
AcDbEntity
  8
0
  6
Continuous
 62
     7
370
    18
100
AcDbLine
 10
629.656618356
 20
745.9435745811
 30
0.0
 11
629.656618356
 21
741.9435745811
 31
0.0
  0
LINE
  5
281
330
238
100
AcDbEntity
  8
0
  6
Continuous
 62
     7
370
    18
100
AcDbLine
 10
639.656618356
 20
745.9435745811
 30
0.0
 11
639.656618356
 21
741.9435745811
 31
0.0
  0
LINE
  5
282
330
238
100
AcDbEntity
  8
0
  6
Continuous
 62
     7
370
    18
100
AcDbLine
 10
649.656618356
 20
745.9435745811
 30
0.0
 11
649.656618356
 21
741.9435745811
 31
0.0
  0
LINE
  5
283
330
238
100
AcDbEntity
  8
0
  6
Continuous
 62
     7
370
    18
100
AcDbLine
 10
659.656618356
 20
745.9435745811
 30
0.0
 11
659.656618356
 21
741.9435745811
 31
0.0
  0
LINE
  5
284
330
238
100
AcDbEntity
  8
0
  6
Continuous
 62
     7
370
    18
100
AcDbLine
 10
669.656618356
 20
745.9435745811
 30
0.0
 11
669.656618356
 21
741.9435745811
 31
0.0
  0
LINE
  5
285
330
238
100
AcDbEntity
  8
0
  6
Continuous
 62
     7
370
    18
100
AcDbLine
 10
669.656618356
 20
645.9435745811
 30
0.0
 11
669.656618356
 21
649.9435745811
 31
0.0
  0
LINE
  5
286
330
238
100
AcDbEntity
  8
0
  6
Continuous
 62
     7
370
    18
100
AcDbLine
 10
659.656618356
 20
645.9435745811
 30
0.0
 11
659.656618356
 21
649.9435745811
 31
0.0
  0
LINE
  5
287
330
238
100
AcDbEntity
  8
0
  6
Continuous
 62
     7
370
    18
100
AcDbLine
 10
649.656618356
 20
645.9435745811
 30
0.0
 11
649.656618356
 21
649.9435745811
 31
0.0
  0
LINE
  5
288
330
238
100
AcDbEntity
  8
0
  6
Continuous
 62
     7
370
    18
100
AcDbLine
 10
639.656618356
 20
645.9435745811
 30
0.0
 11
639.656618356
 21
649.9435745811
 31
0.0
  0
LINE
  5
289
330
238
100
AcDbEntity
  8
0
  6
Continuous
 62
     7
370
    18
100
AcDbLine
 10
629.656618356
 20
645.9435745811
 30
0.0
 11
629.656618356
 21
649.9435745811
 31
0.0
  0
LINE
  5
28A
330
238
100
AcDbEntity
  8
0
  6
Continuous
 62
     7
370
    18
100
AcDbLine
 10
619.656618356
 20
645.9435745811
 30
0.0
 11
619.656618356
 21
649.9435745811
 31
0.0
  0
LINE
  5
28B
330
238
100
AcDbEntity
  8
0
  6
Continuous
 62
     7
370
    18
100
AcDbLine
 10
609.656618356
 20
645.9435745811
 30
0.0
 11
609.656618356
 21
649.9435745811
 31
0.0
  0
LINE
  5
28C
330
238
100
AcDbEntity
  8
0
  6
Continuous
 62
     7
370
    18
100
AcDbLine
 10
599.656618356
 20
645.9435745811
 30
0.0
 11
599.656618356
 21
649.9435745811
 31
0.0
  0
LINE
  5
28D
330
238
100
AcDbEntity
  8
0
  6
Continuous
 62
     7
370
    18
100
AcDbLine
 10
599.656618356
 20
649.9435745811
 30
0.0
 11
609.656618356
 21
649.9435745811
 31
0.0
  0
LINE
  5
28E
330
238
100
AcDbEntity
  8
0
  6
Continuous
 62
     7
370
    18
100
AcDbLine
 10
599.656618356
 20
645.9435745811
 30
0.0
 11
609.656618356
 21
645.9435745811
 31
0.0
  0
LINE
  5
28F
330
238
100
AcDbEntity
  8
0
  6
Continuous
 62
     7
370
    18
100
AcDbLine
 10
589.656618356
 20
741.9435745811
 30
0.0
 11
589.656618356
 21
649.9435745811
 31
0.0
  0
LINE
  5
290
330
238
100
AcDbEntity
  8
0
  6
Continuous
 62
     7
370
    18
100
AcDbLine
 10
671.656618356
 20
720.9435745811
 30
0.0
 11
671.656618356
 21
710.9435745811
 31
0.0
  0
LINE
  5
291
330
238
100
AcDbEntity
  8
0
  6
Continuous
 62
     7
370
    18
100
AcDbLine
 10
671.656618356
 20
730.9435745811
 30
0.0
 11
675.656618356
 21
730.9435745811
 31
0.0
  0
LINE
  5
292
330
238
100
AcDbEntity
  8
0
  6
Continuous
 62
     7
370
    18
100
AcDbLine
 10
671.656618356
 20
720.9435745811
 30
0.0
 11
675.656618356
 21
720.9435745811
 31
0.0
  0
LINE
  5
293
330
238
100
AcDbEntity
  8
0
  6
Continuous
 62
     7
370
    18
100
AcDbLine
 10
671.656618356
 20
710.9435745811
 30
0.0
 11
675.656618356
 21
710.9435745811
 31
0.0
  0
LINE
  5
294
330
238
100
AcDbEntity
  8
0
  6
Continuous
 62
     7
370
    18
100
AcDbLine
 10
671.656618356
 20
700.9435745811
 30
0.0
 11
675.656618356
 21
700.9435745811
 31
0.0
  0
LINE
  5
295
330
238
100
AcDbEntity
  8
0
  6
Continuous
 62
     7
370
    18
100
AcDbLine
 10
671.656618356
 20
690.9435745811
 30
0.0
 11
675.656618356
 21
690.9435745811
 31
0.0
  0
LINE
  5
296
330
238
100
AcDbEntity
  8
0
  6
Continuous
 62
     7
370
    18
100
AcDbLine
 10
671.656618356
 20
680.9435745811
 30
0.0
 11
675.6566183558
 21
680.9435745811
 31
0.0
  0
LINE
  5
297
330
238
100
AcDbEntity
  8
0
  6
Continuous
 62
     7
370
    18
100
AcDbLine
 10
671.656618356
 20
670.9435745811
 30
0.0
 11
675.6566183558
 21
670.9435745811
 31
0.0
  0
LINE
  5
298
330
238
100
AcDbEntity
  8
0
  6
Continuous
 62
     7
370
    18
100
AcDbLine
 10
671.656618356
 20
660.9435745811
 30
0.0
 11
675.656618356
 21
660.9435745811
 31
0.0
  0
LINE
  5
299
330
238
100
AcDbEntity
  8
0
  6
Continuous
 62
     7
370
    18
100
AcDbLine
 10
619.656618356
 20
745.9435745811
 30
0.0
 11
629.656618356
 21
745.9435745811
 31
0.0
  0
LINE
  5
29A
330
238
100
AcDbEntity
  8
0
  6
Continuous
 62
     7
370
    18
100
AcDbLine
 10
589.656618356
 20
649.9435745811
 30
0.0
 11
589.656618356
 21
645.9435745811
 31
0.0
  0
LINE
  5
29B
330
238
100
AcDbEntity
  8
0
  6
Continuous
 62
     7
370
    18
100
AcDbLine
 10
619.656618356
 20
745.9435745811
 30
0.0
 11
625.656618356
 21
745.9435745811
 31
0.0
  0
LINE
  5
29C
330
238
100
AcDbEntity
  8
0
  6
Continuous
 62
     7
370
    18
100
AcDbLine
 10
671.656618356
 20
649.9435745811
 30
0.0
 11
675.656618356
 21
649.9435745811
 31
0.0
  0
LINE
  5
29D
330
238
100
AcDbEntity
  8
0
  6
Continuous
 62
     7
370
    18
100
AcDbLine
 10
671.656618356
 20
700.9435745811
 30
0.0
 11
671.656618356
 21
690.9435745811
 31
0.0
  0
LINE
  5
29E
330
238
100
AcDbEntity
  8
0
  6
Continuous
 62
     7
370
    18
100
AcDbLine
 10
675.656618356
 20
649.9435745811
 30
0.0
 11
675.656618356
 21
660.9435745811
 31
0.0
  0
LINE
  5
29F
330
238
100
AcDbEntity
  8
0
  6
Continuous
 62
     7
370
    18
100
AcDbLine
 10
671.656618356
 20
680.9435745811
 30
0.0
 11
671.656618356
 21
670.9435745811
 31
0.0
  0
LINE
  5
2A0
330
238
100
AcDbEntity
  8
0
  6
Continuous
 62
     7
370
    18
100
AcDbLine
 10
659.656618356
 20
649.9435745811
 30
0.0
 11
669.656618356
 21
649.9435745811
 31
0.0
  0
LINE
  5
2A1
330
238
100
AcDbEntity
  8
0
  6
Continuous
 62
     7
370
    18
100
AcDbLine
 10
671.656618356
 20
660.9435745811
 30
0.0
 11
671.656618356
 21
649.9435745811
 31
0.0
  0
LINE
  5
2A2
330
238
100
AcDbEntity
  8
0
  6
Continuous
 62
     7
370
    18
100
AcDbLine
 10
659.656618356
 20
645.9435745811
 30
0.0
 11
669.656618356
 21
645.9435745811
 31
0.0
  0
LINE
  5
2A3
330
238
100
AcDbEntity
  8
0
  6
Continuous
 62
     7
370
    18
100
AcDbLine
 10
619.656618356
 20
741.9435745811
 30
0.0
 11
629.656618356
 21
741.9435745811
 31
0.0
  0
LINE
  5
2A4
330
238
100
AcDbEntity
  8
0
  6
Continuous
 62
     7
370
    18
100
AcDbLine
 10
619.656618356
 20
745.9435745811
 30
0.0
 11
629.656618356
 21
745.9435745811
 31
0.0
  0
LINE
  5
2A5
330
238
100
AcDbEntity
  8
0
  6
Continuous
 62
     7
370
    18
100
AcDbLine
 10
639.656618356
 20
745.9435745811
 30
0.0
 11
649.656618356
 21
745.9435745811
 31
0.0
  0
LINE
  5
2A6
330
238
100
AcDbEntity
  8
0
  6
Continuous
 62
     7
370
    18
100
AcDbLine
 10
639.656618356
 20
741.9435745811
 30
0.0
 11
649.656618356
 21
741.9435745811
 31
0.0
  0
LINE
  5
2A7
330
238
100
AcDbEntity
  8
0
  6
Continuous
 62
     7
370
    18
100
AcDbLine
 10
639.656618356
 20
745.9435745811
 30
0.0
 11
649.656618356
 21
745.9435745811
 31
0.0
  0
LINE
  5
2A8
330
238
100
AcDbEntity
  8
0
  6
Continuous
 62
     7
370
    18
100
AcDbLine
 10
659.656618356
 20
745.9435745811
 30
0.0
 11
669.656618356
 21
745.9435745811
 31
0.0
  0
LINE
  5
2A9
330
238
100
AcDbEntity
  8
0
  6
Continuous
 62
     7
370
    18
100
AcDbLine
 10
659.656618356
 20
741.9435745811
 30
0.0
 11
669.656618356
 21
741.9435745811
 31
0.0
  0
LINE
  5
2AA
330
238
100
AcDbEntity
  8
0
  6
Continuous
 62
     7
370
    18
100
AcDbLine
 10
659.656618356
 20
745.9435745811
 30
0.0
 11
669.656618356
 21
745.9435745811
 31
0.0
  0
LINE
  5
2AB
330
238
100
AcDbEntity
  8
0
  6
Continuous
 62
     7
370
    18
100
AcDbLine
 10
671.656618356
 20
741.9435745811
 30
0.0
 11
675.656618356
 21
741.9435745811
 31
0.0
  0
LINE
  5
2AC
330
238
100
AcDbEntity
  8
0
  6
Continuous
 62
     7
370
    18
100
AcDbLine
 10
675.656618356
 20
741.9435745811
 30
0.0
 11
675.656618356
 21
730.9435745811
 31
0.0
  0
LINE
  5
2AD
330
238
100
AcDbEntity
  8
0
  6
Continuous
 62
     7
370
    18
100
AcDbLine
 10
675.656618356
 20
720.9435745811
 30
0.0
 11
675.656618356
 21
710.9435745811
 31
0.0
  0
LINE
  5
2AE
330
238
100
AcDbEntity
  8
0
  6
Continuous
 62
     7
370
    18
100
AcDbLine
 10
675.656618356
 20
700.9435745811
 30
0.0
 11
675.656618356
 21
690.9435745811
 31
0.0
  0
LINE
  5
2AF
330
238
100
AcDbEntity
  8
0
  6
Continuous
 62
     7
370
    18
100
AcDbLine
 10
675.6566183558
 20
680.9435745811
 30
0.0
 11
675.6566183558
 21
670.9435745811
 31
0.0
  0
LINE
  5
2B0
330
238
100
AcDbEntity
  8
0
  6
Continuous
 62
     7
370
    18
100
AcDbLine
 10
639.656618356
 20
649.9435745811
 30
0.0
 11
649.656618356
 21
649.9435745811
 31
0.0
  0
LINE
  5
2B1
330
238
100
AcDbEntity
  8
0
  6
Continuous
 62
     7
370
    18
100
AcDbLine
 10
639.656618356
 20
645.9435745811
 30
0.0
 11
649.656618356
 21
645.9435745811
 31
0.0
  0
LINE
  5
2B2
330
238
100
AcDbEntity
  8
0
  6
Continuous
 62
     7
370
    18
100
AcDbLine
 10
619.656618356
 20
649.9435745811
 30
0.0
 11
629.656618356
 21
649.9435745811
 31
0.0
  0
LINE
  5
2B3
330
238
100
AcDbEntity
  8
0
  6
Continuous
 62
     7
370
    18
100
AcDbLine
 10
619.656618356
 20
645.9435745811
 30
0.0
 11
629.656618356
 21
645.9435745811
 31
0.0
  0
LINE
  5
2B4
330
238
100
AcDbEntity
  8
0
  6
Continuous
 62
     7
370
    18
100
AcDbLine
 10
689.656618356
 20
610.9435745811
 30
0.0
 11
689.656618356
 21
600.9435745811
 31
0.0
  0
LINE
  5
2B5
330
238
100
AcDbEntity
  8
0
  6
Continuous
 62
     7
370
    18
100
AcDbLine
 10
685.6566183559
 20
620.9435745811
 30
0.0
 11
685.6566183559
 21
610.9435745811
 31
0.0
  0
LINE
  5
2B6
330
238
100
AcDbEntity
  8
0
  6
Continuous
 62
     7
370
    18
100
AcDbLine
 10
689.656618356
 20
630.9435745811
 30
0.0
 11
689.656618356
 21
620.9435745811
 31
0.0
  0
LINE
  5
2B7
330
238
100
AcDbEntity
  8
0
  6
Continuous
 62
     7
370
    18
100
AcDbLine
 10
685.6566183559
 20
640.9435745811
 30
0.0
 11
685.6566183559
 21
630.9435745811
 31
0.0
  0
LINE
  5
2B8
330
238
100
AcDbEntity
  8
0
  6
Continuous
 62
     7
370
    18
100
AcDbLine
 10
689.656618356
 20
650.9435745811
 30
0.0
 11
689.656618356
 21
640.9435745811
 31
0.0
  0
LINE
  5
2B9
330
238
100
AcDbEntity
  8
0
  6
Continuous
 62
     7
370
    18
100
AcDbLine
 10
685.6566183559
 20
660.9435745811
 30
0.0
 11
685.6566183559
 21
650.9435745811
 31
0.0
  0
LINE
  5
2BA
330
238
100
AcDbEntity
  8
0
  6
Continuous
 62
     7
370
    18
100
AcDbLine
 10
689.656618356
 20
670.9435745811
 30
0.0
 11
689.656618356
 21
660.9435745811
 31
0.0
  0
LINE
  5
2BB
330
238
100
AcDbEntity
  8
0
  6
Continuous
 62
     7
370
    18
100
AcDbLine
 10
685.6566183559
 20
680.9435745811
 30
0.0
 11
685.6566183559
 21
670.9435745811
 31
0.0
  0
LINE
  5
2BC
330
238
100
AcDbEntity
  8
0
  6
Continuous
 62
     7
370
    18
100
AcDbLine
 10
689.656618356
 20
690.9435745811
 30
0.0
 11
689.656618356
 21
680.9435745811
 31
0.0
  0
LINE
  5
2BD
330
238
100
AcDbEntity
  8
0
  6
Continuous
 62
     7
370
    18
100
AcDbLine
 10
589.656618356
 20
763.9435745811
 30
0.0
 11
589.656618356
 21
753.9435745811
 31
0.0
  0
LINE
  5
2BE
330
238
100
AcDbEntity
  8
0
  6
Continuous
 62
     7
370
    18
100
AcDbLine
 10
599.656618356
 20
745.9435745811
 30
0.0
 11
609.656618356
 21
745.9435745811
 31
0.0
  0
LINE
  5
2BF
330
238
100
AcDbEntity
  8
0
  6
Continuous
 62
     7
370
    18
100
AcDbLine
 10
685.6566183559
 20
700.9435745811
 30
0.0
 11
685.6566183559
 21
690.9435745811
 31
0.0
  0
LINE
  5
2C0
330
238
100
AcDbEntity
  8
0
  6
Continuous
 62
     7
370
    18
100
AcDbLine
 10
649.656618356
 20
643.4435745811
 30
0.0
 11
649.656618356
 21
638.4435745811
 31
0.0
  0
LINE
  5
2C1
330
238
100
AcDbEntity
  8
0
  6
Continuous
 62
     7
370
    18
100
AcDbLine
 10
649.656618356
 20
633.4435745811
 30
0.0
 11
649.656618356
 21
628.4435745811
 31
0.0
  0
LINE
  5
2C2
330
238
100
AcDbEntity
  8
0
  6
Continuous
 62
     7
370
    18
100
AcDbLine
 10
657.656618356
 20
643.4435745811
 30
0.0
 11
649.656618356
 21
643.4435745811
 31
0.0
  0
LINE
  5
2C3
330
238
100
AcDbEntity
  8
0
  6
Continuous
 62
     7
370
    18
100
AcDbLine
 10
657.656618356
 20
638.4435745811
 30
0.0
 11
649.656618356
 21
638.4435745811
 31
0.0
  0
LINE
  5
2C4
330
238
100
AcDbEntity
  8
0
  6
Continuous
 62
     7
370
    18
100
AcDbLine
 10
657.656618356
 20
633.4435745811
 30
0.0
 11
649.656618356
 21
633.4435745811
 31
0.0
  0
LINE
  5
2C5
330
238
100
AcDbEntity
  8
0
  6
Continuous
 62
     7
370
    18
100
AcDbLine
 10
657.656618356
 20
628.4435745811
 30
0.0
 11
649.656618356
 21
628.4435745811
 31
0.0
  0
LINE
  5
2C6
330
238
100
AcDbEntity
  8
0
  6
Continuous
 62
     7
370
    18
100
AcDbLine
 10
657.656618356
 20
623.4435745811
 30
0.0
 11
649.656618356
 21
623.4435745811
 31
0.0
  0
LINE
  5
2C7
330
238
100
AcDbEntity
  8
0
  6
Continuous
 62
     7
370
    18
100
AcDbLine
 10
657.656618356
 20
618.4435745811
 30
0.0
 11
649.656618356
 21
618.4435745811
 31
0.0
  0
LINE
  5
2C8
330
238
100
AcDbEntity
  8
0
  6
Continuous
 62
     7
370
    18
100
AcDbLine
 10
657.656618356
 20
613.4435745811
 30
0.0
 11
649.656618356
 21
613.4435745811
 31
0.0
  0
LINE
  5
2C9
330
238
100
AcDbEntity
  8
0
  6
Continuous
 62
     7
370
    18
100
AcDbLine
 10
657.656618356
 20
608.4435745811
 30
0.0
 11
649.656618356
 21
608.4435745811
 31
0.0
  0
LINE
  5
2CA
330
238
100
AcDbEntity
  8
0
  6
Continuous
 62
     7
370
    18
100
AcDbLine
 10
657.656618356
 20
638.4435745811
 30
0.0
 11
657.656618356
 21
643.4435745811
 31
0.0
  0
LINE
  5
2CB
330
238
100
AcDbEntity
  8
0
  6
Continuous
 62
     7
370
    18
100
AcDbLine
 10
649.656618356
 20
623.4435745811
 30
0.0
 11
649.656618356
 21
618.4435745811
 31
0.0
  0
LINE
  5
2CC
330
238
100
AcDbEntity
  8
0
  6
Continuous
 62
     7
370
    18
100
AcDbLine
 10
657.656618356
 20
628.4435745811
 30
0.0
 11
657.656618356
 21
633.4435745811
 31
0.0
  0
LINE
  5
2CD
330
238
100
AcDbEntity
  8
0
  6
Continuous
 62
     7
370
    18
100
AcDbLine
 10
649.656618356
 20
613.4435745811
 30
0.0
 11
649.656618356
 21
608.4435745811
 31
0.0
  0
LINE
  5
2CE
330
238
100
AcDbEntity
  8
0
  6
Continuous
 62
     7
370
    18
100
AcDbLine
 10
657.656618356
 20
618.4435745811
 30
0.0
 11
657.656618356
 21
623.4435745811
 31
0.0
  0
LINE
  5
2CF
330
238
100
AcDbEntity
  8
0
  6
Continuous
 62
     7
370
    18
100
AcDbLine
 10
657.656618356
 20
608.4435745811
 30
0.0
 11
657.656618356
 21
613.4435745811
 31
0.0
  0
LINE
  5
2D0
330
238
100
AcDbEntity
  8
0
  6
Continuous
 62
     7
370
    18
100
AcDbLine
 10
657.656618356
 20
783.4435745811
 30
0.0
 11
657.656618356
 21
778.4435745811
 31
0.0
  0
LINE
  5
2D1
330
238
100
AcDbEntity
  8
0
  6
Continuous
 62
     7
370
    18
100
AcDbLine
 10
657.656618356
 20
773.4435745811
 30
0.0
 11
657.656618356
 21
768.4435745811
 31
0.0
  0
LINE
  5
2D2
330
238
100
AcDbEntity
  8
0
  6
Continuous
 62
     7
370
    18
100
AcDbLine
 10
649.656618356
 20
778.4435745811
 30
0.0
 11
649.656618356
 21
783.4435745811
 31
0.0
  0
LINE
  5
2D3
330
238
100
AcDbEntity
  8
0
  6
Continuous
 62
     7
370
    18
100
AcDbLine
 10
657.656618356
 20
763.4435745811
 30
0.0
 11
657.656618356
 21
758.4435745811
 31
0.0
  0
LINE
  5
2D4
330
238
100
AcDbEntity
  8
0
  6
Continuous
 62
     7
370
    18
100
AcDbLine
 10
649.656618356
 20
768.4435745811
 30
0.0
 11
649.656618356
 21
773.4435745811
 31
0.0
  0
LINE
  5
2D5
330
238
100
AcDbEntity
  8
0
  6
Continuous
 62
     7
370
    18
100
AcDbLine
 10
657.656618356
 20
753.4435745811
 30
0.0
 11
657.656618356
 21
748.4435745811
 31
0.0
  0
LINE
  5
2D6
330
238
100
AcDbEntity
  8
0
  6
Continuous
 62
     7
370
    18
100
AcDbLine
 10
657.656618356
 20
783.4435745811
 30
0.0
 11
649.656618356
 21
783.4435745811
 31
0.0
  0
LINE
  5
2D7
330
238
100
AcDbEntity
  8
0
  6
Continuous
 62
     7
370
    18
100
AcDbLine
 10
657.656618356
 20
778.4435745811
 30
0.0
 11
649.656618356
 21
778.4435745811
 31
0.0
  0
LINE
  5
2D8
330
238
100
AcDbEntity
  8
0
  6
Continuous
 62
     7
370
    18
100
AcDbLine
 10
657.656618356
 20
773.4435745811
 30
0.0
 11
649.656618356
 21
773.4435745811
 31
0.0
  0
LINE
  5
2D9
330
238
100
AcDbEntity
  8
0
  6
Continuous
 62
     7
370
    18
100
AcDbLine
 10
657.656618356
 20
768.4435745811
 30
0.0
 11
649.656618356
 21
768.4435745811
 31
0.0
  0
LINE
  5
2DA
330
238
100
AcDbEntity
  8
0
  6
Continuous
 62
     7
370
    18
100
AcDbLine
 10
657.656618356
 20
763.4435745811
 30
0.0
 11
649.656618356
 21
763.4435745811
 31
0.0
  0
LINE
  5
2DB
330
238
100
AcDbEntity
  8
0
  6
Continuous
 62
     7
370
    18
100
AcDbLine
 10
657.656618356
 20
758.4435745811
 30
0.0
 11
649.656618356
 21
758.4435745811
 31
0.0
  0
LINE
  5
2DC
330
238
100
AcDbEntity
  8
0
  6
Continuous
 62
     7
370
    18
100
AcDbLine
 10
657.656618356
 20
753.4435745811
 30
0.0
 11
649.656618356
 21
753.4435745811
 31
0.0
  0
LINE
  5
2DD
330
238
100
AcDbEntity
  8
0
  6
Continuous
 62
     7
370
    18
100
AcDbLine
 10
657.656618356
 20
748.4435745811
 30
0.0
 11
649.656618356
 21
748.4435745811
 31
0.0
  0
LINE
  5
2DE
330
238
100
AcDbEntity
  8
0
  6
Continuous
 62
     7
370
    18
100
AcDbLine
 10
649.656618356
 20
758.4435745811
 30
0.0
 11
649.656618356
 21
763.4435745811
 31
0.0
  0
LINE
  5
2DF
330
238
100
AcDbEntity
  8
0
  6
Continuous
 62
     7
370
    18
100
AcDbLine
 10
649.656618356
 20
748.4435745811
 30
0.0
 11
649.656618356
 21
753.4435745811
 31
0.0
  0
LINE
  5
2E0
330
238
100
AcDbEntity
  8
0
  6
Continuous
 62
     7
370
    18
100
AcDbLine
 10
689.656618356
 20
710.9435745811
 30
0.0
 11
689.656618356
 21
700.9435745811
 31
0.0
  0
LINE
  5
2E1
330
238
100
AcDbEntity
  8
0
  6
Continuous
 62
     7
370
    18
100
AcDbLine
 10
685.6566183559
 20
720.9435745811
 30
0.0
 11
685.6566183559
 21
710.9435745811
 31
0.0
  0
LINE
  5
2E2
330
238
100
AcDbEntity
  8
0
  6
Continuous
 62
     7
370
    18
100
AcDbLine
 10
689.656618356
 20
730.9435745811
 30
0.0
 11
689.656618356
 21
720.9435745811
 31
0.0
  0
LINE
  5
2E3
330
238
100
AcDbEntity
  8
0
  6
Continuous
 62
     7
370
    18
100
AcDbLine
 10
685.6566183559
 20
740.9435745811
 30
0.0
 11
685.6566183559
 21
730.9435745811
 31
0.0
  0
LINE
  5
2E4
330
238
100
AcDbEntity
  8
0
  6
Continuous
 62
     7
370
    18
100
AcDbLine
 10
689.656618356
 20
750.9435745811
 30
0.0
 11
689.656618356
 21
740.9435745811
 31
0.0
  0
LINE
  5
2E5
330
238
100
AcDbEntity
  8
0
  6
Continuous
 62
     7
370
    18
100
AcDbLine
 10
685.656618356
 20
760.9435745811
 30
0.0
 11
685.656618356
 21
750.9435745811
 31
0.0
  0
LINE
  5
2E6
330
238
100
AcDbEntity
  8
0
  6
Continuous
 62
     7
370
    18
100
AcDbLine
 10
689.656618356
 20
770.9435745811
 30
0.0
 11
689.656618356
 21
760.9435745811
 31
0.0
  0
LINE
  5
2E7
330
238
100
AcDbEntity
  8
0
  6
Continuous
 62
     7
370
    18
100
AcDbLine
 10
685.6566183559
 20
780.9435745811
 30
0.0
 11
685.6566183559
 21
770.9435745811
 31
0.0
  0
LINE
  5
2E8
330
238
100
AcDbEntity
  8
0
  6
Continuous
 62
     7
370
    18
100
AcDbLine
 10
589.656618356
 20
783.9435745811
 30
0.0
 11
589.656618356
 21
773.9435745811
 31
0.0
  0
LINE
  5
2E9
330
238
100
AcDbEntity
  8
0
  6
Continuous
 62
     7
370
    18
100
AcDbLine
 10
589.656618356
 20
753.9435745811
 30
0.0
 11
585.656618356
 21
753.9435745811
 31
0.0
  0
LINE
  5
2EA
330
238
100
AcDbEntity
  8
0
  6
Continuous
 62
     7
370
    18
100
AcDbLine
 10
589.656618356
 20
763.9435745811
 30
0.0
 11
585.656618356
 21
763.9435745811
 31
0.0
  0
LINE
  5
2EB
330
238
100
AcDbEntity
  8
0
  6
Continuous
 62
     7
370
    18
100
AcDbLine
 10
585.656618356
 20
745.9435745811
 30
0.0
 11
589.656618356
 21
745.9435745811
 31
0.0
  0
LINE
  5
2EC
330
238
100
AcDbEntity
  8
0
  6
Continuous
 62
     7
370
    18
100
AcDbLine
 10
592.656618356
 20
593.9435745811
 30
0.0
 11
602.656618356
 21
593.9435745811
 31
0.0
  0
LINE
  5
2ED
330
238
100
AcDbEntity
  8
0
  6
Continuous
 62
     7
370
    18
100
AcDbLine
 10
589.656618356
 20
597.9435745811
 30
0.0
 11
585.656618356
 21
597.9435745811
 31
0.0
  0
LINE
  5
2EE
330
238
100
AcDbEntity
  8
0
  6
Continuous
 62
     7
370
    18
100
AcDbLine
 10
585.656618356
 20
597.9435745811
 30
0.0
 11
585.656618356
 21
607.9435745811
 31
0.0
  0
LINE
  5
2EF
330
238
100
AcDbEntity
  8
0
  6
Continuous
 62
     7
370
    18
100
AcDbLine
 10
602.656618356
 20
597.9435745811
 30
0.0
 11
602.656618356
 21
593.9435745811
 31
0.0
  0
LINE
  5
2F0
330
238
100
AcDbEntity
  8
0
  6
Continuous
 62
     7
370
    18
100
AcDbLine
 10
612.656618356
 20
597.9435745811
 30
0.0
 11
612.656618356
 21
593.9435745811
 31
0.0
  0
LINE
  5
2F1
330
238
100
AcDbEntity
  8
0
  6
Continuous
 62
     7
370
    18
100
AcDbLine
 10
622.656618356
 20
597.9435745811
 30
0.0
 11
622.656618356
 21
593.9435745811
 31
0.0
  0
LINE
  5
2F2
330
238
100
AcDbEntity
  8
0
  6
Continuous
 62
     7
370
    18
100
AcDbLine
 10
632.656618356
 20
597.9435745811
 30
0.0
 11
632.656618356
 21
593.9435745811
 31
0.0
  0
LINE
  5
2F3
330
238
100
AcDbEntity
  8
0
  6
Continuous
 62
     7
370
    18
100
AcDbLine
 10
642.656618356
 20
597.9435745811
 30
0.0
 11
642.656618356
 21
593.9435745811
 31
0.0
  0
LINE
  5
2F4
330
238
100
AcDbEntity
  8
0
  6
Continuous
 62
     7
370
    18
100
AcDbLine
 10
652.656618356
 20
597.9435745811
 30
0.0
 11
652.656618356
 21
593.9435745811
 31
0.0
  0
LINE
  5
2F5
330
238
100
AcDbEntity
  8
0
  6
Continuous
 62
     7
370
    18
100
AcDbLine
 10
662.656618356
 20
597.9435745811
 30
0.0
 11
662.656618356
 21
593.9435745811
 31
0.0
  0
LINE
  5
2F6
330
238
100
AcDbEntity
  8
0
  6
Continuous
 62
     7
370
    18
100
AcDbLine
 10
672.656618356
 20
597.9435745811
 30
0.0
 11
672.656618356
 21
593.9435745811
 31
0.0
  0
LINE
  5
2F7
330
238
100
AcDbEntity
  8
0
  6
Continuous
 62
     7
370
    18
100
AcDbLine
 10
592.656618356
 20
593.9435745811
 30
0.0
 11
589.656618356
 21
593.9435745811
 31
0.0
  0
LINE
  5
2F8
330
238
100
AcDbEntity
  8
0
  6
Continuous
 62
     7
370
    18
100
AcDbLine
 10
612.656618356
 20
593.9435745811
 30
0.0
 11
622.656618356
 21
593.9435745811
 31
0.0
  0
LINE
  5
2F9
330
238
100
AcDbEntity
  8
0
  6
Continuous
 62
     7
370
    18
100
AcDbLine
 10
612.656618356
 20
597.9435745811
 30
0.0
 11
602.656618356
 21
597.9435745811
 31
0.0
  0
LINE
  5
2FA
330
238
100
AcDbEntity
  8
0
  6
Continuous
 62
     7
370
    18
100
AcDbLine
 10
632.656618356
 20
593.9435745811
 30
0.0
 11
642.656618356
 21
593.9435745811
 31
0.0
  0
LINE
  5
2FB
330
238
100
AcDbEntity
  8
0
  6
Continuous
 62
     7
370
    18
100
AcDbLine
 10
632.656618356
 20
597.9435745811
 30
0.0
 11
622.656618356
 21
597.9435745811
 31
0.0
  0
LINE
  5
2FC
330
238
100
AcDbEntity
  8
0
  6
Continuous
 62
     7
370
    18
100
AcDbLine
 10
652.656618356
 20
593.9435745811
 30
0.0
 11
662.656618356
 21
593.9435745811
 31
0.0
  0
LINE
  5
2FD
330
238
100
AcDbEntity
  8
0
  6
Continuous
 62
     7
370
    18
100
AcDbLine
 10
652.656618356
 20
597.9435745811
 30
0.0
 11
642.656618356
 21
597.9435745811
 31
0.0
  0
LINE
  5
2FE
330
238
100
AcDbEntity
  8
0
  6
Continuous
 62
     7
370
    18
100
AcDbLine
 10
672.656618356
 20
593.9435745811
 30
0.0
 11
682.656618356
 21
593.9435745811
 31
0.0
  0
LINE
  5
2FF
330
238
100
AcDbEntity
  8
0
  6
Continuous
 62
     7
370
    18
100
AcDbLine
 10
672.656618356
 20
597.9435745811
 30
0.0
 11
662.656618356
 21
597.9435745811
 31
0.0
  0
LINE
  5
300
330
238
100
AcDbEntity
  8
0
  6
Continuous
 62
     7
370
    18
100
AcDbLine
 10
682.656618356
 20
593.9435745811
 30
0.0
 11
685.6566183559
 21
593.9435745811
 31
0.0
  0
LINE
  5
301
330
238
100
AcDbEntity
  8
0
  6
Continuous
 62
     7
370
    18
100
AcDbLine
 10
685.6566183559
 20
593.9435745811
 30
0.0
 11
685.6566183559
 21
597.9435745811
 31
0.0
  0
LINE
  5
302
330
238
100
AcDbEntity
  8
0
  6
Continuous
 62
     7
370
    18
100
AcDbLine
 10
589.656618356
 20
593.9435745811
 30
0.0
 11
589.656618356
 21
597.9435745811
 31
0.0
  0
LINE
  5
303
330
238
100
AcDbEntity
  8
0
  6
Continuous
 62
     7
370
    18
100
AcDbLine
 10
585.656618356
 20
637.9435745811
 30
0.0
 11
585.656618356
 21
645.9435745811
 31
0.0
  0
LINE
  5
304
330
238
100
AcDbEntity
  8
0
  6
Continuous
 62
     7
370
    18
100
AcDbLine
 10
585.656618356
 20
637.9435745811
 30
0.0
 11
585.656618356
 21
645.9435745811
 31
0.0
  0
LINE
  5
305
330
238
100
AcDbEntity
  8
0
  6
Continuous
 62
     7
370
    18
100
AcDbLine
 10
585.656618356
 20
617.9435745811
 30
0.0
 11
585.656618356
 21
627.9435745811
 31
0.0
  0
LINE
  5
306
330
238
100
AcDbEntity
  8
0
  6
Continuous
 62
     7
370
    18
100
AcDbLine
 10
589.656618356
 20
773.9435745811
 30
0.0
 11
585.656618356
 21
773.9435745811
 31
0.0
  0
LINE
  5
307
330
238
100
AcDbEntity
  8
0
  6
Continuous
 62
     7
370
    18
100
AcDbLine
 10
585.656618356
 20
765.9435745811
 30
0.0
 11
585.656618356
 21
763.9435745811
 31
0.0
  0
ENDBLK
  5
23A
330
238
100
AcDbEntity
  8
0
100
AcDbBlockEnd
  0
BLOCK
  5
309
330
308
100
AcDbEntity
  8
0
100
AcDbBlockBegin
  2
Block28
 70
     0
 10
0.0
 20
0.0
 30
0.0
  3
Block28
  1

  0
LINE
  5
30B
330
308
100
AcDbEntity
  8
0
  6
Continuous
 62
     7
370
    18
100
AcDbLine
 10
268.3778939312
 20
675.3763387511
 30
0.0
 11
270.3778939312
 21
675.3763387511
 31
0.0
  0
LINE
  5
30C
330
308
100
AcDbEntity
  8
0
  6
Continuous
 62
     7
370
    18
100
AcDbLine
 10
208.3778939312
 20
675.3763387511
 30
0.0
 11
210.3778939312
 21
675.3763387511
 31
0.0
  0
LINE
  5
30D
330
308
100
AcDbEntity
  8
0
  6
Continuous
 62
     7
370
    18
100
AcDbLine
 10
256.3778939312
 20
695.3763387511
 30
0.0
 11
256.3778939312
 21
685.3763387511
 31
0.0
  0
LINE
  5
30E
330
308
100
AcDbEntity
  8
0
  6
Continuous
 62
     7
370
    18
100
AcDbLine
 10
248.3778939312
 20
705.3763387511
 30
0.0
 11
248.3778939312
 21
715.3763387511
 31
0.0
  0
LINE
  5
30F
330
308
100
AcDbEntity
  8
0
  6
Continuous
 62
     7
370
    18
100
AcDbLine
 10
256.3778939312
 20
715.3763387511
 30
0.0
 11
256.3778939312
 21
705.3763387511
 31
0.0
  0
LINE
  5
310
330
308
100
AcDbEntity
  8
0
  6
Continuous
 62
     7
370
    18
100
AcDbLine
 10
248.3778939312
 20
725.3763387511
 30
0.0
 11
248.3778939312
 21
735.3763387511
 31
0.0
  0
LINE
  5
311
330
308
100
AcDbEntity
  8
0
  6
Continuous
 62
     7
370
    18
100
AcDbLine
 10
256.3778939312
 20
735.3763387511
 30
0.0
 11
256.3778939312
 21
725.3763387511
 31
0.0
  0
LINE
  5
312
330
308
100
AcDbEntity
  8
0
  6
Continuous
 62
     7
370
    18
100
AcDbLine
 10
248.3778939312
 20
745.3763387511
 30
0.0
 11
248.3778939312
 21
755.3763387511
 31
0.0
  0
LINE
  5
313
330
308
100
AcDbEntity
  8
0
  6
Continuous
 62
     7
370
    18
100
AcDbLine
 10
256.3778939312
 20
755.3763387511
 30
0.0
 11
248.3778939312
 21
755.3763387511
 31
0.0
  0
LINE
  5
314
330
308
100
AcDbEntity
  8
0
  6
Continuous
 62
     7
370
    18
100
AcDbLine
 10
256.3778939312
 20
745.3763387511
 30
0.0
 11
248.3778939312
 21
745.3763387511
 31
0.0
  0
LINE
  5
315
330
308
100
AcDbEntity
  8
0
  6
Continuous
 62
     7
370
    18
100
AcDbLine
 10
256.3778939312
 20
735.3763387511
 30
0.0
 11
248.3778939312
 21
735.3763387511
 31
0.0
  0
LINE
  5
316
330
308
100
AcDbEntity
  8
0
  6
Continuous
 62
     7
370
    18
100
AcDbLine
 10
256.3778939312
 20
725.3763387511
 30
0.0
 11
248.3778939312
 21
725.3763387511
 31
0.0
  0
LINE
  5
317
330
308
100
AcDbEntity
  8
0
  6
Continuous
 62
     7
370
    18
100
AcDbLine
 10
256.3778939312
 20
715.3763387511
 30
0.0
 11
248.3778939312
 21
715.3763387511
 31
0.0
  0
LINE
  5
318
330
308
100
AcDbEntity
  8
0
  6
Continuous
 62
     7
370
    18
100
AcDbLine
 10
256.3778939312
 20
705.3763387511
 30
0.0
 11
248.3778939312
 21
705.3763387511
 31
0.0
  0
LINE
  5
319
330
308
100
AcDbEntity
  8
0
  6
Continuous
 62
     7
370
    18
100
AcDbLine
 10
256.3778939312
 20
695.3763387511
 30
0.0
 11
248.3778939312
 21
695.3763387511
 31
0.0
  0
LINE
  5
31A
330
308
100
AcDbEntity
  8
0
  6
Continuous
 62
     7
370
    18
100
AcDbLine
 10
188.3778939312
 20
675.3763387511
 30
0.0
 11
198.3778939312
 21
675.3763387511
 31
0.0
  0
LINE
  5
31B
330
308
100
AcDbEntity
  8
0
  6
Continuous
 62
     7
370
    18
100
AcDbLine
 10
270.3778939312
 20
675.3763387511
 30
0.0
 11
270.3778939312
 21
685.3763387511
 31
0.0
  0
LINE
  5
31C
330
308
100
AcDbEntity
  8
0
  6
Continuous
 62
     7
370
    18
100
AcDbLine
 10
270.3778939312
 20
775.3763387511
 30
0.0
 11
188.3778939312
 21
775.3763387511
 31
0.0
  0
LINE
  5
31D
330
308
100
AcDbEntity
  8
0
  6
Continuous
 62
     7
370
    18
100
AcDbLine
 10
270.3778939312
 20
695.3763387511
 30
0.0
 11
270.3778939312
 21
705.3763387511
 31
0.0
  0
LINE
  5
31E
330
308
100
AcDbEntity
  8
0
  6
Continuous
 62
     7
370
    18
100
AcDbLine
 10
268.3778939312
 20
671.3763387511
 30
0.0
 11
258.3778939312
 21
671.3763387511
 31
0.0
  0
LINE
  5
31F
330
308
100
AcDbEntity
  8
0
  6
Continuous
 62
     7
370
    18
100
AcDbLine
 10
208.3778939312
 20
671.3763387511
 30
0.0
 11
198.3778939312
 21
671.3763387511
 31
0.0
  0
LINE
  5
320
330
308
100
AcDbEntity
  8
0
  6
Continuous
 62
     7
370
    18
100
AcDbLine
 10
274.3778939312
 20
705.3763387511
 30
0.0
 11
274.3778939312
 21
715.3763387511
 31
0.0
  0
LINE
  5
321
330
308
100
AcDbEntity
  8
0
  6
Continuous
 62
     7
370
    18
100
AcDbLine
 10
274.3778939312
 20
685.3763387511
 30
0.0
 11
274.3778939312
 21
695.3763387511
 31
0.0
  0
LINE
  5
322
330
308
100
AcDbEntity
  8
0
  6
Continuous
 62
     7
370
    18
100
AcDbLine
 10
274.3778939312
 20
775.3763387511
 30
0.0
 11
270.3778939312
 21
775.3763387511
 31
0.0
  0
LINE
  5
323
330
308
100
AcDbEntity
  8
0
  6
Continuous
 62
     7
370
    18
100
AcDbLine
 10
198.3778939312
 20
671.3763387511
 30
0.0
 11
198.3778939312
 21
675.3763387511
 31
0.0
  0
LINE
  5
324
330
308
100
AcDbEntity
  8
0
  6
Continuous
 62
     7
370
    18
100
AcDbLine
 10
208.3778939312
 20
671.3763387511
 30
0.0
 11
208.3778939312
 21
675.3763387511
 31
0.0
  0
LINE
  5
325
330
308
100
AcDbEntity
  8
0
  6
Continuous
 62
     7
370
    18
100
AcDbLine
 10
218.3778939312
 20
671.3763387511
 30
0.0
 11
218.3778939312
 21
675.3763387511
 31
0.0
  0
LINE
  5
326
330
308
100
AcDbEntity
  8
0
  6
Continuous
 62
     7
370
    18
100
AcDbLine
 10
228.3778939312
 20
671.3763387511
 30
0.0
 11
228.3778939312
 21
675.3763387511
 31
0.0
  0
LINE
  5
327
330
308
100
AcDbEntity
  8
0
  6
Continuous
 62
     7
370
    18
100
AcDbLine
 10
238.3778939312
 20
671.3763387511
 30
0.0
 11
238.3778939312
 21
675.3763387511
 31
0.0
  0
LINE
  5
328
330
308
100
AcDbEntity
  8
0
  6
Continuous
 62
     7
370
    18
100
AcDbLine
 10
248.3778939312
 20
671.3763387511
 30
0.0
 11
248.3778939312
 21
675.3763387511
 31
0.0
  0
LINE
  5
329
330
308
100
AcDbEntity
  8
0
  6
Continuous
 62
     7
370
    18
100
AcDbLine
 10
258.3778939312
 20
671.3763387511
 30
0.0
 11
258.3778939312
 21
675.3763387511
 31
0.0
  0
LINE
  5
32A
330
308
100
AcDbEntity
  8
0
  6
Continuous
 62
     7
370
    18
100
AcDbLine
 10
268.3778939312
 20
671.3763387511
 30
0.0
 11
268.3778939312
 21
675.3763387511
 31
0.0
  0
LINE
  5
32B
330
308
100
AcDbEntity
  8
0
  6
Continuous
 62
     7
370
    18
100
AcDbLine
 10
270.3778939312
 20
685.3763387511
 30
0.0
 11
274.3778939312
 21
685.3763387511
 31
0.0
  0
LINE
  5
32C
330
308
100
AcDbEntity
  8
0
  6
Continuous
 62
     7
370
    18
100
AcDbLine
 10
270.3778939312
 20
695.3763387511
 30
0.0
 11
274.3778939312
 21
695.3763387511
 31
0.0
  0
LINE
  5
32D
330
308
100
AcDbEntity
  8
0
  6
Continuous
 62
     7
370
    18
100
AcDbLine
 10
270.3778939312
 20
705.3763387511
 30
0.0
 11
274.3778939312
 21
705.3763387511
 31
0.0
  0
LINE
  5
32E
330
308
100
AcDbEntity
  8
0
  6
Continuous
 62
     7
370
    18
100
AcDbLine
 10
270.3778939312
 20
715.3763387511
 30
0.0
 11
274.3778939312
 21
715.3763387511
 31
0.0
  0
LINE
  5
32F
330
308
100
AcDbEntity
  8
0
  6
Continuous
 62
     7
370
    18
100
AcDbLine
 10
270.3778939312
 20
725.3763387511
 30
0.0
 11
274.3778939312
 21
725.3763387511
 31
0.0
  0
LINE
  5
330
330
308
100
AcDbEntity
  8
0
  6
Continuous
 62
     7
370
    18
100
AcDbLine
 10
270.3778939312
 20
735.3763387511
 30
0.0
 11
274.3778939312
 21
735.3763387511
 31
0.0
  0
LINE
  5
331
330
308
100
AcDbEntity
  8
0
  6
Continuous
 62
     7
370
    18
100
AcDbLine
 10
270.3778939312
 20
745.3763387511
 30
0.0
 11
274.3778939312
 21
745.3763387511
 31
0.0
  0
LINE
  5
332
330
308
100
AcDbEntity
  8
0
  6
Continuous
 62
     7
370
    18
100
AcDbLine
 10
270.3778939312
 20
755.3763387511
 30
0.0
 11
274.3778939312
 21
755.3763387511
 31
0.0
  0
LINE
  5
333
330
308
100
AcDbEntity
  8
0
  6
Continuous
 62
     7
370
    18
100
AcDbLine
 10
270.3778939312
 20
765.3763387511
 30
0.0
 11
274.3778939312
 21
765.3763387511
 31
0.0
  0
LINE
  5
334
330
308
100
AcDbEntity
  8
0
  6
Continuous
 62
     7
370
    18
100
AcDbLine
 10
270.3778939312
 20
685.3763387511
 30
0.0
 11
274.3778939312
 21
685.3763387511
 31
0.0
  0
LINE
  5
335
330
308
100
AcDbEntity
  8
0
  6
Continuous
 62
     7
370
    18
100
AcDbLine
 10
184.3778939312
 20
685.3763387511
 30
0.0
 11
188.3778939312
 21
685.3763387511
 31
0.0
  0
LINE
  5
336
330
308
100
AcDbEntity
  8
0
  6
Continuous
 62
     7
370
    18
100
AcDbLine
 10
270.3778939312
 20
695.3763387511
 30
0.0
 11
274.3778939312
 21
695.3763387511
 31
0.0
  0
LINE
  5
337
330
308
100
AcDbEntity
  8
0
  6
Continuous
 62
     7
370
    18
100
AcDbLine
 10
184.3778939312
 20
695.3763387511
 30
0.0
 11
188.3778939312
 21
695.3763387511
 31
0.0
  0
LINE
  5
338
330
308
100
AcDbEntity
  8
0
  6
Continuous
 62
     7
370
    18
100
AcDbLine
 10
270.3778939312
 20
705.3763387511
 30
0.0
 11
274.3778939312
 21
705.3763387511
 31
0.0
  0
LINE
  5
339
330
308
100
AcDbEntity
  8
0
  6
Continuous
 62
     7
370
    18
100
AcDbLine
 10
184.3778939312
 20
705.3763387511
 30
0.0
 11
188.3778939312
 21
705.3763387511
 31
0.0
  0
LINE
  5
33A
330
308
100
AcDbEntity
  8
0
  6
Continuous
 62
     7
370
    18
100
AcDbLine
 10
270.3778939312
 20
715.3763387511
 30
0.0
 11
274.3778939312
 21
715.3763387511
 31
0.0
  0
LINE
  5
33B
330
308
100
AcDbEntity
  8
0
  6
Continuous
 62
     7
370
    18
100
AcDbLine
 10
184.3778939312
 20
715.3763387511
 30
0.0
 11
188.3778939312
 21
715.3763387511
 31
0.0
  0
LINE
  5
33C
330
308
100
AcDbEntity
  8
0
  6
Continuous
 62
     7
370
    18
100
AcDbLine
 10
270.3778939312
 20
725.3763387511
 30
0.0
 11
274.3778939312
 21
725.3763387511
 31
0.0
  0
LINE
  5
33D
330
308
100
AcDbEntity
  8
0
  6
Continuous
 62
     7
370
    18
100
AcDbLine
 10
184.3778939312
 20
725.3763387511
 30
0.0
 11
188.3778939312
 21
725.3763387511
 31
0.0
  0
LINE
  5
33E
330
308
100
AcDbEntity
  8
0
  6
Continuous
 62
     7
370
    18
100
AcDbLine
 10
270.3778939312
 20
735.3763387511
 30
0.0
 11
274.3778939312
 21
735.3763387511
 31
0.0
  0
LINE
  5
33F
330
308
100
AcDbEntity
  8
0
  6
Continuous
 62
     7
370
    18
100
AcDbLine
 10
184.3778939312
 20
735.3763387511
 30
0.0
 11
188.3778939312
 21
735.3763387511
 31
0.0
  0
LINE
  5
340
330
308
100
AcDbEntity
  8
0
  6
Continuous
 62
     7
370
    18
100
AcDbLine
 10
270.3778939312
 20
745.3763387511
 30
0.0
 11
274.3778939312
 21
745.3763387511
 31
0.0
  0
LINE
  5
341
330
308
100
AcDbEntity
  8
0
  6
Continuous
 62
     7
370
    18
100
AcDbLine
 10
184.3778939312
 20
745.3763387511
 30
0.0
 11
188.3778939312
 21
745.3763387511
 31
0.0
  0
LINE
  5
342
330
308
100
AcDbEntity
  8
0
  6
Continuous
 62
     7
370
    18
100
AcDbLine
 10
270.3778939312
 20
755.3763387511
 30
0.0
 11
274.3778939312
 21
755.3763387511
 31
0.0
  0
LINE
  5
343
330
308
100
AcDbEntity
  8
0
  6
Continuous
 62
     7
370
    18
100
AcDbLine
 10
184.3778939312
 20
755.3763387511
 30
0.0
 11
188.3778939312
 21
755.3763387511
 31
0.0
  0
LINE
  5
344
330
308
100
AcDbEntity
  8
0
  6
Continuous
 62
     7
370
    18
100
AcDbLine
 10
270.3778939312
 20
765.3763387511
 30
0.0
 11
274.3778939312
 21
765.3763387511
 31
0.0
  0
LINE
  5
345
330
308
100
AcDbEntity
  8
0
  6
Continuous
 62
     7
370
    18
100
AcDbLine
 10
184.3778939312
 20
765.3763387511
 30
0.0
 11
188.3778939312
 21
765.3763387511
 31
0.0
  0
LINE
  5
346
330
308
100
AcDbEntity
  8
0
  6
Continuous
 62
     7
370
    18
100
AcDbLine
 10
228.3778939312
 20
675.3763387511
 30
0.0
 11
238.3778939312
 21
675.3763387511
 31
0.0
  0
LINE
  5
347
330
308
100
AcDbEntity
  8
0
  6
Continuous
 62
     7
370
    18
100
AcDbLine
 10
208.3778939312
 20
675.3763387511
 30
0.0
 11
218.3778939312
 21
675.3763387511
 31
0.0
  0
LINE
  5
348
330
308
100
AcDbEntity
  8
0
  6
Continuous
 62
     7
370
    18
100
AcDbLine
 10
228.3778939312
 20
671.3763387511
 30
0.0
 11
218.3778939312
 21
671.3763387511
 31
0.0
  0
LINE
  5
349
330
308
100
AcDbEntity
  8
0
  6
Continuous
 62
     7
370
    18
100
AcDbLine
 10
248.3778939312
 20
675.3763387511
 30
0.0
 11
258.3778939312
 21
675.3763387511
 31
0.0
  0
LINE
  5
34A
330
308
100
AcDbEntity
  8
0
  6
Continuous
 62
     7
370
    18
100
AcDbLine
 10
248.3778939312
 20
671.3763387511
 30
0.0
 11
238.3778939312
 21
671.3763387511
 31
0.0
  0
LINE
  5
34B
330
308
100
AcDbEntity
  8
0
  6
Continuous
 62
     7
370
    18
100
AcDbLine
 10
268.3778939312
 20
675.3763387511
 30
0.0
 11
270.3778939312
 21
675.3763387511
 31
0.0
  0
LINE
  5
34C
330
308
100
AcDbEntity
  8
0
  6
Continuous
 62
     7
370
    18
100
AcDbLine
 10
270.3778939312
 20
715.3763387511
 30
0.0
 11
270.3778939312
 21
725.3763387511
 31
0.0
  0
LINE
  5
34D
330
308
100
AcDbEntity
  8
0
  6
Continuous
 62
     7
370
    18
100
AcDbLine
 10
274.3778939312
 20
725.3763387511
 30
0.0
 11
274.3778939312
 21
735.3763387511
 31
0.0
  0
LINE
  5
34E
330
308
100
AcDbEntity
  8
0
  6
Continuous
 62
     7
370
    18
100
AcDbLine
 10
270.3778939312
 20
735.3763387511
 30
0.0
 11
270.3778939312
 21
745.3763387511
 31
0.0
  0
LINE
  5
34F
330
308
100
AcDbEntity
  8
0
  6
Continuous
 62
     7
370
    18
100
AcDbLine
 10
274.3778939312
 20
745.3763387511
 30
0.0
 11
274.3778939312
 21
755.3763387511
 31
0.0
  0
LINE
  5
350
330
308
100
AcDbEntity
  8
0
  6
Continuous
 62
     7
370
    18
100
AcDbLine
 10
270.3778939312
 20
755.3763387511
 30
0.0
 11
270.3778939312
 21
765.3763387511
 31
0.0
  0
LINE
  5
351
330
308
100
AcDbEntity
  8
0
  6
Continuous
 62
     7
370
    18
100
AcDbLine
 10
274.3778939312
 20
765.3763387511
 30
0.0
 11
274.3778939312
 21
775.3763387511
 31
0.0
  0
LINE
  5
352
330
308
100
AcDbEntity
  8
0
  6
Continuous
 62
     7
370
    18
100
AcDbLine
 10
184.3778939312
 20
765.3763387511
 30
0.0
 11
188.3778939312
 21
765.3763387511
 31
0.0
  0
LINE
  5
353
330
308
100
AcDbEntity
  8
0
  6
Continuous
 62
     7
370
    18
100
AcDbLine
 10
208.3778939312
 20
675.3763387511
 30
0.0
 11
210.3778939312
 21
675.3763387511
 31
0.0
  0
LINE
  5
354
330
308
100
AcDbEntity
  8
0
  6
Continuous
 62
     7
370
    18
100
AcDbLine
 10
210.3778939312
 20
775.3763387511
 30
0.0
 11
202.3778939312
 21
775.3763387511
 31
0.0
  0
LINE
  5
355
330
308
100
AcDbEntity
  8
0
  6
Continuous
 62
     7
370
    18
100
AcDbLine
 10
188.3778939312
 20
775.3763387511
 30
0.0
 11
184.3778939312
 21
775.3763387511
 31
0.0
  0
LINE
  5
356
330
308
100
AcDbEntity
  8
0
  6
Continuous
 62
     7
370
    18
100
AcDbLine
 10
184.3778939312
 20
775.3763387511
 30
0.0
 11
184.3778939312
 21
765.3763387511
 31
0.0
  0
LINE
  5
357
330
308
100
AcDbEntity
  8
0
  6
Continuous
 62
     7
370
    18
100
AcDbLine
 10
184.3778939312
 20
755.3763387511
 30
0.0
 11
184.3778939312
 21
745.3763387511
 31
0.0
  0
LINE
  5
358
330
308
100
AcDbEntity
  8
0
  6
Continuous
 62
     7
370
    18
100
AcDbLine
 10
184.3778939312
 20
735.3763387511
 30
0.0
 11
184.3778939312
 21
725.3763387511
 31
0.0
  0
LINE
  5
359
330
308
100
AcDbEntity
  8
0
  6
Continuous
 62
     7
370
    18
100
AcDbLine
 10
184.3778939312
 20
715.3763387511
 30
0.0
 11
184.3778939312
 21
705.3763387511
 31
0.0
  0
LINE
  5
35A
330
308
100
AcDbEntity
  8
0
  6
Continuous
 62
     7
370
    18
100
AcDbLine
 10
184.3778939312
 20
695.3763387511
 30
0.0
 11
184.3778939312
 21
685.3763387511
 31
0.0
  0
LINE
  5
35B
330
308
100
AcDbEntity
  8
0
  6
Continuous
 62
     7
370
    18
100
AcDbLine
 10
188.3778939312
 20
675.3763387511
 30
0.0
 11
188.3778939312
 21
685.3763387511
 31
0.0
  0
LINE
  5
35C
330
308
100
AcDbEntity
  8
0
  6
Continuous
 62
     7
370
    18
100
AcDbLine
 10
188.3778939312
 20
695.3763387511
 30
0.0
 11
188.3778939312
 21
705.3763387511
 31
0.0
  0
LINE
  5
35D
330
308
100
AcDbEntity
  8
0
  6
Continuous
 62
     7
370
    18
100
AcDbLine
 10
188.3778939312
 20
715.3763387511
 30
0.0
 11
188.3778939312
 21
725.3763387511
 31
0.0
  0
LINE
  5
35E
330
308
100
AcDbEntity
  8
0
  6
Continuous
 62
     7
370
    18
100
AcDbLine
 10
188.3778939312
 20
735.3763387511
 30
0.0
 11
188.3778939312
 21
745.3763387511
 31
0.0
  0
LINE
  5
35F
330
308
100
AcDbEntity
  8
0
  6
Continuous
 62
     7
370
    18
100
AcDbLine
 10
188.3778939312
 20
765.3763387511
 30
0.0
 11
188.3778939312
 21
755.3763387511
 31
0.0
  0
LINE
  5
360
330
308
100
AcDbEntity
  8
0
  6
Continuous
 62
     7
370
    18
100
AcDbLine
 10
256.3778939312
 20
685.3763387511
 30
0.0
 11
248.3778939312
 21
685.3763387511
 31
0.0
  0
LINE
  5
361
330
308
100
AcDbEntity
  8
0
  6
Continuous
 62
     7
370
    18
100
AcDbLine
 10
248.3778939312
 20
685.3763387511
 30
0.0
 11
248.3778939312
 21
695.3763387511
 31
0.0
  0
LINE
  5
362
330
308
100
AcDbEntity
  8
0
  6
Continuous
 62
     7
370
    18
100
AcDbLine
 10
256.3778939312
 20
755.3763387511
 30
0.0
 11
256.3778939312
 21
745.3763387511
 31
0.0
  0
ENDBLK
  5
30A
330
308
100
AcDbEntity
  8
0
100
AcDbBlockEnd
  0
BLOCK
  5
364
330
363
100
AcDbEntity
  8
0
100
AcDbBlockBegin
  2
Block31
 70
     0
 10
0.0
 20
0.0
 30
0.0
  3
Block31
  1

  0
ARC
  5
366
330
363
100
AcDbEntity
  8
0
  6
Continuous
 62
   179
370
    25
100
AcDbCircle
 10
35.6817777248
 20
20.54
 30
0.0
 40
5.00000000000006
100
AcDbArc
 50
230.0
 51
50.0
  0
CIRCLE
  5
367
330
363
100
AcDbEntity
  8
0
  6
Continuous
 62
   179
370
    25
100
AcDbCircle
 10
35.6817777248
 20
20.54
 30
0.0
 40
2.500000000000057
  0
CIRCLE
  5
368
330
363
100
AcDbEntity
  8
0
  6
Continuous
 62
   179
370
    25
100
AcDbCircle
 10
5.04
 20
46.2515043875
 30
0.0
 40
2.499999999999947
  0
ARC
  5
369
330
363
100
AcDbEntity
  8
0
  6
Continuous
 62
   179
370
    25
100
AcDbCircle
 10
5.04
 20
46.2515043875
 30
0.0
 40
4.99999999999998
100
AcDbArc
 50
50.0
 51
230.0
  0
ARC
  5
36A
330
363
100
AcDbEntity
  8
0
  6
Continuous
 62
   179
370
    25
100
AcDbCircle
 10
35.6817777248
 20
5.04
 30
0.0
 40
5.00000000000006
100
AcDbArc
 50
230.0
 51
50.0
  0
CIRCLE
  5
36B
330
363
100
AcDbEntity
  8
0
  6
Continuous
 62
   179
370
    25
100
AcDbCircle
 10
35.6817777248
 20
5.04
 30
0.0
 40
2.500000000000057
  0
CIRCLE
  5
36C
330
363
100
AcDbEntity
  8
0
  6
Continuous
 62
   179
370
    25
100
AcDbCircle
 10
5.04
 20
30.7515043875
 30
0.0
 40
2.499999999999947
  0
ARC
  5
36D
330
363
100
AcDbEntity
  8
0
  6
Continuous
 62
   179
370
    25
100
AcDbCircle
 10
5.04
 20
30.7515043875
 30
0.0
 40
4.99999999999998
100
AcDbArc
 50
50.0
 51
230.0
  0
LINE
  5
36E
330
363
100
AcDbEntity
  8
0
  6
Continuous
 62
   179
370
    25
100
AcDbLine
 10
32.4678396763
 20
16.7097777844
 30
0.0
 11
1.8260619516
 21
42.4212821719
 31
0.0
  0
LINE
  5
36F
330
363
100
AcDbEntity
  8
0
  6
Continuous
 62
   179
370
    25
100
AcDbLine
 10
38.8957157732
 20
24.3702222156
 30
0.0
 11
8.2539380484
 21
50.0817266031
 31
0.0
  0
LINE
  5
370
330
363
100
AcDbEntity
  8
0
  6
Continuous
 62
   179
370
    18
100
AcDbLine
 10
5.04
 20
48.7515043875
 30
0.0
 11
5.04
 21
48.7915043875
 31
0.0
  0
LINE
  5
371
330
363
100
AcDbEntity
  8
0
  6
Continuous
 62
   179
370
    18
100
AcDbLine
 10
2.54
 20
46.2515043875
 30
0.0
 11
2.5
 21
46.2515043875
 31
0.0
  0
LINE
  5
372
330
363
100
AcDbEntity
  8
0
  6
Continuous
 62
   179
370
    18
100
AcDbLine
 10
5.04
 20
51.2515043875
 30
0.0
 11
5.04
 21
51.2915043875
 31
0.0
  0
LINE
  5
373
330
363
100
AcDbEntity
  8
0
  6
Continuous
 62
   179
370
    18
100
AcDbLine
 10
0.04
 20
46.2515043875
 30
0.0
 11
0.0
 21
46.2515043875
 31
0.0
  0
LINE
  5
374
330
363
100
AcDbEntity
  8
0
  6
Continuous
 62
   179
370
    18
100
AcDbLine
 10
33.1817777248
 20
20.54
 30
0.0
 11
33.1417777248
 21
20.54
 31
0.0
  0
LINE
  5
375
330
363
100
AcDbEntity
  8
0
  6
Continuous
 62
   179
370
    18
100
AcDbLine
 10
35.6817777248
 20
15.54
 30
0.0
 11
35.6817777248
 21
15.5
 31
0.0
  0
LINE
  5
376
330
363
100
AcDbEntity
  8
0
  6
Continuous
 62
   179
370
    18
100
AcDbLine
 10
40.6817777248
 20
20.54
 30
0.0
 11
40.7217777248
 21
20.54
 31
0.0
  0
LINE
  5
377
330
363
100
AcDbEntity
  8
0
  6
Continuous
 62
   179
370
    25
100
AcDbLine
 10
32.4678396763
 20
1.2097777844
 30
0.0
 11
1.8260619516
 21
26.9212821719
 31
0.0
  0
LINE
  5
378
330
363
100
AcDbEntity
  8
0
  6
Continuous
 62
   179
370
    25
100
AcDbLine
 10
38.8957157732
 20
8.8702222156
 30
0.0
 11
8.2539380484
 21
34.5817266031
 31
0.0
  0
LINE
  5
379
330
363
100
AcDbEntity
  8
0
  6
Continuous
 62
   179
370
    18
100
AcDbLine
 10
5.04
 20
33.2515043875
 30
0.0
 11
5.04
 21
33.2915043875
 31
0.0
  0
LINE
  5
37A
330
363
100
AcDbEntity
  8
0
  6
Continuous
 62
   179
370
    18
100
AcDbLine
 10
2.54
 20
30.7515043875
 30
0.0
 11
2.5
 21
30.7515043875
 31
0.0
  0
LINE
  5
37B
330
363
100
AcDbEntity
  8
0
  6
Continuous
 62
   179
370
    18
100
AcDbLine
 10
7.54
 20
30.7515043875
 30
0.0
 11
7.58
 21
30.7515043875
 31
0.0
  0
LINE
  5
37C
330
363
100
AcDbEntity
  8
0
  6
Continuous
 62
   179
370
    18
100
AcDbLine
 10
5.04
 20
35.7515043875
 30
0.0
 11
5.04
 21
35.7915043875
 31
0.0
  0
LINE
  5
37D
330
363
100
AcDbEntity
  8
0
  6
Continuous
 62
   179
370
    18
100
AcDbLine
 10
0.04
 20
30.7515043875
 30
0.0
 11
0.0
 21
30.7515043875
 31
0.0
  0
LINE
  5
37E
330
363
100
AcDbEntity
  8
0
  6
Continuous
 62
   179
370
    18
100
AcDbLine
 10
35.6817777248
 20
7.54
 30
0.0
 11
35.6817777248
 21
7.58
 31
0.0
  0
LINE
  5
37F
330
363
100
AcDbEntity
  8
0
  6
Continuous
 62
   179
370
    18
100
AcDbLine
 10
33.1817777248
 20
5.04
 30
0.0
 11
33.1417777248
 21
5.04
 31
0.0
  0
LINE
  5
380
330
363
100
AcDbEntity
  8
0
  6
Continuous
 62
   179
370
    18
100
AcDbLine
 10
38.1817777248
 20
5.04
 30
0.0
 11
38.2217777248
 21
5.04
 31
0.0
  0
LINE
  5
381
330
363
100
AcDbEntity
  8
0
  6
Continuous
 62
   179
370
    18
100
AcDbLine
 10
35.6817777248
 20
0.04
 30
0.0
 11
35.6817777248
 21
0.0
 31
0.0
  0
LINE
  5
382
330
363
100
AcDbEntity
  8
0
  6
Continuous
 62
   179
370
    18
100
AcDbLine
 10
40.6817777248
 20
5.04
 30
0.0
 11
40.7217777248
 21
5.04
 31
0.0
  0
ENDBLK
  5
365
330
363
100
AcDbEntity
  8
0
100
AcDbBlockEnd
  0
BLOCK
  5
3B4
330
3B3
100
AcDbEntity
  8
0
100
AcDbBlockBegin
  2
SW_CENTERMARKSYMBOL_0
 70
     0
 10
0.0
 20
0.0
 30
0.0
  3
SW_CENTERMARKSYMBOL_0
  1

  0
LINE
  5
3B6
330
3B3
100
AcDbEntity
  8
0
  6
Continuous
 62
     0
370
     0
100
AcDbLine
 10
0.0
 20
0.0
 30
0.0
 11
0.0
 21
2.54
 31
0.0
  0
LINE
  5
3B7
330
3B3
100
AcDbEntity
  8
0
  6
Continuous
 62
     0
370
     0
100
AcDbLine
 10
0.0
 20
0.0
 30
0.0
 11
-2.54
 21
0.0
 31
0.0
  0
LINE
  5
3B8
330
3B3
100
AcDbEntity
  8
0
  6
Continuous
 62
     0
370
     0
100
AcDbLine
 10
0.0
 20
0.0
 30
0.0
 11
0.0
 21
-2.54
 31
0.0
  0
LINE
  5
3B9
330
3B3
100
AcDbEntity
  8
0
  6
Continuous
 62
     0
370
     0
100
AcDbLine
 10
0.0
 20
0.0
 30
0.0
 11
2.54
 21
0.0
 31
0.0
  0
LINE
  5
3BA
330
3B3
100
AcDbEntity
  8
0
  6
Continuous
 62
     0
370
     0
100
AcDbLine
 10
0.0
 20
2.54
 30
0.0
 11
0.0
 21
5.04
 31
0.0
  0
LINE
  5
3BB
330
3B3
100
AcDbEntity
  8
0
  6
Continuous
 62
     0
370
     0
100
AcDbLine
 10
-2.54
 20
0.0
 30
0.0
 11
-5.04
 21
0.0
 31
0.0
  0
LINE
  5
3BC
330
3B3
100
AcDbEntity
  8
0
  6
Continuous
 62
     0
370
     0
100
AcDbLine
 10
0.0
 20
-2.54
 30
0.0
 11
0.0
 21
-5.04
 31
0.0
  0
LINE
  5
3BD
330
3B3
100
AcDbEntity
  8
0
  6
Continuous
 62
     0
370
     0
100
AcDbLine
 10
2.54
 20
0.0
 30
0.0
 11
5.04
 21
0.0
 31
0.0
  0
ENDBLK
  5
3B5
330
3B3
100
AcDbEntity
  8
0
100
AcDbBlockEnd
  0
BLOCK
  5
3C0
330
3BF
100
AcDbEntity
  8
0
100
AcDbBlockBegin
  2
SW_CENTERMARKSYMBOL_1
 70
     0
 10
0.0
 20
0.0
 30
0.0
  3
SW_CENTERMARKSYMBOL_1
  1

  0
LINE
  5
3C2
330
3BF
100
AcDbEntity
  8
0
  6
Continuous
 62
     0
370
     0
100
AcDbLine
 10
0.0
 20
0.0
 30
0.0
 11
0.0
 21
2.54
 31
0.0
  0
LINE
  5
3C3
330
3BF
100
AcDbEntity
  8
0
  6
Continuous
 62
     0
370
     0
100
AcDbLine
 10
0.0
 20
0.0
 30
0.0
 11
-2.54
 21
0.0
 31
0.0
  0
LINE
  5
3C4
330
3BF
100
AcDbEntity
  8
0
  6
Continuous
 62
     0
370
     0
100
AcDbLine
 10
0.0
 20
0.0
 30
0.0
 11
0.0
 21
-2.54
 31
0.0
  0
LINE
  5
3C5
330
3BF
100
AcDbEntity
  8
0
  6
Continuous
 62
     0
370
     0
100
AcDbLine
 10
0.0
 20
0.0
 30
0.0
 11
2.54
 21
0.0
 31
0.0
  0
LINE
  5
3C6
330
3BF
100
AcDbEntity
  8
0
  6
Continuous
 62
     0
370
     0
100
AcDbLine
 10
0.0
 20
2.54
 30
0.0
 11
0.0
 21
5.04
 31
0.0
  0
LINE
  5
3C7
330
3BF
100
AcDbEntity
  8
0
  6
Continuous
 62
     0
370
     0
100
AcDbLine
 10
-2.54
 20
0.0
 30
0.0
 11
-5.04
 21
0.0
 31
0.0
  0
LINE
  5
3C8
330
3BF
100
AcDbEntity
  8
0
  6
Continuous
 62
     0
370
     0
100
AcDbLine
 10
0.0
 20
-2.54
 30
0.0
 11
0.0
 21
-5.04
 31
0.0
  0
LINE
  5
3C9
330
3BF
100
AcDbEntity
  8
0
  6
Continuous
 62
     0
370
     0
100
AcDbLine
 10
2.54
 20
0.0
 30
0.0
 11
5.04
 21
0.0
 31
0.0
  0
ENDBLK
  5
3C1
330
3BF
100
AcDbEntity
  8
0
100
AcDbBlockEnd
  0
ENDSEC
  0
SECTION
  2
ENTITIES
  0
LINE
  5
383
330
1F
100
AcDbEntity
  8
0
  6
Continuous
 62
   179
370
    25
100
AcDbLine
 10
551.9246914939
 20
636.0811642909
 30
0.0
 11
551.9246914939
 21
678.0034170802
 31
0.0
  0
LINE
  5
384
330
1F
100
AcDbEntity
  8
0
  6
Continuous
 62
   179
370
    25
100
AcDbLine
 10
541.9246914939
 20
678.0034170802
 30
0.0
 11
541.9246914939
 21
636.0811642909
 31
0.0
  0
LINE
  5
385
330
1F
100
AcDbEntity
  8
0
  6
Continuous
 62
   179
370
    18
100
AcDbLine
 10
546.9246914939
 20
680.5034170802
 30
0.0
 11
546.9246914939
 21
680.5434170802
 31
0.0
  0
LINE
  5
386
330
1F
100
AcDbEntity
  8
0
  6
Continuous
 62
   179
370
    18
100
AcDbLine
 10
544.4246914939
 20
678.0034170802
 30
0.0
 11
544.3846914939
 21
678.0034170802
 31
0.0
  0
LINE
  5
387
330
1F
100
AcDbEntity
  8
0
  6
Continuous
 62
   179
370
    18
100
AcDbLine
 10
546.9246914939
 20
675.5034170802
 30
0.0
 11
546.9246914939
 21
675.4634170802
 31
0.0
  0
LINE
  5
388
330
1F
100
AcDbEntity
  8
0
  6
Continuous
 62
   179
370
    25
100
AcDbLine
 10
551.924691494
 20
716.0811642909
 30
0.0
 11
551.924691494
 21
758.0034170802
 31
0.0
  0
LINE
  5
389
330
1F
100
AcDbEntity
  8
0
  6
Continuous
 62
   179
370
    18
100
AcDbLine
 10
546.9246914939
 20
683.0034170802
 30
0.0
 11
546.9246914939
 21
683.0434170802
 31
0.0
  0
LINE
  5
38A
330
1F
100
AcDbEntity
  8
0
  6
Continuous
 62
   179
370
    18
100
AcDbLine
 10
541.9246914939
 20
678.0034170802
 30
0.0
 11
541.8846914939
 21
678.0034170802
 31
0.0
  0
LINE
  5
38B
330
1F
100
AcDbEntity
  8
0
  6
Continuous
 62
   179
370
    25
100
AcDbLine
 10
541.924691494
 20
758.0034170802
 30
0.0
 11
541.924691494
 21
716.0811642909
 31
0.0
  0
LINE
  5
38C
330
1F
100
AcDbEntity
  8
0
  6
Continuous
 62
   179
370
    18
100
AcDbLine
 10
551.9246914939
 20
678.0034170802
 30
0.0
 11
551.9646914939
 21
678.0034170802
 31
0.0
  0
LINE
  5
38D
330
1F
100
AcDbEntity
  8
0
  6
Continuous
 62
   179
370
    18
100
AcDbLine
 10
546.9246914939
 20
630.5034170802
 30
0.0
 11
546.9246914939
 21
630.5434170802
 31
0.0
  0
LINE
  5
38E
330
1F
100
AcDbEntity
  8
0
  6
Continuous
 62
   179
370
    18
100
AcDbLine
 10
544.4246914939
 20
628.0034170802
 30
0.0
 11
544.3846914939
 21
628.0034170802
 31
0.0
  0
LINE
  5
38F
330
1F
100
AcDbEntity
  8
0
  6
Continuous
 62
   179
370
    18
100
AcDbLine
 10
546.9246914939
 20
625.5034170802
 30
0.0
 11
546.9246914939
 21
625.4634170802
 31
0.0
  0
LINE
  5
390
330
1F
100
AcDbEntity
  8
0
  6
Continuous
 62
   179
370
    18
100
AcDbLine
 10
549.4246914939
 20
628.0034170802
 30
0.0
 11
549.4646914939
 21
628.0034170802
 31
0.0
  0
LINE
  5
391
330
1F
100
AcDbEntity
  8
0
  6
Continuous
 62
   179
370
    18
100
AcDbLine
 10
546.924691494
 20
760.5034170802
 30
0.0
 11
546.924691494
 21
760.5434170802
 31
0.0
  0
LINE
  5
392
330
1F
100
AcDbEntity
  8
0
  6
Continuous
 62
   179
370
    18
100
AcDbLine
 10
544.424691494
 20
758.0034170802
 30
0.0
 11
544.384691494
 21
758.0034170802
 31
0.0
  0
LINE
  5
393
330
1F
100
AcDbEntity
  8
0
  6
Continuous
 62
   179
370
    18
100
AcDbLine
 10
546.924691494
 20
755.5034170802
 30
0.0
 11
546.924691494
 21
755.4634170802
 31
0.0
  0
LINE
  5
394
330
1F
100
AcDbEntity
  8
0
  6
Continuous
 62
   179
370
    18
100
AcDbLine
 10
546.924691494
 20
763.0034170802
 30
0.0
 11
546.924691494
 21
763.0434170802
 31
0.0
  0
LINE
  5
395
330
1F
100
AcDbEntity
  8
0
  6
Continuous
 62
   179
370
    18
100
AcDbLine
 10
541.924691494
 20
758.0034170802
 30
0.0
 11
541.884691494
 21
758.0034170802
 31
0.0
  0
LINE
  5
396
330
1F
100
AcDbEntity
  8
0
  6
Continuous
 62
   179
370
    18
100
AcDbLine
 10
551.924691494
 20
758.0034170802
 30
0.0
 11
551.964691494
 21
758.0034170802
 31
0.0
  0
LINE
  5
397
330
1F
100
AcDbEntity
  8
0
  6
Continuous
 62
   179
370
    18
100
AcDbLine
 10
546.924691494
 20
710.5034170802
 30
0.0
 11
546.924691494
 21
710.5434170802
 31
0.0
  0
LINE
  5
398
330
1F
100
AcDbEntity
  8
0
  6
Continuous
 62
   179
370
    18
100
AcDbLine
 10
544.424691494
 20
708.0034170802
 30
0.0
 11
544.384691494
 21
708.0034170802
 31
0.0
  0
LINE
  5
399
330
1F
100
AcDbEntity
  8
0
  6
Continuous
 62
   179
370
    18
100
AcDbLine
 10
546.924691494
 20
705.5034170802
 30
0.0
 11
546.924691494
 21
705.4634170802
 31
0.0
  0
LINE
  5
39A
330
1F
100
AcDbEntity
  8
0
  6
Continuous
 62
   179
370
    18
100
AcDbLine
 10
549.424691494
 20
708.0034170802
 30
0.0
 11
549.464691494
 21
708.0034170802
 31
0.0
  0
CIRCLE
  5
39B
330
1F
100
AcDbEntity
  8
0
  6
Continuous
 62
   179
370
    25
100
AcDbCircle
 10
546.9246914939
 20
628.0034170802
 30
0.0
 40
2.499999999999886
  0
CIRCLE
  5
39C
330
1F
100
AcDbEntity
  8
0
  6
Continuous
 62
   179
370
    25
100
AcDbCircle
 10
546.9246914939
 20
678.0034170802
 30
0.0
 40
2.499999999999886
  0
ARC
  5
39D
330
1F
100
AcDbEntity
  8
0
  6
Continuous
 62
   179
370
    25
100
AcDbCircle
 10
546.9246914939
 20
678.0034170802
 30
0.0
 40
5.0
100
AcDbArc
 50
0.0
 51
180.0
  0
ARC
  5
39E
330
1F
100
AcDbEntity
  8
0
  6
Continuous
 62
   179
370
    25
100
AcDbCircle
 10
546.9246914939
 20
628.0034170802
 30
0.0
 40
9.500000000000014
100
AcDbArc
 50
121.7568638593
 51
58.2431361407
  0
CIRCLE
  5
39F
330
1F
100
AcDbEntity
  8
0
  6
Continuous
 62
   179
370
    25
100
AcDbCircle
 10
546.924691494
 20
708.0034170802
 30
0.0
 40
2.499999999999886
  0
CIRCLE
  5
3A0
330
1F
100
AcDbEntity
  8
0
  6
Continuous
 62
   179
370
    25
100
AcDbCircle
 10
546.924691494
 20
758.0034170802
 30
0.0
 40
2.499999999999886
  0
ARC
  5
3A1
330
1F
100
AcDbEntity
  8
0
  6
Continuous
 62
   179
370
    25
100
AcDbCircle
 10
546.924691494
 20
758.0034170802
 30
0.0
 40
5.0
100
AcDbArc
 50
0.0
 51
180.0
  0
ARC
  5
3A2
330
1F
100
AcDbEntity
  8
0
  6
Continuous
 62
   179
370
    25
100
AcDbCircle
 10
546.924691494
 20
708.0034170802
 30
0.0
 40
9.500000000000014
100
AcDbArc
 50
121.7568638593
 51
58.2431361407
  0
INSERT
  5
3A3
330
1F
100
AcDbEntity
  8
0
  6
Continuous
 62
     7
100
AcDbBlockReference
  2
Block15
 10
257.9564538676
 20
536.7784219707
 30
0.0
  0
INSERT
  5
3A4
330
1F
100
AcDbEntity
  8
0
  6
Continuous
 62
     7
100
AcDbBlockReference
  2
Block16
 10
79.813174489
 20
534.8824378825
 30
0.0
  0
INSERT
  5
3A5
330
1F
100
AcDbEntity
  8
0
  6
Continuous
 62
     7
100
AcDbBlockReference
  2
Block22
 10
0.0
 20
0.0
 30
0.0
  0
INSERT
  5
3A6
330
1F
100
AcDbEntity
  8
0
  6
Continuous
 62
     7
100
AcDbBlockReference
  2
Block17
 10
-12.0968944385
 20
54.7508819004
 30
0.0
  0
INSERT
  5
3A7
330
1F
100
AcDbEntity
  8
0
  6
Continuous
 62
     7
100
AcDbBlockReference
  2
Block21
 10
314.2099399119
 20
548.2544459341
 30
0.0
  0
INSERT
  5
3A8
330
1F
100
AcDbEntity
  8
0
  6
Continuous
 62
     7
100
AcDbBlockReference
  2
Block18
 10
203.1991228021
 20
538.2744396164
 30
0.0
  0
INSERT
  5
3A9
330
1F
100
AcDbEntity
  8
0
  6
Continuous
 62
     7
100
AcDbBlockReference
  2
Block23
 10
-109.3369427068
 20
-9.9685632973
 30
0.0
  0
INSERT
  5
3AA
330
1F
100
AcDbEntity
  8
0
  6
Continuous
 62
     7
100
AcDbBlockReference
  2
Block27
 10
-165.0519268619
 20
-29.2601575009
 30
0.0
  0
INSERT
  5
3AB
330
1F
100
AcDbEntity
  8
0
  6
Continuous
 62
     7
100
AcDbBlockReference
  2
Block28
 10
0.0
 20
0.0
 30
0.0
  0
INSERT
  5
3AC
330
1F
100
AcDbEntity
  8
0
  6
Continuous
 62
     7
100
AcDbBlockReference
  2
Block31
 10
557.1456016738
 20
703.6178920944
 30
0.0
  0
ARC
  5
3AD
330
1F
100
AcDbEntity
  8
0
  6
Continuous
 62
     7
370
    25
100
AcDbCircle
 10
282.8458888624
 20
261.0342478063
 30
0.0
 40
5.000000000000009
100
AcDbArc
 50
230.0
 51
50.0
  0
CIRCLE
  5
3AE
330
1F
100
AcDbEntity
  8
0
  6
Continuous
 62
     7
370
    25
100
AcDbCircle
 10
282.8458888624
 20
261.0342478063
 30
0.0
 40
2.5
  0
CIRCLE
  5
3AF
330
1F
100
AcDbEntity
  8
0
  6
Continuous
 62
     7
370
    25
100
AcDbCircle
 10
252.2041111376
 20
286.7457521937
 30
0.0
 40
2.5
  0
LINE
  5
3B0
330
1F
100
AcDbEntity
  8
0
  6
Continuous
 62
     7
370
    25
100
AcDbLine
 10
279.6319508139
 20
257.2040255907
 30
0.0
 11
248.9901730892
 21
282.9155299781
 31
0.0
  0
ARC
  5
3B1
330
1F
100
AcDbEntity
  8
0
  6
Continuous
 62
     7
370
    25
100
AcDbCircle
 10
252.2041111376
 20
286.7457521937
 30
0.0
 40
5.000000000000009
100
AcDbArc
 50
50.0
 51
230.0
  0
LINE
  5
3B2
330
1F
100
AcDbEntity
  8
0
  6
Continuous
 62
     7
370
    25
100
AcDbLine
 10
286.0598269108
 20
264.8644700219
 30
0.0
 11
255.4180491861
 21
290.5759744093
 31
0.0
  0
INSERT
  5
3BE
330
1F
100
AcDbEntity
  8
0
  6
Continuous
 62
     7
370
     0
100
AcDbBlockReference
  2
SW_CENTERMARKSYMBOL_0
 10
252.2041111376
 20
286.7457521937
 30
0.0
  0
INSERT
  5
3CA
330
1F
100
AcDbEntity
  8
0
  6
Continuous
 62
     7
370
     0
100
AcDbBlockReference
  2
SW_CENTERMARKSYMBOL_1
 10
282.8458888624
 20
261.0342478063
 30
0.0
  0
ENDSEC
  0
SECTION
  2
OBJECTS
  0
DICTIONARY
  5
C
330
0
100
AcDbDictionary
281
     1
  3
ACAD_GROUP
350
D
  3
ACAD_LAYOUT
350
1A
  3
ACAD_MLINESTYLE
350
17
  3
ACAD_PLOTSETTINGS
350
19
  3
ACAD_PLOTSTYLENAME
350
E
  3
ACAD_SCALELIST
350
47
  0
DICTIONARY
  5
D
102
{ACAD_REACTORS
330
C
102
}
330
C
100
AcDbDictionary
281
     1
  0
DICTIONARY
  5
1A
102
{ACAD_REACTORS
330
C
102
}
330
C
100
AcDbDictionary
281
     1
  3
Layout1
350
1E
  3
Layout2
350
26
  3
Model
350
22
  0
DICTIONARY
  5
17
102
{ACAD_REACTORS
330
C
102
}
330
C
100
AcDbDictionary
281
     1
  3
Standard
350
18
  0
DICTIONARY
  5
19
102
{ACAD_REACTORS
330
C
102
}
330
C
100
AcDbDictionary
281
     1
  0
ACDBDICTIONARYWDFLT
  5
E
102
{ACAD_REACTORS
330
C
102
}
330
C
100
AcDbDictionary
281
     1
  3
Normal
350
F
100
AcDbDictionaryWithDefault
340
F
  0
DICTIONARY
  5
47
102
{ACAD_REACTORS
330
C
102
}
330
C
100
AcDbDictionary
281
     1
  3
A0
350
48
  3
A1
350
49
  3
A2
350
4A
  3
A3
350
4B
  3
A4
350
4C
  3
A5
350
4D
  3
A6
350
4E
  3
A7
350
4F
  3
A8
350
50
  3
A9
350
51
  3
B0
350
52
  3
B1
350
53
  3
B2
350
54
  3
B3
350
55
  3
B4
350
56
  3
B5
350
57
  3
B6
350
58
  3
B7
350
59
  3
B8
350
5A
  3
B9
350
5B
  3
C0
350
5C
  3
C1
350
5D
  3
C2
350
5E
  3
C3
350
5F
  3
C4
350
60
  3
C5
350
61
  3
C6
350
62
  3
C7
350
63
  3
C8
350
64
  3
C9
350
65
  3
D0
350
66
  3
D1
350
67
  3
D2
350
68
  0
LAYOUT
  5
1E
102
{ACAD_REACTORS
330
1A
102
}
330
1A
100
AcDbPlotSettings
  1

  2
none_device
  4

  6

 40
0.0
 41
0.0
 42
0.0
 43
0.0
 44
0.0
 45
0.0
 46
0.0
 47
0.0
 48
0.0
 49
0.0
140
0.0
141
0.0
142
1.0
143
1.0
 70
   688
 72
     1
 73
     0
 74
     5
  7

 75
    16
147
1.0
148
0.0
149
0.0
100
AcDbLayout
  1
Layout1
 70
     1
 71
     1
 10
0.0
 20
0.0
 11
420.0
 21
297.0
 12
0.0
 22
0.0
 32
0.0
 14
1.0000000000E+20
 24
1.0000000000E+20
 34
1.0000000000E+20
 15
-1.0000000000E+20
 25
-1.0000000000E+20
 35
-1.0000000000E+20
146
0.0
 13
0.0
 23
0.0
 33
0.0
 16
1.0
 26
0.0
 36
0.0
 17
0.0
 27
1.0
 37
0.0
 76
     0
330
1B
  0
LAYOUT
  5
26
102
{ACAD_REACTORS
330
1A
102
}
330
1A
100
AcDbPlotSettings
  1

  2
none_device
  4

  6

 40
0.0
 41
0.0
 42
0.0
 43
0.0
 44
0.0
 45
0.0
 46
0.0
 47
0.0
 48
0.0
 49
0.0
140
0.0
141
0.0
142
1.0
143
1.0
 70
   688
 72
     1
 73
     0
 74
     5
  7

 75
    16
147
1.0
148
0.0
149
0.0
100
AcDbLayout
  1
Layout2
 70
     1
 71
     2
 10
0.0
 20
0.0
 11
0.0
 21
0.0
 12
0.0
 22
0.0
 32
0.0
 14
0.0
 24
0.0
 34
0.0
 15
0.0
 25
0.0
 35
0.0
146
0.0
 13
0.0
 23
0.0
 33
0.0
 16
1.0
 26
0.0
 36
0.0
 17
0.0
 27
1.0
 37
0.0
 76
     0
330
23
  0
LAYOUT
  5
22
102
{ACAD_REACTORS
330
1A
102
}
330
1A
100
AcDbPlotSettings
  1

  2
none_device
  4
Letter_(8.50_x_11.00_Inches)
  6

 40
6.35
 41
6.35
 42
6.35000508
 43
6.35000508
 44
215.9
 45
279.4
 46
0.0
 47
0.0
 48
0.0
 49
0.0
140
0.0
141
0.0
142
1.0
143
1.0
 70
  1712
 72
     1
 73
     0
 74
     0
  7

 75
     0
147
1.0
148
0.0
149
0.0
100
AcDbLayout
  1
Model
 70
     1
 71
     0
 10
0.0
 20
0.0
 11
1189.0
 21
841.0
 12
0.0
 22
0.0
 32
0.0
 14
0.0
 24
0.0
 34
0.0
 15
1189.0
 25
841.0
 35
0.0
146
0.0
 13
0.0
 23
0.0
 33
0.0
 16
1.0
 26
0.0
 36
0.0
 17
0.0
 27
1.0
 37
0.0
 76
     0
330
1F
331
29
  0
MLINESTYLE
  5
18
102
{ACAD_REACTORS
330
17
102
}
330
17
100
AcDbMlineStyle
  2
Standard
 70
     0
  3

 62
   256
 51
90.0
 52
90.0
 71
     2
 49
0.5
 62
   256
  6
BYLAYER
 49
-0.5
 62
   256
  6
BYLAYER
  0
ACDBPLACEHOLDER
  5
F
102
{ACAD_REACTORS
330
E
102
}
330
E
  0
SCALE
  5
48
102
{ACAD_REACTORS
330
47
102
}
330
47
100
AcDbScale
 70
     0
300
1:1
140
1.0
141
1.0
290
     1
  0
SCALE
  5
49
102
{ACAD_REACTORS
330
47
102
}
330
47
100
AcDbScale
 70
     0
300
1:2
140
1.0
141
2.0
290
     0
  0
SCALE
  5
4A
102
{ACAD_REACTORS
330
47
102
}
330
47
100
AcDbScale
 70
     0
300
1:4
140
1.0
141
4.0
290
     0
  0
SCALE
  5
4B
102
{ACAD_REACTORS
330
47
102
}
330
47
100
AcDbScale
 70
     0
300
1:5
140
1.0
141
5.0
290
     0
  0
SCALE
  5
4C
102
{ACAD_REACTORS
330
47
102
}
330
47
100
AcDbScale
 70
     0
300
1:8
140
1.0
141
8.0
290
     0
  0
SCALE
  5
4D
102
{ACAD_REACTORS
330
47
102
}
330
47
100
AcDbScale
 70
     0
300
1:10
140
1.0
141
10.0
290
     0
  0
SCALE
  5
4E
102
{ACAD_REACTORS
330
47
102
}
330
47
100
AcDbScale
 70
     0
300
1:16
140
1.0
141
16.0
290
     0
  0
SCALE
  5
4F
102
{ACAD_REACTORS
330
47
102
}
330
47
100
AcDbScale
 70
     0
300
1:20
140
1.0
141
20.0
290
     0
  0
SCALE
  5
50
102
{ACAD_REACTORS
330
47
102
}
330
47
100
AcDbScale
 70
     0
300
1:30
140
1.0
141
30.0
290
     0
  0
SCALE
  5
51
102
{ACAD_REACTORS
330
47
102
}
330
47
100
AcDbScale
 70
     0
300
1:40
140
1.0
141
40.0
290
     0
  0
SCALE
  5
52
102
{ACAD_REACTORS
330
47
102
}
330
47
100
AcDbScale
 70
     0
300
1:50
140
1.0
141
50.0
290
     0
  0
SCALE
  5
53
102
{ACAD_REACTORS
330
47
102
}
330
47
100
AcDbScale
 70
     0
300
1:100
140
1.0
141
100.0
290
     0
  0
SCALE
  5
54
102
{ACAD_REACTORS
330
47
102
}
330
47
100
AcDbScale
 70
     0
300
2:1
140
2.0
141
1.0
290
     0
  0
SCALE
  5
55
102
{ACAD_REACTORS
330
47
102
}
330
47
100
AcDbScale
 70
     0
300
4:1
140
4.0
141
1.0
290
     0
  0
SCALE
  5
56
102
{ACAD_REACTORS
330
47
102
}
330
47
100
AcDbScale
 70
     0
300
8:1
140
8.0
141
1.0
290
     0
  0
SCALE
  5
57
102
{ACAD_REACTORS
330
47
102
}
330
47
100
AcDbScale
 70
     0
300
10:1
140
10.0
141
1.0
290
     0
  0
SCALE
  5
58
102
{ACAD_REACTORS
330
47
102
}
330
47
100
AcDbScale
 70
     0
300
100:1
140
100.0
141
1.0
290
     0
  0
SCALE
  5
59
102
{ACAD_REACTORS
330
47
102
}
330
47
100
AcDbScale
 70
     0
300
1/128" = 1'-0"
140
0.0078125
141
12.0
290
     0
  0
SCALE
  5
5A
102
{ACAD_REACTORS
330
47
102
}
330
47
100
AcDbScale
 70
     0
300
1/64" = 1'-0"
140
0.015625
141
12.0
290
     0
  0
SCALE
  5
5B
102
{ACAD_REACTORS
330
47
102
}
330
47
100
AcDbScale
 70
     0
300
1/32" = 1'-0"
140
0.03125
141
12.0
290
     0
  0
SCALE
  5
5C
102
{ACAD_REACTORS
330
47
102
}
330
47
100
AcDbScale
 70
     0
300
1/16" = 1'-0"
140
0.0625
141
12.0
290
     0
  0
SCALE
  5
5D
102
{ACAD_REACTORS
330
47
102
}
330
47
100
AcDbScale
 70
     0
300
3/32" = 1'-0"
140
0.09375
141
12.0
290
     0
  0
SCALE
  5
5E
102
{ACAD_REACTORS
330
47
102
}
330
47
100
AcDbScale
 70
     0
300
1/8" = 1'-0"
140
0.125
141
12.0
290
     0
  0
SCALE
  5
5F
102
{ACAD_REACTORS
330
47
102
}
330
47
100
AcDbScale
 70
     0
300
3/16" = 1'-0"
140
0.1875
141
12.0
290
     0
  0
SCALE
  5
60
102
{ACAD_REACTORS
330
47
102
}
330
47
100
AcDbScale
 70
     0
300
1/4" = 1'-0"
140
0.25
141
12.0
290
     0
  0
SCALE
  5
61
102
{ACAD_REACTORS
330
47
102
}
330
47
100
AcDbScale
 70
     0
300
3/8" = 1'-0"
140
0.375
141
12.0
290
     0
  0
SCALE
  5
62
102
{ACAD_REACTORS
330
47
102
}
330
47
100
AcDbScale
 70
     0
300
1/2" = 1'-0"
140
0.5
141
12.0
290
     0
  0
SCALE
  5
63
102
{ACAD_REACTORS
330
47
102
}
330
47
100
AcDbScale
 70
     0
300
3/4" = 1'-0"
140
0.75
141
12.0
290
     0
  0
SCALE
  5
64
102
{ACAD_REACTORS
330
47
102
}
330
47
100
AcDbScale
 70
     0
300
1" = 1'-0"
140
1.0
141
12.0
290
     0
  0
SCALE
  5
65
102
{ACAD_REACTORS
330
47
102
}
330
47
100
AcDbScale
 70
     0
300
1-1/2" = 1'-0"
140
1.5
141
12.0
290
     0
  0
SCALE
  5
66
102
{ACAD_REACTORS
330
47
102
}
330
47
100
AcDbScale
 70
     0
300
3" = 1'-0"
140
3.0
141
12.0
290
     0
  0
SCALE
  5
67
102
{ACAD_REACTORS
330
47
102
}
330
47
100
AcDbScale
 70
     0
300
6" = 1'-0"
140
6.0
141
12.0
290
     0
  0
SCALE
  5
68
102
{ACAD_REACTORS
330
47
102
}
330
47
100
AcDbScale
 70
     0
300
1'-0" = 1'-0"
140
12.0
141
12.0
290
     0
  0
ENDSEC
  0
EOF
